<?xml version="1.0" encoding="UTF-8"?>
<svg id="_图层_1" data-name="图层 1" xmlns="http://www.w3.org/2000/svg" viewBox="0 0 400 400">
  <path d="m110.36,0v337.02c0,3.3.72,6.15,2.16,8.55,1.44,2.41,3.15,3.6,5.13,3.6h21.33c1.98,0,3.69-1.2,5.13-3.6,1.44-2.4,2.16-5.25,2.16-8.55v-36.9c0-3.3.68-6.15,2.03-8.55,1.35-2.4,3.01-3.6,5-3.6h93.15c1.98,0,3.64,1.2,5,3.6,1.35,2.41,2.02,5.25,2.02,8.55v99.9h35.91V62.97c0-3.3-.72-6.15-2.16-8.55-1.44-2.4-3.15-3.6-5.13-3.6h-21.33c-1.98,0-3.69,1.2-5.13,3.6-1.44,2.4-2.16,5.25-2.16,8.55v159.3c0,3.3-.67,6.15-2.02,8.55-1.35,2.41-3.02,3.6-5,3.6h-93.15c-1.98,0-3.65-1.2-5-3.6-1.35-2.4-2.03-5.25-2.03-8.55V0" style="fill: #fff;"/>
</svg>
