<?xml version="1.0" encoding="UTF-8"?>
<svg id="_图层_1" data-name="图层 1" xmlns="http://www.w3.org/2000/svg" viewBox="0 0 400 400">
  <path d="m289.51,305.52c-4.77,13.5-11.3,24.15-19.57,31.95-8.28,7.8-17.28,11.7-27,11.7h-123.93c-1.98,0-3.69-1.2-5.13-3.6-1.44-2.4-2.16-5.25-2.16-8.55V62.97c0-3.3.72-6.15,2.16-8.55,1.44-2.4,3.15-3.6,5.13-3.6h114.75c9.72,0,18.67,3.98,26.87,11.93,8.19,7.95,14.71,18.67,19.58,32.17,4.86,13.5,7.29,28.2,7.29,44.1,0,20.1-3.69,37.96-11.07,53.55,6.3,8.1,11.25,18.16,14.85,30.15,3.6,12,5.4,24.9,5.4,38.7,0,15.9-2.39,30.6-7.16,44.1Zm-43.74-190.58c-3.51-6.75-7.7-10.12-12.56-10.12h-78.57c-1.98,0-3.64,1.12-5,3.38-1.35,2.25-2.02,5.03-2.02,8.33v45c0,3.3.67,6.08,2.02,8.33,1.35,2.25,3.01,3.38,5,3.38h78.57c4.86,0,9.04-3.38,12.56-10.12,3.51-6.75,5.26-14.77,5.26-24.08s-1.75-17.33-5.26-24.08Zm9.31,121.95c-3.42-6.75-7.65-10.12-12.69-10.12h-87.75c-1.98,0-3.64,1.2-5,3.6-1.35,2.4-2.02,5.25-2.02,8.55v44.55c0,3.3.67,6.15,2.02,8.55,1.35,2.41,3.01,3.6,5,3.6h87.75c5.04,0,9.27-3.3,12.69-9.9,3.42-6.6,5.13-14.7,5.13-24.3s-1.71-17.78-5.13-24.53Z" style="fill: #fff;"/>
</svg>
