<?xml version="1.0" encoding="UTF-8"?>
<svg xmlns="http://www.w3.org/2000/svg" viewBox="0 0 400 400">
  <path d="m281.95,304.85c-4.77,13.65-11.25,24.46-19.44,32.4-8.19,7.95-17.14,11.92-26.86,11.92h-71.28c-9.72,0-18.68-3.97-26.87-11.92-8.19-7.95-14.67-18.75-19.44-32.4-4.77-13.65-7.15-28.42-7.15-44.33v-121.5c0-15.9,2.38-30.6,7.15-44.1,4.77-13.5,11.25-24.22,19.44-32.17,8.19-7.95,17.14-11.93,26.87-11.93h71.28c9.72,0,18.67,3.98,26.86,11.93,8.19,7.95,14.67,18.67,19.44,32.17,4.77,13.5,7.16,28.2,7.16,44.1v19.8c0,3.9-.54,7.36-1.62,10.35-1.08,3-2.52,4.5-4.32,4.5h-20.79c-1.98,0-3.96-1.65-5.94-4.95-1.98-3.3-2.97-6.6-2.97-9.9v-19.8c0-9.6-1.71-17.77-5.13-24.52-3.42-6.75-7.65-10.12-12.69-10.12h-71.28c-5.04,0-9.27,3.38-12.69,10.12-3.42,6.75-5.13,14.93-5.13,24.52v121.5c0,9.6,1.71,17.78,5.13,24.53,3.42,6.75,7.65,10.12,12.69,10.12h71.28c5.04,0,9.27-3.38,12.69-10.12,3.42-6.75,5.13-14.92,5.13-24.53v-19.8c0-3.3.99-6.6,2.97-9.9,1.98-3.3,3.96-4.95,5.94-4.95h20.79c1.8,0,3.24,1.5,4.32,4.5,1.08,3,1.62,6.45,1.62,10.35v19.8c0,15.91-2.39,30.68-7.16,44.33Z" style="fill: #fff;"/>
</svg>
