<?xml version="1.0" encoding="UTF-8"?>
<svg id="_图层_1" data-name="图层 1" xmlns="http://www.w3.org/2000/svg" viewBox="0 0 400 400">
  <path d="m282.22,305.52c-4.77,13.5-11.3,24.15-19.57,31.95-8.28,7.8-17.28,11.7-27,11.7h-71.55c-9.72,0-18.72-3.9-27-11.7-8.28-7.8-14.81-18.45-19.58-31.95-4.77-13.5-7.15-28.2-7.15-44.1v-123.3c0-15.9,2.43-30.52,7.29-43.88,4.86-13.35,11.38-23.92,19.57-31.73,8.19-7.8,17.15-11.7,26.87-11.7h71.55c9.72,0,18.67,3.9,26.86,11.7,8.19,7.8,14.71,18.38,19.58,31.73,4.86,13.35,7.29,27.98,7.29,43.88v123.3c0,15.9-2.39,30.6-7.16,44.1Zm-34.02-190.58c-3.51-6.75-7.7-10.12-12.55-10.12h-71.55c-5.04,0-9.27,3.3-12.69,9.9-3.42,6.6-5.13,14.7-5.13,24.3v122.4c0,9.6,1.71,17.7,5.13,24.3,3.42,6.6,7.65,9.9,12.69,9.9h71.55c4.86,0,9.04-3.38,12.55-10.12s5.26-14.77,5.26-24.08v-122.4c0-9.29-1.75-17.33-5.26-24.08Z" style="fill: #fff;"/>
</svg>
