<?xml version="1.0" encoding="UTF-8"?>
<svg id="_图层_1" data-name="图层 1" xmlns="http://www.w3.org/2000/svg" viewBox="0 0 400 400">
  <path d="m113.7,400.02v-138.6c0-22.2,4.5-41.7,13.5-58.5-5.4-8.1-9.58-17.7-12.56-28.8-2.97-11.1-4.45-22.8-4.45-35.1,0-15.9,2.43-30.6,7.29-44.1,4.86-13.5,11.38-24.22,19.58-32.17,8.19-7.95,17.15-11.93,26.87-11.93h117.72c1.98,0,3.69,1.2,5.13,3.6,1.44,2.4,2.16,5.25,2.16,8.55v29.7c0,3.3-.72,6.15-2.16,8.55-1.44,2.4-3.15,3.6-5.13,3.6h-117.72c-5.04,0-9.27,3.3-12.69,9.9-3.42,6.6-5.13,14.7-5.13,24.3s1.71,17.71,5.13,24.3c3.42,6.6,7.65,9.9,12.69,9.9h82.08c1.98,0,3.65,1.2,5,3.6,1.35,2.41,2.03,5.25,2.03,8.55v29.7c0,3-.68,5.7-2.03,8.1-1.35,2.4-3.02,3.6-5,3.6h-78.57c-5.04,0-9.27,3.38-12.69,10.12-3.42,6.75-5.13,14.93-5.13,24.53v138.6" style="fill: #fff;"/>
</svg>
