<?xml version="1.0" encoding="UTF-8"?>
<svg id="_图层_1" data-name="图层 1" xmlns="http://www.w3.org/2000/svg" viewBox="0 0 400 400">
  <path d="m110.63,400.02V62.97c0-3.3.72-6.15,2.16-8.55,1.44-2.4,3.15-3.6,5.13-3.6h124.2c9.72,0,18.67,3.98,26.87,11.93,8.19,7.95,14.71,18.67,19.58,32.17,4.86,13.5,7.29,28.2,7.29,44.1v37.35c0,15.9-2.39,30.6-7.16,44.1-4.77,13.5-11.3,24.15-19.58,31.95-8.28,7.8-17.28,11.7-27,11.7h-88.56c-1.98,0-3.64,1.2-4.99,3.6-1.35,2.4-2.03,5.25-2.03,8.55v123.75M254.95,114.95c-3.51-6.75-7.79-10.12-12.83-10.12h-88.56c-1.98,0-3.64,1.12-4.99,3.38-1.35,2.25-2.03,5.03-2.03,8.33v80.55c0,3.3.67,6.15,2.03,8.55,1.35,2.4,3.01,3.6,4.99,3.6h88.56c5.04,0,9.32-3.38,12.83-10.12s5.26-14.77,5.26-24.08v-36c0-9.29-1.75-17.33-5.26-24.08Z" style="fill: #fff;"/>
</svg>
