<?xml version="1.0" encoding="UTF-8"?>
<svg xmlns="http://www.w3.org/2000/svg" viewBox="0 0 400 400">
  <path d="m282.08,305.3c-4.86,13.35-11.39,24-19.58,31.95-8.19,7.95-17.14,11.92-26.86,11.92h-113.13c-1.98,0-3.64-1.2-5-3.6-1.35-2.4-2.02-5.25-2.02-8.55v-29.7c0-3.3.72-6.07,2.16-8.32,1.44-2.25,3.06-3.38,4.86-3.38h113.13c4.86,0,9.04-3.38,12.55-10.12s5.26-14.77,5.26-24.08-1.75-17.78-5.26-24.53-7.7-10.12-12.55-10.12h-71.55c-9.72,0-18.72-3.9-27-11.7-8.28-7.8-14.81-18.45-19.58-31.95-4.77-13.5-7.15-28.2-7.15-44.1s2.43-30.6,7.29-44.1c4.86-13.5,11.38-24.22,19.57-32.17,8.19-7.95,17.15-11.93,26.87-11.93h115.56c1.98,0,3.64,1.2,5,3.6,1.35,2.4,2.02,5.25,2.02,8.55v61.65c0,3.3-.67,6.15-2.02,8.55-1.35,2.4-3.02,3.6-5,3.6h-18.9c-1.98,0-3.69-1.2-5.13-3.6-1.44-2.4-2.16-5.25-2.16-8.55v-8.1c0-3.3-.67-6.08-2.02-8.33-1.35-2.25-3.02-3.38-5-3.38h-82.35c-5.04,0-9.27,3.3-12.69,9.9-3.42,6.6-5.13,14.7-5.13,24.3s1.71,17.71,5.13,24.3c3.42,6.6,7.65,9.9,12.69,9.9h71.55c9.72,0,18.67,3.98,26.86,11.92,8.19,7.95,14.71,18.67,19.58,32.17s7.29,28.2,7.29,44.1-2.43,30.53-7.29,43.88Z" style="fill: #fff;"/>
</svg>
