<?xml version="1.0" encoding="UTF-8"?>
<svg id="_图层_1" data-name="图层 1" xmlns="http://www.w3.org/2000/svg" viewBox="0 0 400 400">
  <path d="m256.16,194.38c-.72-2.4-1.08-4.35-1.08-5.85,0-.9.18-2.25.54-4.05L303.59-2.62c.08-.28.15,2.91.22,2.62h-39.33l-42.88,166.92c-.36,1.8-1.13,3.3-2.29,4.5-1.17,1.2-2.39,1.8-3.65,1.8h-62.1c-1.98,0-3.64-1.12-4.99-3.38-1.35-2.25-2.03-5.02-2.03-8.33V62.97c0-3.3-.72-6.15-2.16-8.55-1.44-2.4-3.15-3.6-5.13-3.6h-21.33c-1.98,0-3.69,1.2-5.13,3.6-1.44,2.4-2.16,5.25-2.16,8.55l-2,337.05h35.91l2-161.1c0-3.3.67-6.15,2.03-8.55,1.35-2.4,3.01-3.6,4.99-3.6h67.23c1.26,0,2.43.53,3.51,1.58,1.08,1.05,1.89,2.47,2.43,4.28l38.88,110.25c1.44,4.2,3.51,6.3,6.21,6.3h27.54c1.98,0,3.69-1.2,5.13-3.6,1.44-2.4,2.16-5.25,2.16-8.55,0-2.4-.63-4.95-1.89-7.65l-48.6-135Z" style="fill: #fff;"/>
</svg>
