<?xml version="1.0" encoding="UTF-8"?>
<svg xmlns="http://www.w3.org/2000/svg" viewBox="0 0 400 400">
  <g>
    <path d="m145.01,407.85V139.12l-48.97,97.13c-1.64,2.74-3.47,4.1-5.47,4.1-2.37,0-4.29-1.52-5.75-4.56l-48.7-96.67v199.73c0,3.35-.68,6.23-2.05,8.66-1.37,2.44-3.06,3.65-5.06,3.65H7.11c-2.01,0-3.69-1.21-5.06-3.65-1.37-2.43-2.05-5.32-2.05-8.66V61.15c0-3.34.68-6.23,2.05-8.66,1.37-2.43,3.05-3.65,5.06-3.65h25.72c2.19,0,4.1,1.67,5.75,5.02l51.98,103.06,51.98-103.06c1.64-3.34,3.56-5.02,5.75-5.02h25.72c2,0,3.69,1.22,5.06,3.65,1.37,2.44,2.05,5.32,2.05,8.66v346.7" style="fill: #fff;"/>
  </g>
  <g>
    <path d="m218.44,399.85V137.3c0-16.11,2.42-30.93,7.25-44.46,4.83-13.52,11.4-24.24,19.7-32.15,8.3-7.9,17.37-11.86,27.22-11.86h72.78c9.85,0,18.92,3.96,27.22,11.86,8.3,7.91,14.86,18.7,19.7,32.38,4.83,13.68,7.25,28.73,7.25,45.14v200.64c0,3.35-.68,6.23-2.05,8.66-1.37,2.44-3.06,3.65-5.06,3.65h-21.89c-2.01,0-3.69-1.21-5.06-3.65-1.37-2.43-2.05-5.32-2.05-8.66v-200.64c0-9.42-1.78-17.56-5.34-24.4s-7.8-10.26-12.72-10.26h-72.78c-4.92,0-9.17,3.42-12.72,10.26s-5.33,14.98-5.33,24.4v261.64" style="fill: #fff;"/>
  </g>
</svg>
