<?xml version="1.0" encoding="UTF-8"?>
<svg xmlns="http://www.w3.org/2000/svg" viewBox="0 0 400 400">
  <g id="_图层_6" data-name="图层 6">
    <path id="G" d="m54.17,103.1c-5.11,0-9.4,3.42-12.86,10.26-3.47,6.84-5.2,15.13-5.2,24.85v123.12c0,9.73,1.73,18.01,5.2,24.85,3.46,6.84,7.75,10.26,12.86,10.26l31.79.46h59.64c2,0,3.69-1.21,5.06-3.65,1.37-2.43,2.05-5.31,2.05-8.66v-45.14c0-3.34-.68-6.23-2.05-8.66-1.37-2.43-3.06-3.65-5.06-3.65h-6.57c-2.01,0-3.74-1.14-5.2-3.42-1.46-2.28-2.19-5.09-2.19-8.44v-30.1c0-3.34.73-6.23,2.19-8.66,1.46-2.43,3.19-3.65,5.2-3.65h42.68c2,0,3.74,1.22,5.2,3.65,1.46,2.44,2.19,5.32,2.19,8.66v153.67c0,3.35-.73,6.23-2.19,8.66-1.46,2.44-3.19,3.65-5.2,3.65h-95.76,40.44H54.17c-9.85,0-18.92-4.03-27.22-12.08-8.3-8.05-14.87-19-19.7-32.83-4.83-13.83-7.25-28.8-7.25-44.92v-123.12c0-16.11,2.42-31.01,7.25-44.69,4.83-13.68,11.4-24.55,19.7-32.6,8.3-8.05,17.37-12.08,27.22-12.08h91.44c2,0,3.69,1.22,5.06,3.65,1.37,2.44,2.05,5.32,2.05,8.66v30.1c0,3.35-.68,6.23-2.05,8.66-1.37,2.44-3.06,3.65-5.06,3.65l-91.44-.46Z" style="fill: #fff;"/>
  </g>
  <g id="_图层_5" data-name="图层 5">
    <path d="m392.27,309.44c-4.83,12.92-11.4,23.11-19.7,30.55-8.3,7.45-17.37,11.17-27.22,11.17h-72.23c-9.85,0-18.92-4.03-27.22-12.08-8.3-8.05-14.87-18.92-19.7-32.6-4.83-13.68-7.25-28.57-7.25-44.69s2.42-31.08,7.25-44.92c4.83-13.83,11.4-24.85,19.7-33.06,8.3-8.21,17.37-12.31,27.22-12.31h84.27c4.01,0,6.02-3.34,6.02-10.03v-23.26c0-9.73-1.74-18.01-5.2-24.85-3.47-6.84-7.75-10.26-12.86-10.26h-45.14c-2.19,0-4.24-1.52-6.16-4.56-1.92-3.04-2.87-6.38-2.87-10.03v-24.62c0-3.34,1-6.68,3.01-10.03,2-3.34,4.01-5.02,6.02-5.02h45.14c9.85,0,18.92,4.1,27.22,12.31,8.3,8.21,14.86,19.23,19.7,33.06,4.83,13.84,7.25,28.81,7.25,44.92v126.77c0,16.12-2.42,30.63-7.25,43.55Zm-34.88-82.76h-84.27c-5.11,0-9.4,3.42-12.86,10.26-3.47,6.84-5.2,15.13-5.2,24.85s1.73,18.01,5.2,24.85c3.46,6.84,7.75,10.26,12.86,10.26h72.23c5.1,0,9.39-2.81,12.86-8.44,3.46-5.62,5.2-13.15,5.2-22.57v-29.18c0-6.68-2.01-10.03-6.02-10.03Z" style="fill: #fff;"/>
  </g>
</svg>
