<?xml version="1.0" encoding="UTF-8"?>
<svg xmlns="http://www.w3.org/2000/svg" viewBox="0 0 400 400">
  <g id="_图层_6" data-name="图层 6">
    <path d="m145.32,399.85v-98.39c0-3.34-.68-6.23-2.05-8.66-1.37-2.43-3.06-3.65-5.06-3.65H43.81c-2.01,0-3.69,1.22-5.06,3.65-1.37,2.44-2.05,5.32-2.05,8.66v37.39c0,3.35-.73,6.23-2.19,8.66-1.46,2.44-3.19,3.65-5.2,3.65H7.7c-2.01,0-3.74-1.21-5.2-3.65-1.46-2.43-2.19-5.32-2.19-8.66v-142.27c0-28.27,4.06-54.26,12.18-77.98,8.11-23.71,19.1-42.48,32.97-56.32,13.86-13.83,29-20.75,45.42-20.75s31.6,6.92,45.55,20.75c13.95,13.84,24.99,32.6,33.11,56.32,8.11,23.71,12.17,49.7,12.17,77.98v203.27m-43.78-252.06c-4.92-15.2-11.54-27.28-19.84-36.25-8.3-8.96-17.37-13.45-27.22-13.45s-18.92,4.41-27.22,13.22c-8.3,8.82-14.87,20.75-19.7,35.8-4.83,15.05-7.25,31.54-7.25,49.48v25.99c0,3.35.68,6.23,2.05,8.66,1.37,2.44,3.05,3.65,5.06,3.65h94.39c2,0,3.69-1.21,5.06-3.65,1.37-2.43,2.05-5.32,2.05-8.66v-24.62c0-18.24-2.46-34.96-7.39-50.16Z" style="fill: #fff;"/>
  </g>
  <g id="_图层_5" data-name="图层 5">
    <path d="m400,103.56h-130.13c-5.11,0-10.89,2.77-12.86,10.03s-2.01,14.69-2.01,24.41,0,18,2.01,24.84c2.12,7.23,7.75,10.03,12.86,10.03h78.52c9.85,0,18.92,4.03,27.22,12.08,8.3,8.06,14.91,18.92,19.84,32.6,4.92,13.68,4.55,27.33,4.55,43.44s.37,32.18-4.55,45.7c-4.93,13.53-11.54,24.33-19.84,32.38-8.3,8.06-17.38,12.08-27.22,12.08h-83.45c-2.01,0-3.69-1.21-5.06-3.65-1.37-2.43-2.05-5.32-2.05-8.66v-30.1c0-3.34.68-6.16,2.05-8.44s3.05-3.42,5.06-3.42h83.45c4.93,0,11.52-2.64,12.72-10.26.89-5.64,1.89-15.21,1.89-24.64s0-14-1.89-24.61c-1.35-7.59-7.8-10.26-12.72-10.26h-78.52c-9.85,0-18.97-3.95-27.36-11.86-8.39-7.9-15.01-18.7-19.84-32.38-4.83-13.68-4.67-28.78-4.67-44.9s-.12-30.8,4.81-44.48,11.53-24.55,19.84-32.6c8.3-8.05,17.37-12.08,27.22-12.08l130.13.16" style="fill: #fff;"/>
  </g>
</svg>
