<?xml version="1.0" encoding="UTF-8"?>
<svg xmlns="http://www.w3.org/2000/svg" viewBox="0 0 400 400">
  <g>
    <path d="m-3.69,296.9H126.95c4.92,0,9.17-3.42,12.72-10.26s5.33-14.97,5.33-24.4-1.78-18.01-5.33-24.85-7.8-10.26-12.72-10.26H54.45c-9.85,0-18.97-3.95-27.36-11.86-8.39-7.9-15.01-18.7-19.84-32.38-4.83-13.68-7.25-28.57-7.25-44.69s2.46-31.01,7.39-44.69,11.53-24.55,19.84-32.6c8.3-8.05,17.37-12.08,27.22-12.08h117.1c2.01,0,3.69,1.22,5.06,3.65,1.37,2.44,2.05,5.32,2.05,8.66v62.47c0,3.35-.68,6.23-2.05,8.66-1.37,2.44-3.06,3.65-5.06,3.65h-19.15c-2.01,0-3.74-1.21-5.2-3.65-1.46-2.43-2.19-5.32-2.19-8.66v-8.21c0-3.34-.68-6.16-2.05-8.44-1.37-2.28-3.06-3.42-5.06-3.42H54.45c-5.11,0-9.4,3.35-12.86,10.03-3.47,6.69-5.2,14.9-5.2,24.62s1.73,17.94,5.2,24.62c3.46,6.69,7.75,10.03,12.86,10.03h72.5c9.85,0,18.92,4.03,27.22,12.08,8.3,8.06,14.91,18.92,19.84,32.6,4.92,13.68,7.39,28.58,7.39,44.69s-2.46,30.94-7.39,44.46c-4.92,13.53-11.54,24.33-19.84,32.38-8.3,8.06-17.37,12.08-27.22,12.08H-3.69" style="fill: #fff;"/>
  </g>
  <g>
    <path d="m400.3,351.16h-125.45c-9.85,0-18.97-3.95-27.36-11.86-8.39-7.9-15.01-18.7-19.84-32.38-4.83-13.68-7.25-28.57-7.25-44.69v-124.03c0-16.11,2.46-31.01,7.39-44.69s11.53-24.55,19.84-32.6c8.3-8.05,17.37-12.08,27.22-12.08h72.5c9.85,0,18.92,4.03,27.22,12.08,8.3,8.06,14.91,18.92,19.84,32.6s7.39,28.58,7.39,44.69-2.42,31.01-7.25,44.69c-4.83,13.68-11.45,24.47-19.84,32.38-8.39,7.91-17.51,11.86-27.36,11.86h-83.45c-2.01,0-3.69,1.22-5.06,3.65-1.37,2.44-2.05,5.32-2.05,8.66v22.8c0,9.73,1.73,17.94,5.2,24.62,3.46,6.69,7.75,10.03,12.86,10.03h125.45m-40.22-183.08c-3.56-6.84-7.8-10.26-12.72-10.26h-72.5c-5.11,0-9.4,3.35-12.86,10.03-3.47,6.69-5.2,14.9-5.2,24.62v22.8c0,3.35.68,6.16,2.05,8.44,1.37,2.28,3.05,3.42,5.06,3.42h83.45c4.92,0,9.17-3.42,12.72-10.26s5.33-14.97,5.33-24.4-1.78-17.56-5.33-24.4Z" style="fill: #fff;"/>
  </g>
</svg>
