<?xml version="1.0" encoding="UTF-8"?>
<svg xmlns="http://www.w3.org/2000/svg" viewBox="0 0 400 400">
  <g>
    <path d="m36.39,400v-160.56c0-3.34.68-6.23,2.05-8.66,1.37-2.43,3.05-3.65,5.06-3.65h50.13c1.27,0,2.46.54,3.56,1.6,1.09,1.07,1.92,2.51,2.46,4.33l39.4,111.72c1.46,4.26,3.56,6.38,6.29,6.38h27.91c2.01,0,3.74-1.21,5.2-3.65,1.46-2.43,2.19-5.32,2.19-8.66,0-2.43-.64-5.02-1.91-7.75l-49.25-136.8c-.73-2.43-1.1-4.4-1.1-5.93,0-.91.18-2.28.55-4.1L176.51,0h-39.78l-42.29,166.48c-.37,1.82-1.14,3.35-2.33,4.56-1.19,1.22-2.42,1.82-3.69,1.82h-44.93c-2.01,0-3.69-1.14-5.06-3.42-1.37-2.28-2.05-5.09-2.05-8.44V61.15c0-3.34-.73-6.23-2.19-8.66-1.46-2.43-3.19-3.65-5.2-3.65H7.39c-2.01,0-3.74,1.22-5.2,3.65-1.46,2.44-2.19,5.32-2.19,8.66v338.85" style="fill: #fff;"/>
  </g>
  <g>
    <path d="m218.6,399.85V138.21c0-16.11,2.46-31.01,7.39-44.69s11.53-24.55,19.84-32.6c8.3-8.05,17.37-12.08,27.22-12.08h72.5c9.85,0,18.92,4.03,27.22,12.08,8.3,8.06,14.91,18.92,19.84,32.6,4.92,13.68,7.39,28.58,7.39,44.69v49.7c0,3.35-.73,6.23-2.19,8.66-1.46,2.44-3.19,3.65-5.2,3.65h-21.62c-2.01,0-3.74-1.21-5.2-3.65-1.46-2.43-2.19-5.32-2.19-8.66v-49.7c0-9.42-1.78-17.56-5.34-24.4s-7.8-10.26-12.72-10.26h-72.5c-5.11,0-9.4,3.35-12.86,10.03-3.47,6.69-5.2,14.9-5.2,24.62v261.64" style="fill: #fff;"/>
  </g>
</svg>
