<?xml version="1.0" encoding="UTF-8"?>
<svg id="_图层_1" data-name="图层 1" xmlns="http://www.w3.org/2000/svg" viewBox="0 0 400 400">
  <path d="m181.91,400.02v-128.7c0-2.7-.5-5.1-1.49-7.2-.99-2.1-2.21-3.45-3.64-4.05-12.78-5.7-24.21-15.82-34.29-30.38-10.08-14.55-17.96-32.17-23.62-52.88-5.67-20.7-8.5-42.75-8.5-66.15v-47.7c0-3.3.72-6.15,2.16-8.55,1.44-2.4,3.15-3.6,5.13-3.6h21.33c1.98,0,3.69,1.2,5.13,3.6,1.44,2.4,2.16,5.25,2.16,8.55v47.25c0,17.71,2.38,34.13,7.16,49.28,4.77,15.15,11.25,27.15,19.44,36,8.19,8.85,17.14,13.27,26.86,13.27s18.67-4.42,26.87-13.27c8.19-8.85,14.72-20.77,19.58-35.78,4.86-15,7.29-31.35,7.29-49.05v-47.7c0-3.3.72-6.15,2.16-8.55,1.44-2.4,3.15-3.6,5.13-3.6h21.33c1.98,0,3.69,1.2,5.13,3.6,1.44,2.4,2.16,5.25,2.16,8.55v47.7c0,23.4-2.88,45.45-8.64,66.15-5.76,20.7-13.68,38.33-23.76,52.88-10.08,14.55-21.42,24.68-34.02,30.38-1.44.61-2.66,1.96-3.64,4.05-.99,2.1-1.49,4.5-1.49,7.2v128.7" style="fill: #fff;"/>
</svg>
