<?xml version="1.0" encoding="UTF-8"?>
<svg xmlns="http://www.w3.org/2000/svg" viewBox="0 0 400 400">
  <g id="_图层_6" data-name="图层 6">
    <path d="m144.04,407.85v-113.69c0-9.42-1.78-17.56-5.34-24.4s-7.8-10.26-12.72-10.26H43.23c-1.64,0-3.19,1.22-4.65,3.65-1.46,2.44-2.19,5.02-2.19,7.75v67.94c0,3.35-.73,6.23-2.19,8.66-1.46,2.44-3.19,3.65-5.2,3.65H7.39c-2.01,0-3.74-1.21-5.2-3.65-1.46-2.43-2.19-5.32-2.19-8.66V61.15c0-3.34.73-6.23,2.19-8.66,1.46-2.43,3.19-3.65,5.2-3.65h101.9c9.85,0,18.92,4.03,27.22,12.08,8.3,8.06,14.91,18.92,19.84,32.6,4.93,13.68,7.39,28.58,7.39,44.69v31.46c0,17.63-3.01,33.9-9.03,48.79,7.84,8.21,14.09,19,18.74,32.38,4.65,13.38,6.98,27.82,6.98,43.32v113.69M122.15,113.59c-3.47-6.68-7.75-10.03-12.86-10.03H36.39v89.38c0,3.35.68,6.16,2.05,8.44,1.37,2.28,3.05,3.42,5.06,3.42h65.79c5.11,0,9.39-3.34,12.86-10.03,3.46-6.68,5.2-14.89,5.2-24.62v-31.92c0-9.73-1.74-17.93-5.2-24.62Z" style="fill: #fff;"/>
  </g>
  <g id="_图层_5" data-name="图层 5">
    <path d="m392.75,307.16c-4.84,13.53-11.4,24.25-19.7,32.15-8.3,7.91-17.37,11.86-27.22,11.86h-72.78c-9.85,0-18.93-3.95-27.22-11.86-8.3-7.9-14.87-18.62-19.7-32.15-4.83-13.52-7.25-28.34-7.25-44.46V-5.85c0-3.34.68-6.23,2.05-8.66,1.37-2.43,3.05-3.65,5.06-3.65h21.89c2,0,3.69,1.22,5.06,3.65,1.37,2.44,2.05,5.32,2.05,8.66v268.1c0,9.43,1.78,17.56,5.33,24.4s7.8,10.26,12.72,10.26h72.78c4.92,0,9.16-3.42,12.72-10.26s5.34-14.97,5.34-24.4V61.15c0-3.34.68-6.23,2.05-8.66,1.37-2.43,3.05-3.65,5.06-3.65h21.89c2,0,3.69,1.22,5.06,3.65,1.37,2.44,2.05,5.32,2.05,8.66v201.55c0,16.12-2.42,30.94-7.25,44.46Z" style="fill: #fff;"/>
  </g>
</svg>
