<?xml version="1.0" encoding="UTF-8"?>
<svg xmlns="http://www.w3.org/2000/svg" viewBox="0 0 400 400">
  <g id="_图层_6" data-name="图层 6">
    <path d="m0,404.85V61.15c0-3.34.73-6.23,2.19-8.66,1.46-2.43,3.19-3.65,5.2-3.65h125.85c9.85,0,18.92,4.03,27.22,12.08,8.3,8.06,14.91,18.92,19.84,32.6,4.92,13.68,7.39,28.58,7.39,44.69v37.85c0,16.12-2.42,31.01-7.25,44.69-4.84,13.68-11.45,24.47-19.84,32.38-8.39,7.91-17.51,11.86-27.36,11.86H43.5c-2.01,0-3.69,1.22-5.06,3.65-1.37,2.44-2.05,5.32-2.05,8.66v127.56M146.24,113.82c-3.56-6.84-7.89-10.26-13-10.26H43.5c-2.01,0-3.69,1.14-5.06,3.42-1.37,2.28-2.05,5.09-2.05,8.44v81.62c0,3.35.68,6.23,2.05,8.66,1.37,2.44,3.05,3.65,5.06,3.65h89.74c5.11,0,9.44-3.42,13-10.26,3.56-6.84,5.34-14.97,5.34-24.4v-36.48c0-9.42-1.78-17.56-5.34-24.4Z" style="fill: #fff;"/>
  </g>
  <g id="_图层_5" data-name="图层 5">
    <path d="m399.57.24v265.66c0,16.12-2.42,30.63-7.25,43.55-4.83,12.92-11.4,23.11-19.7,30.55-8.3,7.45-17.37,11.17-27.22,11.17h-72.23c-9.85,0-18.93-3.72-27.22-11.17-8.3-7.45-14.87-17.63-19.7-30.55-4.83-12.92-7.25-27.43-7.25-43.55v-66.12c0-15.8,2.42-30.17,7.25-43.09,4.83-12.92,11.35-23.03,19.56-30.32s17.33-10.94,27.36-10.94h90.29V.24m-6.02,169.44h-84.27c-5.29,0-9.62,2.66-13,7.98-3.38,5.32-5.06,12.7-5.06,22.12v66.58c0,9.43,1.68,16.8,5.06,22.12,3.37,5.32,7.7,7.98,13,7.98h72.23c5.29,0,9.62-2.66,13-7.98,3.37-5.31,5.06-12.69,5.06-22.12v-86.64c0-6.68-2.01-10.03-6.02-10.03Z" style="fill: #fff;"/>
  </g>
</svg>
