<?xml version="1.0" encoding="UTF-8"?>
<svg xmlns="http://www.w3.org/2000/svg" viewBox="0 0 400 400">
  <g id="_图层_6" data-name="图层 6">
    <path d="m173.33,306.25c-4.83,13.84-11.4,24.78-19.7,32.83-8.3,8.06-17.37,12.08-27.22,12.08H54.17c-9.85,0-18.92-4.03-27.22-12.08-8.3-8.05-14.87-19-19.7-32.83-4.83-13.83-7.25-28.8-7.25-44.92v-123.12c0-16.11,2.42-31.01,7.25-44.69,4.83-13.68,11.4-24.55,19.7-32.6,8.3-8.05,17.37-12.08,27.22-12.08h72.23c9.85,0,18.92,4.03,27.22,12.08,8.3,8.06,14.87,18.92,19.7,32.6,4.83,13.68,7.25,28.58,7.25,44.69v20.06c0,3.95-.55,7.45-1.64,10.49-1.09,3.04-2.56,4.56-4.38,4.56h-21.07c-2.01,0-4.01-1.67-6.02-5.02-2.01-3.34-3.01-6.68-3.01-10.03v-20.06c0-9.73-1.73-18.01-5.2-24.85-3.47-6.84-7.76-10.26-12.86-10.26H54.17c-5.11,0-9.4,3.42-12.86,10.26-3.47,6.84-5.2,15.13-5.2,24.85v123.12c0,9.73,1.73,18.01,5.2,24.85,3.46,6.84,7.75,10.26,12.86,10.26h72.23c5.1,0,9.39-3.42,12.86-10.26,3.46-6.84,5.2-15.12,5.2-24.85v-20.06c0-3.34,1-6.68,3.01-10.03,2.01-3.34,4.01-5.02,6.02-5.02h21.07c1.82,0,3.28,1.52,4.38,4.56,1.09,3.04,1.64,6.54,1.64,10.49v20.06c0,16.12-2.42,31.09-7.25,44.92Z" style="fill: #fff;"/>
  </g>
  <g id="_图层_5" data-name="图层 5">
    <path d="m399.57.24v265.66c0,16.12-2.42,30.63-7.25,43.55-4.83,12.92-11.4,23.11-19.7,30.55-8.3,7.45-17.37,11.17-27.22,11.17h-72.23c-9.85,0-18.93-3.72-27.22-11.17-8.3-7.45-14.87-17.63-19.7-30.55-4.83-12.92-7.25-27.43-7.25-43.55v-66.12c0-15.8,2.42-30.17,7.25-43.09,4.83-12.92,11.35-23.03,19.56-30.32s17.33-10.94,27.36-10.94h90.29V.24m-6.02,169.44h-84.27c-5.29,0-9.62,2.66-13,7.98-3.38,5.32-5.06,12.7-5.06,22.12v66.58c0,9.43,1.68,16.8,5.06,22.12,3.37,5.32,7.7,7.98,13,7.98h72.23c5.29,0,9.62-2.66,13-7.98,3.37-5.31,5.06-12.69,5.06-22.12v-86.64c0-6.68-2.01-10.03-6.02-10.03Z" style="fill: #fff;"/>
  </g>
</svg>
