<?xml version="1.0" encoding="UTF-8"?>
<svg id="_图层_1" data-name="图层 1" xmlns="http://www.w3.org/2000/svg" viewBox="0 0 400 400">
  <path d="m287.21,345.57c-1.44,2.41-3.15,3.6-5.13,3.6H117.65c-1.98,0-3.69-1.2-5.13-3.6-1.44-2.4-2.16-5.25-2.16-8.55v-29.7c0-3.3.72-6.07,2.16-8.32,1.44-2.25,3.15-3.38,5.13-3.38h57.24c1.98,0,3.65-1.2,5-3.6,1.35-2.4,2.03-5.25,2.03-8.55V116.52c0-3.3-.67-6.08-2.03-8.33-1.35-2.25-3.02-3.38-5-3.38h-57.24c-1.98,0-3.69-1.2-5.13-3.6-1.44-2.4-2.16-5.25-2.16-8.55v-29.7c0-3.3.72-6.15,2.16-8.55,1.44-2.4,3.15-3.6,5.13-3.6h164.43c1.98,0,3.69,1.2,5.13,3.6,1.44,2.4,2.16,5.25,2.16,8.55v29.7c0,3.3-.72,6.15-2.16,8.55-1.44,2.4-3.15,3.6-5.13,3.6h-57.24c-1.98,0-3.64,1.12-5,3.38-1.35,2.25-2.02,5.03-2.02,8.33v166.95c0,3.3.67,6.15,2.02,8.55,1.35,2.41,3.01,3.6,5,3.6h57.24c1.98,0,3.69,1.12,5.13,3.38,1.44,2.25,2.16,5.03,2.16,8.32v29.7c0,3.3-.72,6.15-2.16,8.55Z" style="fill: #fff;"/>
</svg>
