<?xml version="1.0" encoding="UTF-8"?>
<svg xmlns="http://www.w3.org/2000/svg" viewBox="0 0 400 400">
  <g>
    <path d="m212.5,407.31c0,3.04-.64,5.78-1.92,8.21-1.28,2.44-3.01,3.65-5.2,3.65h-28.46c-2.37,0-4.29-1.37-5.75-4.1l-80.44-175.62-48.89,106.7c-1.64,3.35-3.74,5.02-6.29,5.02H7.39c-2.19,0-3.97-1.14-5.34-3.42-1.37-2.28-2.05-5.09-2.05-8.44,0-3.04.64-5.77,1.92-8.21l65.85-136.34L-27.07-.1c-1.09-2.43-1.64-5.17-1.64-8.21,0-3.34.64-6.16,1.92-8.44,1.27-2.28,3.01-3.42,5.2-3.42H5.22c2.55,0,4.56,1.67,6.02,5.02l79.51,166.13,46.79-97.58c1.46-3.04,3.37-4.56,5.75-4.56h26.81c2.19,0,3.92,1.14,5.2,3.42,1.27,2.28,1.91,5.09,1.91,8.44,0,3.04-.55,5.78-1.64,8.21l-61.83,125.86,97.13,204.8c1.09,2.13,1.64,4.72,1.64,7.75Z" style="fill: #fff;"/>
  </g>
  <g>
    <path d="m400.3,351.16h-125.45c-9.85,0-18.97-3.95-27.36-11.86-8.39-7.9-15.01-18.7-19.84-32.38-4.83-13.68-7.25-28.57-7.25-44.69v-124.03c0-16.11,2.46-31.01,7.39-44.69s11.53-24.55,19.84-32.6c8.3-8.05,17.37-12.08,27.22-12.08h72.5c9.85,0,18.92,4.03,27.22,12.08,8.3,8.06,14.91,18.92,19.84,32.6s7.39,28.58,7.39,44.69-2.42,31.01-7.25,44.69c-4.83,13.68-11.45,24.47-19.84,32.38-8.39,7.91-17.51,11.86-27.36,11.86h-83.45c-2.01,0-3.69,1.22-5.06,3.65-1.37,2.44-2.05,5.32-2.05,8.66v22.8c0,9.73,1.73,17.94,5.2,24.62,3.46,6.69,7.75,10.03,12.86,10.03h125.45m-40.22-183.08c-3.56-6.84-7.8-10.26-12.72-10.26h-72.5c-5.11,0-9.4,3.35-12.86,10.03-3.47,6.69-5.2,14.9-5.2,24.62v22.8c0,3.35.68,6.16,2.05,8.44,1.37,2.28,3.05,3.42,5.06,3.42h83.45c4.92,0,9.17-3.42,12.72-10.26s5.33-14.97,5.33-24.4-1.78-17.56-5.33-24.4Z" style="fill: #fff;"/>
  </g>
</svg>
