<?xml version="1.0" encoding="UTF-8"?>
<svg xmlns="http://www.w3.org/2000/svg" viewBox="0 0 400 400">
  <g id="_图层_6" data-name="图层 6">
    <path d="m-3.69,296.9H126.95c4.92,0,9.17-3.42,12.72-10.26s5.33-14.97,5.33-24.4-1.78-18.01-5.33-24.85-7.8-10.26-12.72-10.26H54.45c-9.85,0-18.97-3.95-27.36-11.86-8.39-7.9-15.01-18.7-19.84-32.38-4.83-13.68-7.25-28.57-7.25-44.69s2.46-31.01,7.39-44.69,11.53-24.55,19.84-32.6c8.3-8.05,17.37-12.08,27.22-12.08h117.1c2.01,0,3.69,1.22,5.06,3.65,1.37,2.44,2.05,5.32,2.05,8.66v62.47c0,3.35-.68,6.23-2.05,8.66-1.37,2.44-3.06,3.65-5.06,3.65h-19.15c-2.01,0-3.74-1.21-5.2-3.65-1.46-2.43-2.19-5.32-2.19-8.66v-8.21c0-3.34-.68-6.16-2.05-8.44-1.37-2.28-3.06-3.42-5.06-3.42H54.45c-5.11,0-9.4,3.35-12.86,10.03-3.47,6.69-5.2,14.9-5.2,24.62s1.73,17.94,5.2,24.62c3.46,6.69,7.75,10.03,12.86,10.03h72.5c9.85,0,18.92,4.03,27.22,12.08,8.3,8.06,14.91,18.92,19.84,32.6,4.92,13.68,7.39,28.58,7.39,44.69s-2.46,30.94-7.39,44.46c-4.92,13.53-11.54,24.33-19.84,32.38-8.3,8.06-17.37,12.08-27.22,12.08H-3.69" style="fill: #fff;"/>
  </g>
  <g id="_图层_5" data-name="图层 5">
    <path d="m218.44,399.85V132.28c0-16.11,2.42-31.01,7.25-44.69,4.83-13.68,11.4-24.55,19.7-32.6,8.3-8.05,17.37-12.08,27.22-12.08,6.93,0,13.5,1.98,19.7,5.93,6.2,3.96,11.76,9.58,16.69,16.87,4.92-7.3,10.49-12.92,16.69-16.87,6.2-3.95,12.76-5.93,19.7-5.93,9.85,0,18.92,4.03,27.22,12.08,8.3,8.06,14.86,18.92,19.7,32.6,4.83,13.68,7.25,28.58,7.25,44.69v206.57c0,3.35-.68,6.23-2.05,8.66-1.37,2.44-3.06,3.65-5.06,3.65h-21.89c-2.01,0-3.69-1.21-5.06-3.65-1.37-2.43-2.05-5.32-2.05-8.66v-206.57c0-9.73-1.78-18.01-5.34-24.85s-7.8-10.26-12.72-10.26-9.44,3.42-13,10.26c-3.56,6.84-5.34,15.13-5.34,24.85v85.73c0,3.35-.68,6.23-2.05,8.66-1.37,2.44-3.06,3.65-5.06,3.65h-21.89c-2.01,0-3.69-1.21-5.06-3.65-1.37-2.43-2.05-5.32-2.05-8.66v-85.73c0-9.73-1.78-18.01-5.33-24.85s-7.89-10.26-13-10.26-9.17,3.42-12.72,10.26-5.33,15.13-5.33,24.85v267.57" style="fill: #fff;"/>
  </g>
</svg>
