<?xml version="1.0" encoding="UTF-8"?>
<svg xmlns="http://www.w3.org/2000/svg" viewBox="0 0 400 400">
  <g>
    <path d="m177.12,275.92c-8.12,23.11-19.11,41.42-32.97,54.95-13.86,13.53-29,20.29-45.42,20.29H7.35c-2.01,0-3.74-1.21-5.2-3.65-1.46-2.43-2.19-5.32-2.19-8.66V61.15c0-3.34.73-6.23,2.19-8.66,1.46-2.43,3.19-3.65,5.2-3.65h91.38c16.42,0,31.55,6.77,45.42,20.29,13.86,13.53,24.85,31.92,32.97,55.18,8.11,23.26,12.17,48.56,12.17,75.92s-4.06,52.6-12.17,75.7Zm-31.33-124.26c-4.92-14.74-11.54-26.45-19.84-35.11-8.3-8.66-17.37-13-27.22-13h-55.27c-2.01,0-3.69,1.14-5.06,3.42-1.37,2.28-2.05,5.09-2.05,8.44v169.18c0,3.35.68,6.23,2.05,8.66,1.37,2.44,3.05,3.65,5.06,3.65h55.27c9.85,0,18.92-4.33,27.22-13,8.3-8.66,14.91-20.36,19.84-35.11,4.92-14.74,7.39-30.93,7.39-48.56s-2.46-33.82-7.39-48.56Z" style="fill: #fff;"/>
  </g>
  <g>
    <path d="m254.99-.31v138.52c0,9.73,1.78,18.01,5.33,24.85s7.89,10.26,13,10.26h83.17c2,0,3.74-1.14,5.2-3.42,1.46-2.28,2.19-4.94,2.19-7.98l-.27-101.23c0-3.34.73-6.16,2.19-8.44,1.46-2.28,3.19-3.42,5.2-3.42h21.62c2,0,3.74,1.14,5.2,3.42,1.46,2.28,2.19,5.09,2.19,8.44v201.1c0,16.12-2.46,31.01-7.39,44.69-4.93,13.68-11.54,24.55-19.84,32.6-8.3,8.06-17.38,12.08-27.22,12.08h-115.73c-1.83,0-3.47-1.21-4.92-3.65-1.46-2.43-2.19-5.17-2.19-8.21v-31.01c0-3.34.73-6.16,2.19-8.44,1.46-2.28,3.1-3.42,4.92-3.42h115.73c5.11,0,9.39-3.34,12.86-10.03,3.46-6.68,5.2-14.89,5.2-24.62v-23.71c0-2.74-.73-5.17-2.19-7.3-1.46-2.12-3.19-3.19-5.2-3.19h-82.9c-9.85,0-18.92-3.95-27.22-11.86-8.3-7.9-14.91-18.62-19.84-32.15-4.92-13.52-7.39-28.34-7.39-44.46V-.31" style="fill: #fff;"/>
  </g>
</svg>
