<?xml version="1.0" encoding="UTF-8"?>
<svg xmlns="http://www.w3.org/2000/svg" viewBox="0 0 400 400">
  <g>
    <path d="m145.01,0v222.57c0,3.35-.68,6.23-2.05,8.66-1.37,2.44-3.06,3.65-5.06,3.65H43.5c-2.01,0-3.69-1.21-5.06-3.65-1.37-2.43-2.05-5.32-2.05-8.66V61.15c0-3.34-.73-6.23-2.19-8.66-1.46-2.43-3.19-3.65-5.2-3.65H7.39c-2.01,0-3.74,1.22-5.2,3.65-1.46,2.44-2.19,5.32-2.19,8.66v343.7h36.39v-103.39c0-3.34.68-6.23,2.05-8.66,1.37-2.43,3.05-3.65,5.06-3.65h94.39c2,0,3.69,1.22,5.06,3.65,1.37,2.44,2.05,5.32,2.05,8.66v37.39c0,3.35.73,6.23,2.19,8.66,1.46,2.44,3.19,3.65,5.2,3.65h21.61c2,0,3.74-1.21,5.2-3.65,1.46-2.43,2.19-5.32,2.19-8.66V0" style="fill: #fff;"/>
  </g>
  <g>
    <path d="m392.45,306.93c-4.83,13.68-11.45,24.47-19.84,32.38-8.39,7.91-17.51,11.86-27.36,11.86h-72.5c-9.85,0-18.97-3.95-27.36-11.86-8.39-7.9-15.01-18.7-19.84-32.38-4.83-13.68-7.25-28.57-7.25-44.69v-124.94c0-16.11,2.46-30.93,7.39-44.46,4.92-13.52,11.53-24.24,19.84-32.15,8.3-7.9,17.37-11.86,27.22-11.86h72.5c9.85,0,18.92,3.96,27.22,11.86,8.3,7.91,14.91,18.62,19.84,32.15,4.92,13.53,7.39,28.35,7.39,44.46v124.94c0,16.12-2.42,31.01-7.25,44.69Zm-34.47-193.12c-3.56-6.84-7.8-10.26-12.72-10.26h-72.5c-5.11,0-9.4,3.35-12.86,10.03-3.47,6.69-5.2,14.9-5.2,24.62v124.03c0,9.73,1.73,17.94,5.2,24.62,3.46,6.69,7.75,10.03,12.86,10.03h72.5c4.92,0,9.17-3.42,12.72-10.26s5.33-14.97,5.33-24.4v-124.03c0-9.42-1.78-17.56-5.33-24.4Z" style="fill: #fff;"/>
  </g>
</svg>
