<?xml version="1.0" encoding="UTF-8"?>
<svg xmlns="http://www.w3.org/2000/svg" viewBox="0 0 400 400">
  <g id="_图层_6" data-name="图层 6">
    <path d="m181.12,347.52c-1.46,2.44-3.19,3.65-5.2,3.65H54.45c-9.85,0-18.97-3.95-27.36-11.86-8.39-7.9-15-18.7-19.84-32.38-4.83-13.68-7.25-28.57-7.25-44.69,0-11.86,1.32-23.1,3.97-33.74,2.64-10.64,6.43-20.06,11.35-28.27-4.92-8.21-8.71-17.63-11.35-28.27-2.65-10.64-3.97-21.89-3.97-33.74,0-16.11,2.46-31.01,7.39-44.69s11.53-24.55,19.84-32.6c8.3-8.05,17.37-12.08,27.22-12.08h121.48c2,0,3.74,1.22,5.2,3.65,1.46,2.44,2.19,5.32,2.19,8.66v30.1c0,3.35-.73,6.23-2.19,8.66-1.46,2.44-3.19,3.65-5.2,3.65H54.45c-5.11,0-9.4,3.35-12.86,10.03-3.47,6.69-5.2,14.9-5.2,24.62s1.73,17.94,5.2,24.62c3.46,6.69,7.75,10.03,12.86,10.03h85.09c2.01,0,3.74,1.22,5.2,3.65,1.46,2.44,2.19,5.32,2.19,8.66v30.1c0,3.35-.73,6.16-2.19,8.44-1.46,2.28-3.19,3.42-5.2,3.42H54.45c-5.11,0-9.4,3.42-12.86,10.26-3.47,6.84-5.2,15.13-5.2,24.85s1.73,17.94,5.2,24.62c3.46,6.69,7.75,10.03,12.86,10.03h121.48c2,0,3.74,1.14,5.2,3.42,1.46,2.28,2.19,5.09,2.19,8.44v30.1c0,3.35-.73,6.23-2.19,8.66Z" style="fill: #fff;"/>
  </g>
  <g id="_图层_5" data-name="图层 5">
    <path d="m218.6,399.85V138.21c0-16.11,2.46-31.01,7.39-44.69s11.53-24.55,19.84-32.6c8.3-8.05,17.37-12.08,27.22-12.08h72.5c9.85,0,18.92,4.03,27.22,12.08,8.3,8.06,14.91,18.92,19.84,32.6,4.92,13.68,7.39,28.58,7.39,44.69v49.7c0,3.35-.73,6.23-2.19,8.66-1.46,2.44-3.19,3.65-5.2,3.65h-21.62c-2.01,0-3.74-1.21-5.2-3.65-1.46-2.43-2.19-5.32-2.19-8.66v-49.7c0-9.42-1.78-17.56-5.34-24.4s-7.8-10.26-12.72-10.26h-72.5c-5.11,0-9.4,3.35-12.86,10.03-3.47,6.69-5.2,14.9-5.2,24.62v261.64" style="fill: #fff;"/>
  </g>
</svg>
