<?xml version="1.0" encoding="UTF-8"?>
<svg xmlns="http://www.w3.org/2000/svg" viewBox="0 0 400 400">
  <g>
    <path d="m72.5,403.85v-131.58c0-2.74-.5-5.17-1.5-7.3-1-2.12-2.24-3.49-3.69-4.1-12.95-5.77-24.53-16.03-34.75-30.78-10.22-14.74-18.19-32.6-23.94-53.58C2.87,155.54,0,133.2,0,109.48v-48.34c0-3.34.73-6.23,2.19-8.66,1.46-2.43,3.19-3.65,5.2-3.65h21.61c2,0,3.74,1.22,5.2,3.65,1.46,2.44,2.19,5.32,2.19,8.66v47.88c0,17.94,2.42,34.58,7.25,49.93,4.83,15.35,11.4,27.52,19.7,36.48,8.3,8.97,17.37,13.45,27.22,13.45s18.92-4.48,27.22-13.45c8.3-8.96,14.91-21.05,19.84-36.25,4.92-15.2,7.39-31.76,7.39-49.7v-48.34c0-3.34.73-6.23,2.19-8.66,1.46-2.43,3.19-3.65,5.2-3.65h21.61c2,0,3.74,1.22,5.2,3.65,1.46,2.44,2.19,5.32,2.19,8.66v48.34c0,23.71-2.92,46.06-8.75,67.03-5.84,20.98-13.86,38.84-24.08,53.58-10.22,14.75-21.71,25.01-34.47,30.78-1.46.61-2.69,1.98-3.69,4.1-1,2.13-1.5,4.56-1.5,7.3v131.58" style="fill: #fff;"/>
  </g>
  <g>
    <path d="m256.26-.12v102.76c0,3.65.5,6.69,1.5,9.12,1,2.44,2.5,3.65,4.51,3.65h84.27c9.85,0,18.92,4.1,27.22,12.31,8.3,8.21,14.86,19.23,19.7,33.06,4.83,13.84,7.25,28.81,7.25,44.92v55.63c0,16.12-2.42,31.09-7.25,44.92-4.84,13.84-11.4,24.78-19.7,32.83-8.3,8.06-17.38,12.08-27.22,12.08h-72.23c-9.85,0-18.92-4.03-27.22-12.08-8.3-8.05-14.87-19-19.7-32.83-4.83-13.83-7.25-28.8-7.25-44.92V-.12m139.26,180.05c-3.47-6.84-7.75-10.26-12.86-10.26h-84.27c-4.01,0-6.02,3.35-6.02,10.03v81.62c0,9.73,1.73,18.01,5.2,24.85,3.46,6.84,7.75,10.26,12.86,10.26h72.23c5.11,0,9.39-3.42,12.86-10.26,3.46-6.84,5.2-15.12,5.2-24.85v-56.54c0-9.73-1.74-18.01-5.2-24.85Z" style="fill: #fff;"/>
  </g>
</svg>
