<?xml version="1.0" encoding="UTF-8"?>
<svg xmlns="http://www.w3.org/2000/svg" viewBox="0 0 400 400">
  <g>
    <path d="m-8.61,48.84h81.85c2,0,3.69,1.22,5.06,3.65,1.37,2.44,2.05,5.32,2.05,8.66v30.1c0,3.35-.68,6.23-2.05,8.66-1.37,2.44-3.06,3.65-5.06,3.65h-7.21c-2.01,0-3.74,1.14-5.2,3.42-1.46,2.28-2.19,5.09-2.19,8.44v85.73c0,17.94,2.46,34.43,7.39,49.48s11.53,26.98,19.84,35.8c8.3,8.82,17.37,13.22,27.22,13.22s19.52-4.71,27.91-14.14c.91-.91,1.64-2.28,2.19-4.1s.82-3.65.82-5.47v-55.18c0-3.34.73-6.23,2.19-8.66,1.46-2.43,3.19-3.65,5.2-3.65h21.62c2,0,3.74,1.22,5.2,3.65,1.46,2.44,2.19,5.32,2.19,8.66v80.26c0,2.74-.64,5.47-1.91,8.21-8.58,15.21-16.05,22.43-27.26,30.79-11.22,8.36-26.54,11.09-39.13,11.09-16.42,0-31.56-7.07-45.42-21.2-13.86-14.14-23.85-27.21-31.97-51.23-8.12-24.01-12.17-50.16-12.17-78.43v-84.82c0-3.34-.73-6.16-2.19-8.44-1.46-2.28-3.19-3.42-5.2-3.42H-8.61" style="fill: #fff;"/>
  </g>
  <g>
    <path d="m392.75,307.16c-4.84,13.53-11.4,24.25-19.7,32.15-8.3,7.91-17.37,11.86-27.22,11.86h-72.78c-9.85,0-18.93-3.95-27.22-11.86-8.3-7.9-14.87-18.62-19.7-32.15-4.83-13.52-7.25-28.34-7.25-44.46V-5.85c0-3.34.68-6.23,2.05-8.66,1.37-2.43,3.05-3.65,5.06-3.65h21.89c2,0,3.69,1.22,5.06,3.65,1.37,2.44,2.05,5.32,2.05,8.66v268.1c0,9.43,1.78,17.56,5.33,24.4s7.8,10.26,12.72,10.26h72.78c4.92,0,9.16-3.42,12.72-10.26s5.34-14.97,5.34-24.4V61.15c0-3.34.68-6.23,2.05-8.66,1.37-2.43,3.05-3.65,5.06-3.65h21.89c2,0,3.69,1.22,5.06,3.65,1.37,2.44,2.05,5.32,2.05,8.66v201.55c0,16.12-2.42,30.94-7.25,44.46Z" style="fill: #fff;"/>
  </g>
</svg>
