<?xml version="1.0" encoding="UTF-8"?>
<svg id="_图层_1" data-name="图层 1" xmlns="http://www.w3.org/2000/svg" viewBox="0 0 400 400">
  <path d="m253.73,0v259.62l-46.44-85.5c-1.62-3-3.42-4.5-5.4-4.5s-3.78,1.35-5.4,4.05l-50.22,88.2V62.97c0-3.3-.67-6.15-2.02-8.55-1.35-2.4-3.02-3.6-5-3.6h-21.6c-1.98,0-3.65,1.2-5,3.6-1.35,2.4-2.03,5.25-2.03,8.55v274.5c0,3.3.67,6.08,2.03,8.33,1.35,2.25,3.01,3.38,5,3.38h27.81c2.52,0,4.41-1.5,5.67-4.5l49.41-96.3,48.46,98.55c1.71,1.5,3.11,2.25,4.19,2.25h29.16c1.98,0,3.64-1.12,4.99-3.38,1.35-2.25,2.03-5.02,2.03-8.33V0" style="fill: #fff;"/>
</svg>
