<?xml version="1.0" encoding="UTF-8"?>
<svg xmlns="http://www.w3.org/2000/svg" viewBox="0 0 400 400">
  <g id="_图层_6" data-name="图层 6">
    <path d="m0,404.85V61.15c0-3.34.73-6.23,2.19-8.66,1.46-2.43,3.19-3.65,5.2-3.65h125.85c9.85,0,18.92,4.03,27.22,12.08,8.3,8.06,14.91,18.92,19.84,32.6,4.92,13.68,7.39,28.58,7.39,44.69v37.85c0,16.12-2.42,31.01-7.25,44.69-4.84,13.68-11.45,24.47-19.84,32.38-8.39,7.91-17.51,11.86-27.36,11.86H43.5c-2.01,0-3.69,1.22-5.06,3.65-1.37,2.44-2.05,5.32-2.05,8.66v127.56M146.24,113.82c-3.56-6.84-7.89-10.26-13-10.26H43.5c-2.01,0-3.69,1.14-5.06,3.42-1.37,2.28-2.05,5.09-2.05,8.44v81.62c0,3.35.68,6.23,2.05,8.66,1.37,2.44,3.05,3.65,5.06,3.65h89.74c5.11,0,9.44-3.42,13-10.26,3.56-6.84,5.34-14.97,5.34-24.4v-36.48c0-9.42-1.78-17.56-5.34-24.4Z" style="fill: #fff;"/>
  </g>
  <g id="_图层_5" data-name="图层 5">
    <path d="m243.94,0v93.52h-18.88c-2.01,0-3.74,1.14-5.2,3.42-1.46,2.28-2.19,5.09-2.19,8.44v30.55c0,3.35.73,6.16,2.19,8.44,1.46,2.28,3.19,3.42,5.2,3.42h18.88v114.46c0,16.12,2.42,30.94,7.25,44.46,4.83,13.53,11.4,24.33,19.7,32.38,8.3,8.06,17.37,12.08,27.22,12.08h47.44c9.85,0,18.92-4.03,27.22-12.08,8.3-8.05,14.91-18.85,19.84-32.38,4.93-13.52,7.39-28.34,7.39-44.46v-18.7c0-3.34-.68-6.16-2.05-8.44-1.37-2.28-3.06-3.42-5.06-3.42h-21.89c-1.83,0-3.47,1.14-4.93,3.42-1.46,2.28-2.19,5.09-2.19,8.44v18.7c0,9.43-1.78,17.56-5.34,24.4s-7.89,10.26-13,10.26h-47.44c-4.92,0-9.17-3.42-12.72-10.26-3.56-6.84-5.34-14.97-5.34-24.4v-114.46h119.94v-54.26h-119.94V0" style="fill: #fff;"/>
  </g>
</svg>
