<?xml version="1.0" encoding="UTF-8"?>
<svg xmlns="http://www.w3.org/2000/svg" viewBox="0 0 400 400">
  <g id="_图层_6" data-name="图层 6">
    <path d="m0,404.85V61.15c0-3.34.73-6.23,2.19-8.66,1.46-2.43,3.19-3.65,5.2-3.65h125.85c9.85,0,18.92,4.03,27.22,12.08,8.3,8.06,14.91,18.92,19.84,32.6,4.92,13.68,7.39,28.58,7.39,44.69v37.85c0,16.12-2.42,31.01-7.25,44.69-4.84,13.68-11.45,24.47-19.84,32.38-8.39,7.91-17.51,11.86-27.36,11.86H43.5c-2.01,0-3.69,1.22-5.06,3.65-1.37,2.44-2.05,5.32-2.05,8.66v127.56M146.24,113.82c-3.56-6.84-7.89-10.26-13-10.26H43.5c-2.01,0-3.69,1.14-5.06,3.42-1.37,2.28-2.05,5.09-2.05,8.44v81.62c0,3.35.68,6.23,2.05,8.66,1.37,2.44,3.05,3.65,5.06,3.65h89.74c5.11,0,9.44-3.42,13-10.26,3.56-6.84,5.34-14.97,5.34-24.4v-36.48c0-9.42-1.78-17.56-5.34-24.4Z" style="fill: #fff;"/>
  </g>
  <g id="_图层_5" data-name="图层 5">
    <path d="m256.26-.12v102.76c0,3.65.5,6.69,1.5,9.12,1,2.44,2.5,3.65,4.51,3.65h84.27c9.85,0,18.92,4.1,27.22,12.31,8.3,8.21,14.86,19.23,19.7,33.06,4.83,13.84,7.25,28.81,7.25,44.92v55.63c0,16.12-2.42,31.09-7.25,44.92-4.84,13.84-11.4,24.78-19.7,32.83-8.3,8.06-17.38,12.08-27.22,12.08h-72.23c-9.85,0-18.92-4.03-27.22-12.08-8.3-8.05-14.87-19-19.7-32.83-4.83-13.83-7.25-28.8-7.25-44.92V-.12m139.26,180.05c-3.47-6.84-7.75-10.26-12.86-10.26h-84.27c-4.01,0-6.02,3.35-6.02,10.03v81.62c0,9.73,1.73,18.01,5.2,24.85,3.46,6.84,7.75,10.26,12.86,10.26h72.23c5.11,0,9.39-3.42,12.86-10.26,3.46-6.84,5.2-15.12,5.2-24.85v-56.54c0-9.73-1.74-18.01-5.2-24.85Z" style="fill: #fff;"/>
  </g>
</svg>
