<?xml version="1.0" encoding="UTF-8"?>
<svg xmlns="http://www.w3.org/2000/svg" viewBox="0 0 400 400">
  <g>
    <path d="m145.32,399.85v-98.39c0-3.34-.68-6.23-2.05-8.66-1.37-2.43-3.06-3.65-5.06-3.65H43.81c-2.01,0-3.69,1.22-5.06,3.65-1.37,2.44-2.05,5.32-2.05,8.66v37.39c0,3.35-.73,6.23-2.19,8.66-1.46,2.44-3.19,3.65-5.2,3.65H7.7c-2.01,0-3.74-1.21-5.2-3.65-1.46-2.43-2.19-5.32-2.19-8.66v-142.27c0-28.27,4.06-54.26,12.18-77.98,8.11-23.71,19.1-42.48,32.97-56.32,13.86-13.83,29-20.75,45.42-20.75s31.6,6.92,45.55,20.75c13.95,13.84,24.99,32.6,33.11,56.32,8.11,23.71,12.17,49.7,12.17,77.98v203.27m-43.78-252.06c-4.92-15.2-11.54-27.28-19.84-36.25-8.3-8.96-17.37-13.45-27.22-13.45s-18.92,4.41-27.22,13.22c-8.3,8.82-14.87,20.75-19.7,35.8-4.83,15.05-7.25,31.54-7.25,49.48v25.99c0,3.35.68,6.23,2.05,8.66,1.37,2.44,3.05,3.65,5.06,3.65h94.39c2,0,3.69-1.21,5.06-3.65,1.37-2.43,2.05-5.32,2.05-8.66v-24.62c0-18.24-2.46-34.96-7.39-50.16Z" style="fill: #fff;"/>
  </g>
  <g>
    <path d="m243.94,0v93.52h-18.88c-2.01,0-3.74,1.14-5.2,3.42-1.46,2.28-2.19,5.09-2.19,8.44v30.55c0,3.35.73,6.16,2.19,8.44,1.46,2.28,3.19,3.42,5.2,3.42h18.88v114.46c0,16.12,2.42,30.94,7.25,44.46,4.83,13.53,11.4,24.33,19.7,32.38,8.3,8.06,17.37,12.08,27.22,12.08h47.44c9.85,0,18.92-4.03,27.22-12.08,8.3-8.05,14.91-18.85,19.84-32.38,4.93-13.52,7.39-28.34,7.39-44.46v-18.7c0-3.34-.68-6.16-2.05-8.44-1.37-2.28-3.06-3.42-5.06-3.42h-21.89c-1.83,0-3.47,1.14-4.93,3.42-1.46,2.28-2.19,5.09-2.19,8.44v18.7c0,9.43-1.78,17.56-5.34,24.4s-7.89,10.26-13,10.26h-47.44c-4.92,0-9.17-3.42-12.72-10.26-3.56-6.84-5.34-14.97-5.34-24.4v-114.46h119.94v-54.26h-119.94V0" style="fill: #fff;"/>
  </g>
</svg>
