<?xml version="1.0" encoding="UTF-8"?>
<svg xmlns="http://www.w3.org/2000/svg" viewBox="0 0 400 400">
  <g>
    <path d="m144.04,407.85v-113.69c0-9.42-1.78-17.56-5.34-24.4s-7.8-10.26-12.72-10.26H43.23c-1.64,0-3.19,1.22-4.65,3.65-1.46,2.44-2.19,5.02-2.19,7.75v67.94c0,3.35-.73,6.23-2.19,8.66-1.46,2.44-3.19,3.65-5.2,3.65H7.39c-2.01,0-3.74-1.21-5.2-3.65-1.46-2.43-2.19-5.32-2.19-8.66V61.15c0-3.34.73-6.23,2.19-8.66,1.46-2.43,3.19-3.65,5.2-3.65h101.9c9.85,0,18.92,4.03,27.22,12.08,8.3,8.06,14.91,18.92,19.84,32.6,4.93,13.68,7.39,28.58,7.39,44.69v31.46c0,17.63-3.01,33.9-9.03,48.79,7.84,8.21,14.09,19,18.74,32.38,4.65,13.38,6.98,27.82,6.98,43.32v113.69M122.15,113.59c-3.47-6.68-7.75-10.03-12.86-10.03H36.39v89.38c0,3.35.68,6.16,2.05,8.44,1.37,2.28,3.05,3.42,5.06,3.42h65.79c5.11,0,9.39-3.34,12.86-10.03,3.46-6.68,5.2-14.89,5.2-24.62v-31.92c0-9.73-1.74-17.93-5.2-24.62Z" style="fill: #fff;"/>
  </g>
  <g>
    <path d="m392.27,309.44c-4.83,12.92-11.4,23.11-19.7,30.55-8.3,7.45-17.37,11.17-27.22,11.17h-72.23c-9.85,0-18.92-4.03-27.22-12.08-8.3-8.05-14.87-18.92-19.7-32.6-4.83-13.68-7.25-28.57-7.25-44.69s2.42-31.08,7.25-44.92c4.83-13.83,11.4-24.85,19.7-33.06,8.3-8.21,17.37-12.31,27.22-12.31h84.27c4.01,0,6.02-3.34,6.02-10.03v-23.26c0-9.73-1.74-18.01-5.2-24.85-3.47-6.84-7.75-10.26-12.86-10.26h-45.14c-2.19,0-4.24-1.52-6.16-4.56-1.92-3.04-2.87-6.38-2.87-10.03v-24.62c0-3.34,1-6.68,3.01-10.03,2-3.34,4.01-5.02,6.02-5.02h45.14c9.85,0,18.92,4.1,27.22,12.31,8.3,8.21,14.86,19.23,19.7,33.06,4.83,13.84,7.25,28.81,7.25,44.92v126.77c0,16.12-2.42,30.63-7.25,43.55Zm-34.88-82.76h-84.27c-5.11,0-9.4,3.42-12.86,10.26-3.47,6.84-5.2,15.13-5.2,24.85s1.73,18.01,5.2,24.85c3.46,6.84,7.75,10.26,12.86,10.26h72.23c5.1,0,9.39-2.81,12.86-8.44,3.46-5.62,5.2-13.15,5.2-22.57v-29.18c0-6.68-2.01-10.03-6.02-10.03Z" style="fill: #fff;"/>
  </g>
</svg>
