<?xml version="1.0" encoding="UTF-8"?>
<svg xmlns="http://www.w3.org/2000/svg" viewBox="0 0 400 400">
  <g id="_图层_6" data-name="图层 6">
    <path d="m145.32,399.85v-98.39c0-3.34-.68-6.23-2.05-8.66-1.37-2.43-3.06-3.65-5.06-3.65H43.81c-2.01,0-3.69,1.22-5.06,3.65-1.37,2.44-2.05,5.32-2.05,8.66v37.39c0,3.35-.73,6.23-2.19,8.66-1.46,2.44-3.19,3.65-5.2,3.65H7.7c-2.01,0-3.74-1.21-5.2-3.65-1.46-2.43-2.19-5.32-2.19-8.66v-142.27c0-28.27,4.06-54.26,12.18-77.98,8.11-23.71,19.1-42.48,32.97-56.32,13.86-13.83,29-20.75,45.42-20.75s31.6,6.92,45.55,20.75c13.95,13.84,24.99,32.6,33.11,56.32,8.11,23.71,12.17,49.7,12.17,77.98v203.27m-43.78-252.06c-4.92-15.2-11.54-27.28-19.84-36.25-8.3-8.96-17.37-13.45-27.22-13.45s-18.92,4.41-27.22,13.22c-8.3,8.82-14.87,20.75-19.7,35.8-4.83,15.05-7.25,31.54-7.25,49.48v25.99c0,3.35.68,6.23,2.05,8.66,1.37,2.44,3.05,3.65,5.06,3.65h94.39c2,0,3.69-1.21,5.06-3.65,1.37-2.43,2.05-5.32,2.05-8.66v-24.62c0-18.24-2.46-34.96-7.39-50.16Z" style="fill: #fff;"/>
  </g>
  <g id="_图层_5" data-name="图层 5">
    <path d="m392.9,306.25c-4.83,13.84-11.4,24.78-19.7,32.83-8.3,8.06-17.37,12.08-27.22,12.08h-72.23c-9.85,0-18.92-4.03-27.22-12.08-8.3-8.05-14.87-19-19.7-32.83-4.83-13.83-7.25-28.8-7.25-44.92v-123.12c0-16.11,2.42-31.01,7.25-44.69,4.83-13.68,11.4-24.55,19.7-32.6,8.3-8.05,17.37-12.08,27.22-12.08h72.23c9.85,0,18.92,4.03,27.22,12.08,8.3,8.06,14.87,18.92,19.7,32.6,4.83,13.68,7.25,28.58,7.25,44.69v20.06c0,3.95-.55,7.45-1.64,10.49-1.09,3.04-2.56,4.56-4.38,4.56h-21.07c-2.01,0-4.01-1.67-6.02-5.02-2.01-3.34-3.01-6.68-3.01-10.03v-20.06c0-9.73-1.73-18.01-5.2-24.85-3.47-6.84-7.76-10.26-12.86-10.26h-72.23c-5.11,0-9.4,3.42-12.86,10.26-3.47,6.84-5.2,15.13-5.2,24.85v123.12c0,9.73,1.73,18.01,5.2,24.85,3.46,6.84,7.75,10.26,12.86,10.26h72.23c5.1,0,9.39-3.42,12.86-10.26,3.46-6.84,5.2-15.12,5.2-24.85v-20.06c0-3.34,1-6.68,3.01-10.03,2.01-3.34,4.01-5.02,6.02-5.02h21.07c1.82,0,3.28,1.52,4.38,4.56,1.09,3.04,1.64,6.54,1.64,10.49v20.06c0,16.12-2.42,31.09-7.25,44.92Z" style="fill: #fff;"/>
  </g>
</svg>
