<?xml version="1.0" encoding="UTF-8"?>
<svg xmlns="http://www.w3.org/2000/svg" viewBox="0 0 400 400">
  <g>
    <path d="m74.06,404.59V115.41c0-3.34-.68-6.16-2.05-8.44-1.37-2.28-3.06-3.42-5.06-3.42h-25.91c-2.01,0-3.74,1.14-5.2,3.42-1.46,2.28-2.19,5.09-2.19,8.44v23.26c0,3.35-.68,6.23-2.05,8.66-1.37,2.44-3.06,3.65-5.06,3.65H7.39c-2.01,0-3.74-1.21-5.2-3.65-1.46-2.43-2.19-5.32-2.19-8.66V61.15c0-3.34.73-6.23,2.19-8.66,1.46-2.43,3.19-3.65,5.2-3.65h166.01c2,0,3.74,1.22,5.2,3.65,1.46,2.44,2.19,5.32,2.19,8.66v77.52c0,3.35-.73,6.23-2.19,8.66-1.46,2.44-3.19,3.65-5.2,3.65h-19.15c-2.01,0-3.74-1.21-5.2-3.65-1.46-2.43-2.19-5.32-2.19-8.66v-23.26c0-3.34-.68-6.16-2.05-8.44-1.37-2.28-3.06-3.42-5.06-3.42h-22.18c-2.01,0-3.69,1.14-5.06,3.42-1.37,2.28-2.05,5.09-2.05,8.44v289.18" style="fill: #fff;"/>
  </g>
  <g>
    <path d="m254.7.15v100.22c0,3.35.68,6.23,2.05,8.66,1.37,2.44,3.05,3.65,5.06,3.65h83.45c9.85,0,18.97,3.95,27.36,11.86,8.39,7.91,15,18.7,19.84,32.38,4.83,13.68,7.25,28.58,7.25,44.69v137.26c0,3.35-.73,6.23-2.19,8.66-1.46,2.44-3.19,3.65-5.2,3.65h-21.61c-2.01,0-3.74-1.21-5.2-3.65-1.46-2.43-2.19-5.32-2.19-8.66v-137.26c0-9.42-1.78-17.56-5.33-24.4s-7.8-10.26-12.72-10.26h-83.45c-2.01,0-3.69,1.14-5.06,3.42s-2.05,5.09-2.05,8.44v160.06c0,3.35-.73,6.23-2.19,8.66-1.46,2.44-3.19,3.65-5.2,3.65h-21.61c-2.01,0-3.74-1.21-5.2-3.65-1.46-2.43-2.19-5.32-2.19-8.66V.15" style="fill: #fff;"/>
  </g>
</svg>
