<?xml version="1.0" encoding="UTF-8"?>
<svg xmlns="http://www.w3.org/2000/svg" viewBox="0 0 400 400">
  <path d="m289.37-.03v200.7c0,27.9-4.01,53.7-12.01,77.4-8.01,23.7-18.9,42.53-32.67,56.48-13.77,13.95-28.75,20.92-44.96,20.92s-31.14-6.97-44.82-20.92c-13.68-13.95-24.53-32.77-32.54-56.48-8.01-23.7-12.01-49.5-12.01-77.4V62.97c0-3.3.72-6.15,2.16-8.55,1.44-2.4,3.15-3.6,5.13-3.6h21.33c1.98,0,3.69,1.2,5.13,3.6,1.44,2.4,2.16,5.25,2.16,8.55v137.7c0,17.7,2.38,34.05,7.16,49.05,4.77,15,11.25,26.93,19.44,35.78,8.19,8.85,17.14,13.27,26.86,13.27s18.67-4.42,26.87-13.27c8.19-8.85,14.72-20.77,19.58-35.78,4.86-15,7.29-31.35,7.29-49.05V-.03" style="fill: #fff;"/>
</svg>
