<?xml version="1.0" encoding="UTF-8"?>
<svg xmlns="http://www.w3.org/2000/svg" viewBox="0 0 400 400">
  <g id="_图层_6" data-name="图层 6">
    <path d="m181.12-4.85v343.7c0,3.35-.68,6.23-2.05,8.66-1.37,2.44-3.06,3.65-5.06,3.65h-24.62c-2.01,0-3.74-1.37-5.2-4.1L36.12,139.12v199.73c0,3.35-.68,6.23-2.05,8.66-1.37,2.44-3.06,3.65-5.06,3.65H7.11c-2.01,0-3.69-1.21-5.06-3.65-1.37-2.43-2.05-5.32-2.05-8.66V61.15c0-3.34.68-6.23,2.05-8.66,1.37-2.43,3.05-3.65,5.06-3.65h27.09c2,0,3.92,1.53,5.75,4.56l105.06,203.38V-4.85" style="fill: #fff;"/>
  </g>
  <g id="_图层_5" data-name="图层 5">
    <path d="m220.41,399.85V138.21c0-16.11,2.46-31.01,7.39-44.69s11.53-24.55,19.84-32.6c8.3-8.05,17.37-12.08,27.22-12.08h72.5c9.85,0,18.92,4.03,27.22,12.08,8.3,8.06,14.91,18.92,19.84,32.6s7.39,28.58,7.39,44.69v60.19c0,16.12-2.46,31.01-7.39,44.69-4.92,13.68-11.54,24.55-19.84,32.6-8.3,8.06-17.37,12.08-27.22,12.08h-83.45c-2.01,0-3.69,1.14-5.06,3.42-1.37,2.28-2.05,5.09-2.05,8.44v100.22m103.28-286.04c-3.56-6.84-7.8-10.26-12.72-10.26h-72.5c-5.11,0-9.4,3.35-12.86,10.03-3.47,6.69-5.2,14.9-5.2,24.62v82.99c0,3.35.68,6.23,2.05,8.66,1.37,2.44,3.05,3.65,5.06,3.65h83.45c4.92,0,9.17-3.49,12.72-10.49,3.56-6.99,5.33-15.2,5.33-24.62v-60.19c0-9.42-1.78-17.56-5.33-24.4Z" style="fill: #fff;"/>
  </g>
</svg>
