<?xml version="1.0" encoding="UTF-8"?>
<svg xmlns="http://www.w3.org/2000/svg" viewBox="0 0 400 400">
  <g id="_图层_6" data-name="图层 6">
    <path d="m0,404.85V61.15c0-3.34.73-6.23,2.19-8.66,1.46-2.43,3.19-3.65,5.2-3.65h125.85c9.85,0,18.92,4.03,27.22,12.08,8.3,8.06,14.91,18.92,19.84,32.6,4.92,13.68,7.39,28.58,7.39,44.69v37.85c0,16.12-2.42,31.01-7.25,44.69-4.84,13.68-11.45,24.47-19.84,32.38-8.39,7.91-17.51,11.86-27.36,11.86H43.5c-2.01,0-3.69,1.22-5.06,3.65-1.37,2.44-2.05,5.32-2.05,8.66v127.56M146.24,113.82c-3.56-6.84-7.89-10.26-13-10.26H43.5c-2.01,0-3.69,1.14-5.06,3.42-1.37,2.28-2.05,5.09-2.05,8.44v81.62c0,3.35.68,6.23,2.05,8.66,1.37,2.44,3.05,3.65,5.06,3.65h89.74c5.11,0,9.44-3.42,13-10.26,3.56-6.84,5.34-14.97,5.34-24.4v-36.48c0-9.42-1.78-17.56-5.34-24.4Z" style="fill: #fff;"/>
  </g>
  <g id="_图层_5" data-name="图层 5">
    <path d="m392.75,307.16c-4.84,13.53-11.4,24.25-19.7,32.15-8.3,7.91-17.37,11.86-27.22,11.86h-72.78c-9.85,0-18.93-3.95-27.22-11.86-8.3-7.9-14.87-18.62-19.7-32.15-4.83-13.52-7.25-28.34-7.25-44.46V-5.85c0-3.34.68-6.23,2.05-8.66,1.37-2.43,3.05-3.65,5.06-3.65h21.89c2,0,3.69,1.22,5.06,3.65,1.37,2.44,2.05,5.32,2.05,8.66v268.1c0,9.43,1.78,17.56,5.33,24.4s7.8,10.26,12.72,10.26h72.78c4.92,0,9.16-3.42,12.72-10.26s5.34-14.97,5.34-24.4V61.15c0-3.34.68-6.23,2.05-8.66,1.37-2.43,3.05-3.65,5.06-3.65h21.89c2,0,3.69,1.22,5.06,3.65,1.37,2.44,2.05,5.32,2.05,8.66v201.55c0,16.12-2.42,30.94-7.25,44.46Z" style="fill: #fff;"/>
  </g>
</svg>
