<?xml version="1.0" encoding="UTF-8"?>
<svg xmlns="http://www.w3.org/2000/svg" viewBox="0 0 400 400">
  <g>
    <path d="m173.33,306.25c-4.83,13.84-11.4,24.78-19.7,32.83-8.3,8.06-17.37,12.08-27.22,12.08H54.17c-9.85,0-18.92-4.03-27.22-12.08-8.3-8.05-14.87-19-19.7-32.83-4.83-13.83-7.25-28.8-7.25-44.92v-123.12c0-16.11,2.42-31.01,7.25-44.69,4.83-13.68,11.4-24.55,19.7-32.6,8.3-8.05,17.37-12.08,27.22-12.08h72.23c9.85,0,18.92,4.03,27.22,12.08,8.3,8.06,14.87,18.92,19.7,32.6,4.83,13.68,7.25,28.58,7.25,44.69v20.06c0,3.95-.55,7.45-1.64,10.49-1.09,3.04-2.56,4.56-4.38,4.56h-21.07c-2.01,0-4.01-1.67-6.02-5.02-2.01-3.34-3.01-6.68-3.01-10.03v-20.06c0-9.73-1.73-18.01-5.2-24.85-3.47-6.84-7.76-10.26-12.86-10.26H54.17c-5.11,0-9.4,3.42-12.86,10.26-3.47,6.84-5.2,15.13-5.2,24.85v123.12c0,9.73,1.73,18.01,5.2,24.85,3.46,6.84,7.75,10.26,12.86,10.26h72.23c5.1,0,9.39-3.42,12.86-10.26,3.46-6.84,5.2-15.12,5.2-24.85v-20.06c0-3.34,1-6.68,3.01-10.03,2.01-3.34,4.01-5.02,6.02-5.02h21.07c1.82,0,3.28,1.52,4.38,4.56,1.09,3.04,1.64,6.54,1.64,10.49v20.06c0,16.12-2.42,31.09-7.25,44.92Z" style="fill: #fff;"/>
  </g>
  <g>
    <path d="m218.44,399.85V132.28c0-16.11,2.42-31.01,7.25-44.69,4.83-13.68,11.4-24.55,19.7-32.6,8.3-8.05,17.37-12.08,27.22-12.08,6.93,0,13.5,1.98,19.7,5.93,6.2,3.96,11.76,9.58,16.69,16.87,4.92-7.3,10.49-12.92,16.69-16.87,6.2-3.95,12.76-5.93,19.7-5.93,9.85,0,18.92,4.03,27.22,12.08,8.3,8.06,14.86,18.92,19.7,32.6,4.83,13.68,7.25,28.58,7.25,44.69v206.57c0,3.35-.68,6.23-2.05,8.66-1.37,2.44-3.06,3.65-5.06,3.65h-21.89c-2.01,0-3.69-1.21-5.06-3.65-1.37-2.43-2.05-5.32-2.05-8.66v-206.57c0-9.73-1.78-18.01-5.34-24.85s-7.8-10.26-12.72-10.26-9.44,3.42-13,10.26c-3.56,6.84-5.34,15.13-5.34,24.85v85.73c0,3.35-.68,6.23-2.05,8.66-1.37,2.44-3.06,3.65-5.06,3.65h-21.89c-2.01,0-3.69-1.21-5.06-3.65-1.37-2.43-2.05-5.32-2.05-8.66v-85.73c0-9.73-1.78-18.01-5.33-24.85s-7.89-10.26-13-10.26-9.17,3.42-12.72,10.26-5.33,15.13-5.33,24.85v267.57" style="fill: #fff;"/>
  </g>
</svg>
