<?xml version="1.0" encoding="UTF-8"?>
<svg xmlns="http://www.w3.org/2000/svg" viewBox="0 0 400 400">
  <g id="_图层_6" data-name="图层 6">
    <path d="m173.33,306.25c-4.83,13.84-11.4,24.78-19.7,32.83-8.3,8.06-17.37,12.08-27.22,12.08H54.17c-9.85,0-18.92-4.03-27.22-12.08-8.3-8.05-14.87-19-19.7-32.83-4.83-13.83-7.25-28.8-7.25-44.92v-123.12c0-16.11,2.42-31.01,7.25-44.69,4.83-13.68,11.4-24.55,19.7-32.6,8.3-8.05,17.37-12.08,27.22-12.08h72.23c9.85,0,18.92,4.03,27.22,12.08,8.3,8.06,14.87,18.92,19.7,32.6,4.83,13.68,7.25,28.58,7.25,44.69v20.06c0,3.95-.55,7.45-1.64,10.49-1.09,3.04-2.56,4.56-4.38,4.56h-21.07c-2.01,0-4.01-1.67-6.02-5.02-2.01-3.34-3.01-6.68-3.01-10.03v-20.06c0-9.73-1.73-18.01-5.2-24.85-3.47-6.84-7.76-10.26-12.86-10.26H54.17c-5.11,0-9.4,3.42-12.86,10.26-3.47,6.84-5.2,15.13-5.2,24.85v123.12c0,9.73,1.73,18.01,5.2,24.85,3.46,6.84,7.75,10.26,12.86,10.26h72.23c5.1,0,9.39-3.42,12.86-10.26,3.46-6.84,5.2-15.12,5.2-24.85v-20.06c0-3.34,1-6.68,3.01-10.03,2.01-3.34,4.01-5.02,6.02-5.02h21.07c1.82,0,3.28,1.52,4.38,4.56,1.09,3.04,1.64,6.54,1.64,10.49v20.06c0,16.12-2.42,31.09-7.25,44.92Z" style="fill: #fff;"/>
  </g>
  <g id="_图层_5" data-name="图层 5">
    <path d="m218.99,399.85V138.21c0-16.11,2.46-31.01,7.39-44.69s11.53-24.55,19.84-32.6c8.3-8.05,17.37-12.08,27.22-12.08h72.5c9.85,0,18.92,4.03,27.22,12.08,8.3,8.06,14.91,18.92,19.84,32.6,4.92,13.68,7.39,28.58,7.39,44.69v19.61c0,3.35-.73,6.16-2.19,8.44-1.46,2.28-3.19,3.42-5.2,3.42h-21.62c-2.01,0-3.74-1.14-5.2-3.42-1.46-2.28-2.19-5.09-2.19-8.44v-19.61c0-9.42-1.78-17.56-5.34-24.4s-7.8-10.26-12.72-10.26h-72.5c-5.11,0-9.4,3.35-12.86,10.03-3.47,6.69-5.2,14.9-5.2,24.62v72.5c0,3.35.68,6.16,2.05,8.44s3.05,3.42,5.06,3.42h53.35c2.01,0,3.74,1.22,5.2,3.65,1.46,2.44,2.19,5.32,2.19,8.66v30.1c0,3.35-.73,6.16-2.19,8.44-1.46,2.28-3.19,3.42-5.2,3.42h-53.35c-2.01,0-3.69,1.22-5.06,3.65-1.37,2.44-2.05,5.32-2.05,8.66v110.7" style="fill: #fff;"/>
  </g>
</svg>
