<?xml version="1.0" encoding="UTF-8"?>
<svg xmlns="http://www.w3.org/2000/svg" viewBox="0 0 400 400">
  <g id="_图层_6" data-name="图层 6">
    <path d="m145.01,407.85V139.12l-48.97,97.13c-1.64,2.74-3.47,4.1-5.47,4.1-2.37,0-4.29-1.52-5.75-4.56l-48.7-96.67v199.73c0,3.35-.68,6.23-2.05,8.66-1.37,2.44-3.06,3.65-5.06,3.65H7.11c-2.01,0-3.69-1.21-5.06-3.65-1.37-2.43-2.05-5.32-2.05-8.66V61.15c0-3.34.68-6.23,2.05-8.66,1.37-2.43,3.05-3.65,5.06-3.65h25.72c2.19,0,4.1,1.67,5.75,5.02l51.98,103.06,51.98-103.06c1.64-3.34,3.56-5.02,5.75-5.02h25.72c2,0,3.69,1.22,5.06,3.65,1.37,2.44,2.05,5.32,2.05,8.66v346.7" style="fill: #fff;"/>
  </g>
  <g id="_图层_5" data-name="图层 5">
    <path d="m399.57.24v265.66c0,16.12-2.42,30.63-7.25,43.55-4.83,12.92-11.4,23.11-19.7,30.55-8.3,7.45-17.37,11.17-27.22,11.17h-72.23c-9.85,0-18.93-3.72-27.22-11.17-8.3-7.45-14.87-17.63-19.7-30.55-4.83-12.92-7.25-27.43-7.25-43.55v-66.12c0-15.8,2.42-30.17,7.25-43.09,4.83-12.92,11.35-23.03,19.56-30.32s17.33-10.94,27.36-10.94h90.29V.24m-6.02,169.44h-84.27c-5.29,0-9.62,2.66-13,7.98-3.38,5.32-5.06,12.7-5.06,22.12v66.58c0,9.43,1.68,16.8,5.06,22.12,3.37,5.32,7.7,7.98,13,7.98h72.23c5.29,0,9.62-2.66,13-7.98,3.37-5.31,5.06-12.69,5.06-22.12v-86.64c0-6.68-2.01-10.03-6.02-10.03Z" style="fill: #fff;"/>
  </g>
</svg>
