<?xml version="1.0" encoding="UTF-8"?>
<svg xmlns="http://www.w3.org/2000/svg" viewBox="0 0 400 400">
  <g id="_图层_6" data-name="图层 6">
    <path d="m144.04,407.85v-113.69c0-9.42-1.78-17.56-5.34-24.4s-7.8-10.26-12.72-10.26H43.23c-1.64,0-3.19,1.22-4.65,3.65-1.46,2.44-2.19,5.02-2.19,7.75v67.94c0,3.35-.73,6.23-2.19,8.66-1.46,2.44-3.19,3.65-5.2,3.65H7.39c-2.01,0-3.74-1.21-5.2-3.65-1.46-2.43-2.19-5.32-2.19-8.66V61.15c0-3.34.73-6.23,2.19-8.66,1.46-2.43,3.19-3.65,5.2-3.65h101.9c9.85,0,18.92,4.03,27.22,12.08,8.3,8.06,14.91,18.92,19.84,32.6,4.93,13.68,7.39,28.58,7.39,44.69v31.46c0,17.63-3.01,33.9-9.03,48.79,7.84,8.21,14.09,19,18.74,32.38,4.65,13.38,6.98,27.82,6.98,43.32v113.69M122.15,113.59c-3.47-6.68-7.75-10.03-12.86-10.03H36.39v89.38c0,3.35.68,6.16,2.05,8.44,1.37,2.28,3.05,3.42,5.06,3.42h65.79c5.11,0,9.39-3.34,12.86-10.03,3.46-6.68,5.2-14.89,5.2-24.62v-31.92c0-9.73-1.74-17.93-5.2-24.62Z" style="fill: #fff;"/>
  </g>
  <g id="_图层_5" data-name="图层 5">
    <path d="m218.99,399.85V138.21c0-16.11,2.46-31.01,7.39-44.69s11.53-24.55,19.84-32.6c8.3-8.05,17.37-12.08,27.22-12.08h72.5c9.85,0,18.92,4.03,27.22,12.08,8.3,8.06,14.91,18.92,19.84,32.6,4.92,13.68,7.39,28.58,7.39,44.69v19.61c0,3.35-.73,6.16-2.19,8.44-1.46,2.28-3.19,3.42-5.2,3.42h-21.62c-2.01,0-3.74-1.14-5.2-3.42-1.46-2.28-2.19-5.09-2.19-8.44v-19.61c0-9.42-1.78-17.56-5.34-24.4s-7.8-10.26-12.72-10.26h-72.5c-5.11,0-9.4,3.35-12.86,10.03-3.47,6.69-5.2,14.9-5.2,24.62v72.5c0,3.35.68,6.16,2.05,8.44s3.05,3.42,5.06,3.42h53.35c2.01,0,3.74,1.22,5.2,3.65,1.46,2.44,2.19,5.32,2.19,8.66v30.1c0,3.35-.73,6.16-2.19,8.44-1.46,2.28-3.19,3.42-5.2,3.42h-53.35c-2.01,0-3.69,1.22-5.06,3.65-1.37,2.44-2.05,5.32-2.05,8.66v110.7" style="fill: #fff;"/>
  </g>
</svg>
