<?xml version="1.0" encoding="UTF-8"?>
<svg xmlns="http://www.w3.org/2000/svg" viewBox="0 0 400 400">
  <g>
    <path d="m177.12,275.92c-8.12,23.11-19.11,41.42-32.97,54.95-13.86,13.53-29,20.29-45.42,20.29H7.35c-2.01,0-3.74-1.21-5.2-3.65-1.46-2.43-2.19-5.32-2.19-8.66V61.15c0-3.34.73-6.23,2.19-8.66,1.46-2.43,3.19-3.65,5.2-3.65h91.38c16.42,0,31.55,6.77,45.42,20.29,13.86,13.53,24.85,31.92,32.97,55.18,8.11,23.26,12.17,48.56,12.17,75.92s-4.06,52.6-12.17,75.7Zm-31.33-124.26c-4.92-14.74-11.54-26.45-19.84-35.11-8.3-8.66-17.37-13-27.22-13h-55.27c-2.01,0-3.69,1.14-5.06,3.42-1.37,2.28-2.05,5.09-2.05,8.44v169.18c0,3.35.68,6.23,2.05,8.66,1.37,2.44,3.05,3.65,5.06,3.65h55.27c9.85,0,18.92-4.33,27.22-13,8.3-8.66,14.91-20.36,19.84-35.11,4.92-14.74,7.39-30.93,7.39-48.56s-2.46-33.82-7.39-48.56Z" style="fill: #fff;"/>
  </g>
  <g>
    <path d="m256.26-.12v102.76c0,3.65.5,6.69,1.5,9.12,1,2.44,2.5,3.65,4.51,3.65h84.27c9.85,0,18.92,4.1,27.22,12.31,8.3,8.21,14.86,19.23,19.7,33.06,4.83,13.84,7.25,28.81,7.25,44.92v55.63c0,16.12-2.42,31.09-7.25,44.92-4.84,13.84-11.4,24.78-19.7,32.83-8.3,8.06-17.38,12.08-27.22,12.08h-72.23c-9.85,0-18.92-4.03-27.22-12.08-8.3-8.05-14.87-19-19.7-32.83-4.83-13.83-7.25-28.8-7.25-44.92V-.12m139.26,180.05c-3.47-6.84-7.75-10.26-12.86-10.26h-84.27c-4.01,0-6.02,3.35-6.02,10.03v81.62c0,9.73,1.73,18.01,5.2,24.85,3.46,6.84,7.75,10.26,12.86,10.26h72.23c5.11,0,9.39-3.42,12.86-10.26,3.46-6.84,5.2-15.12,5.2-24.85v-56.54c0-9.73-1.74-18.01-5.2-24.85Z" style="fill: #fff;"/>
  </g>
</svg>
