<?xml version="1.0" encoding="UTF-8"?>
<svg xmlns="http://www.w3.org/2000/svg" viewBox="0 0 400 400">
  <g id="_图层_6" data-name="图层 6">
    <path d="m180.17,306.93c-4.84,13.68-11.45,24.47-19.84,32.38-8.39,7.91-17.51,11.86-27.36,11.86H7.39c-2.01,0-3.74-1.21-5.2-3.65-1.46-2.43-2.19-5.32-2.19-8.66V61.15c0-3.34.73-6.23,2.19-8.66,1.46-2.43,3.19-3.65,5.2-3.65h116.28c9.85,0,18.92,4.03,27.22,12.08,8.3,8.06,14.91,18.92,19.84,32.6s7.39,28.58,7.39,44.69c0,20.37-3.74,38.46-11.22,54.26,6.38,8.21,11.4,18.4,15.05,30.55,3.65,12.16,5.47,25.24,5.47,39.22,0,16.12-2.42,31.01-7.25,44.69Zm-44.32-193.12c-3.56-6.84-7.8-10.26-12.72-10.26H43.5c-2.01,0-3.69,1.14-5.06,3.42-1.37,2.28-2.05,5.09-2.05,8.44v45.6c0,3.35.68,6.16,2.05,8.44,1.37,2.28,3.05,3.42,5.06,3.42h79.62c4.92,0,9.17-3.42,12.72-10.26,3.56-6.84,5.33-14.97,5.33-24.4s-1.78-17.56-5.33-24.4Zm9.44,123.58c-3.47-6.84-7.75-10.26-12.86-10.26H43.5c-2.01,0-3.69,1.22-5.06,3.65-1.37,2.44-2.05,5.32-2.05,8.66v45.14c0,3.35.68,6.23,2.05,8.66,1.37,2.44,3.05,3.65,5.06,3.65h88.92c5.1,0,9.39-3.34,12.86-10.03,3.46-6.68,5.2-14.89,5.2-24.62s-1.74-18.01-5.2-24.85Z" style="fill: #fff;"/>
  </g>
  <g id="_图层_5" data-name="图层 5">
    <path d="m254.7.15v100.22c0,3.35.68,6.23,2.05,8.66,1.37,2.44,3.05,3.65,5.06,3.65h83.45c9.85,0,18.97,3.95,27.36,11.86,8.39,7.91,15,18.7,19.84,32.38,4.83,13.68,7.25,28.58,7.25,44.69v137.26c0,3.35-.73,6.23-2.19,8.66-1.46,2.44-3.19,3.65-5.2,3.65h-21.61c-2.01,0-3.74-1.21-5.2-3.65-1.46-2.43-2.19-5.32-2.19-8.66v-137.26c0-9.42-1.78-17.56-5.33-24.4s-7.8-10.26-12.72-10.26h-83.45c-2.01,0-3.69,1.14-5.06,3.42s-2.05,5.09-2.05,8.44v160.06c0,3.35-.73,6.23-2.19,8.66-1.46,2.44-3.19,3.65-5.2,3.65h-21.61c-2.01,0-3.74-1.21-5.2-3.65-1.46-2.43-2.19-5.32-2.19-8.66V.15" style="fill: #fff;"/>
  </g>
</svg>
