<?xml version="1.0" encoding="UTF-8"?>
<svg xmlns="http://www.w3.org/2000/svg" viewBox="0 0 400 400">
  <g id="_图层_6" data-name="图层 6">
    <path d="m145.01,407.85V139.12l-48.97,97.13c-1.64,2.74-3.47,4.1-5.47,4.1-2.37,0-4.29-1.52-5.75-4.56l-48.7-96.67v199.73c0,3.35-.68,6.23-2.05,8.66-1.37,2.44-3.06,3.65-5.06,3.65H7.11c-2.01,0-3.69-1.21-5.06-3.65-1.37-2.43-2.05-5.32-2.05-8.66V61.15c0-3.34.68-6.23,2.05-8.66,1.37-2.43,3.05-3.65,5.06-3.65h25.72c2.19,0,4.1,1.67,5.75,5.02l51.98,103.06,51.98-103.06c1.64-3.34,3.56-5.02,5.75-5.02h25.72c2,0,3.69,1.22,5.06,3.65,1.37,2.44,2.05,5.32,2.05,8.66v346.7" style="fill: #fff;"/>
  </g>
  <g id="_图层_5" data-name="图层 5">
    <path d="m243.94,0v93.52h-18.88c-2.01,0-3.74,1.14-5.2,3.42-1.46,2.28-2.19,5.09-2.19,8.44v30.55c0,3.35.73,6.16,2.19,8.44,1.46,2.28,3.19,3.42,5.2,3.42h18.88v114.46c0,16.12,2.42,30.94,7.25,44.46,4.83,13.53,11.4,24.33,19.7,32.38,8.3,8.06,17.37,12.08,27.22,12.08h47.44c9.85,0,18.92-4.03,27.22-12.08,8.3-8.05,14.91-18.85,19.84-32.38,4.93-13.52,7.39-28.34,7.39-44.46v-18.7c0-3.34-.68-6.16-2.05-8.44-1.37-2.28-3.06-3.42-5.06-3.42h-21.89c-1.83,0-3.47,1.14-4.93,3.42-1.46,2.28-2.19,5.09-2.19,8.44v18.7c0,9.43-1.78,17.56-5.34,24.4s-7.89,10.26-13,10.26h-47.44c-4.92,0-9.17-3.42-12.72-10.26-3.56-6.84-5.34-14.97-5.34-24.4v-114.46h119.94v-54.26h-119.94V0" style="fill: #fff;"/>
  </g>
</svg>
