<?xml version="1.0" encoding="UTF-8"?>
<svg xmlns="http://www.w3.org/2000/svg" viewBox="0 0 400 400">
  <g id="_图层_6" data-name="图层 6">
    <path d="m177.12,275.92c-8.12,23.11-19.11,41.42-32.97,54.95-13.86,13.53-29,20.29-45.42,20.29H7.35c-2.01,0-3.74-1.21-5.2-3.65-1.46-2.43-2.19-5.32-2.19-8.66V61.15c0-3.34.73-6.23,2.19-8.66,1.46-2.43,3.19-3.65,5.2-3.65h91.38c16.42,0,31.55,6.77,45.42,20.29,13.86,13.53,24.85,31.92,32.97,55.18,8.11,23.26,12.17,48.56,12.17,75.92s-4.06,52.6-12.17,75.7Zm-31.33-124.26c-4.92-14.74-11.54-26.45-19.84-35.11-8.3-8.66-17.37-13-27.22-13h-55.27c-2.01,0-3.69,1.14-5.06,3.42-1.37,2.28-2.05,5.09-2.05,8.44v169.18c0,3.35.68,6.23,2.05,8.66,1.37,2.44,3.05,3.65,5.06,3.65h55.27c9.85,0,18.92-4.33,27.22-13,8.3-8.66,14.91-20.36,19.84-35.11,4.92-14.74,7.39-30.93,7.39-48.56s-2.46-33.82-7.39-48.56Z" style="fill: #fff;"/>
  </g>
  <g id="_图层_5" data-name="图层 5">
    <path d="m400,103.56h-130.13c-5.11,0-10.89,2.77-12.86,10.03s-2.01,14.69-2.01,24.41,0,18,2.01,24.84c2.12,7.23,7.75,10.03,12.86,10.03h78.52c9.85,0,18.92,4.03,27.22,12.08,8.3,8.06,14.91,18.92,19.84,32.6,4.92,13.68,4.55,27.33,4.55,43.44s.37,32.18-4.55,45.7c-4.93,13.53-11.54,24.33-19.84,32.38-8.3,8.06-17.38,12.08-27.22,12.08h-83.45c-2.01,0-3.69-1.21-5.06-3.65-1.37-2.43-2.05-5.32-2.05-8.66v-30.1c0-3.34.68-6.16,2.05-8.44s3.05-3.42,5.06-3.42h83.45c4.93,0,11.52-2.64,12.72-10.26.89-5.64,1.89-15.21,1.89-24.64s0-14-1.89-24.61c-1.35-7.59-7.8-10.26-12.72-10.26h-78.52c-9.85,0-18.97-3.95-27.36-11.86-8.39-7.9-15.01-18.7-19.84-32.38-4.83-13.68-4.67-28.78-4.67-44.9s-.12-30.8,4.81-44.48,11.53-24.55,19.84-32.6c8.3-8.05,17.37-12.08,27.22-12.08l130.13.16" style="fill: #fff;"/>
  </g>
</svg>
