<?xml version="1.0" encoding="UTF-8"?>
<svg xmlns="http://www.w3.org/2000/svg" viewBox="0 0 400 400">
  <g>
    <path d="m144.04,407.85v-113.69c0-9.42-1.78-17.56-5.34-24.4s-7.8-10.26-12.72-10.26H43.23c-1.64,0-3.19,1.22-4.65,3.65-1.46,2.44-2.19,5.02-2.19,7.75v67.94c0,3.35-.73,6.23-2.19,8.66-1.46,2.44-3.19,3.65-5.2,3.65H7.39c-2.01,0-3.74-1.21-5.2-3.65-1.46-2.43-2.19-5.32-2.19-8.66V61.15c0-3.34.73-6.23,2.19-8.66,1.46-2.43,3.19-3.65,5.2-3.65h101.9c9.85,0,18.92,4.03,27.22,12.08,8.3,8.06,14.91,18.92,19.84,32.6,4.93,13.68,7.39,28.58,7.39,44.69v31.46c0,17.63-3.01,33.9-9.03,48.79,7.84,8.21,14.09,19,18.74,32.38,4.65,13.38,6.98,27.82,6.98,43.32v113.69M122.15,113.59c-3.47-6.68-7.75-10.03-12.86-10.03H36.39v89.38c0,3.35.68,6.16,2.05,8.44,1.37,2.28,3.05,3.42,5.06,3.42h65.79c5.11,0,9.39-3.34,12.86-10.03,3.46-6.68,5.2-14.89,5.2-24.62v-31.92c0-9.73-1.74-17.93-5.2-24.62Z" style="fill: #fff;"/>
  </g>
  <g>
    <path d="m395.22,306.93c-4.83,13.68-11.45,24.47-19.84,32.38-8.39,7.91-17.51,11.86-27.36,11.86h-114.36c-2.01,0-3.74-1.21-5.2-3.65-1.46-2.43-2.19-5.32-2.19-8.66v-30.1c0-3.34.73-6.16,2.19-8.44,1.46-2.28,3.19-3.42,5.2-3.42h114.36c5.1,0,9.39-3.34,12.86-10.03,3.46-6.68,5.2-14.89,5.2-24.62v-23.71c0-3.04-.69-5.7-2.05-7.98-1.37-2.28-3.06-3.42-5.06-3.42h-87c-9.85,0-18.97-3.95-27.36-11.86-8.39-7.9-15-18.7-19.84-32.38-4.83-13.68-7.25-28.57-7.25-44.69s2.46-31.01,7.39-44.69,11.53-24.55,19.84-32.6c8.3-8.05,17.37-12.08,27.22-12.08h76.06c9.85,0,18.92,4.03,27.22,12.08,8.3,8.06,14.91,18.92,19.84,32.6,4.93,13.68,7.39,28.58,7.39,44.69v124.03c0,16.12-2.42,31.01-7.25,44.69Zm-34.34-193.34c-3.47-6.68-7.76-10.03-12.86-10.03h-76.06c-5.11,0-9.4,3.35-12.86,10.03-3.47,6.69-5.2,14.9-5.2,24.62s1.73,17.94,5.2,24.62c3.46,6.69,7.75,10.03,12.86,10.03h87c2.01,0,3.69-1.14,5.06-3.42,1.37-2.28,2.05-4.94,2.05-7.98v-23.26c0-9.73-1.74-17.93-5.2-24.62Z" style="fill: #fff;"/>
  </g>
</svg>
