<?xml version="1.0" encoding="UTF-8"?>
<svg xmlns="http://www.w3.org/2000/svg" viewBox="0 0 400 400">
  <g id="_图层_6" data-name="图层 6">
    <path d="m181.12-4.85v343.7c0,3.35-.68,6.23-2.05,8.66-1.37,2.44-3.06,3.65-5.06,3.65h-24.62c-2.01,0-3.74-1.37-5.2-4.1L36.12,139.12v199.73c0,3.35-.68,6.23-2.05,8.66-1.37,2.44-3.06,3.65-5.06,3.65H7.11c-2.01,0-3.69-1.21-5.06-3.65-1.37-2.43-2.05-5.32-2.05-8.66V61.15c0-3.34.68-6.23,2.05-8.66,1.37-2.43,3.05-3.65,5.06-3.65h27.09c2,0,3.92,1.53,5.75,4.56l105.06,203.38V-4.85" style="fill: #fff;"/>
  </g>
  <g id="_图层_5" data-name="图层 5">
    <path d="m254.7.15v100.22c0,3.35.68,6.23,2.05,8.66,1.37,2.44,3.05,3.65,5.06,3.65h83.45c9.85,0,18.97,3.95,27.36,11.86,8.39,7.91,15,18.7,19.84,32.38,4.83,13.68,7.25,28.58,7.25,44.69v137.26c0,3.35-.73,6.23-2.19,8.66-1.46,2.44-3.19,3.65-5.2,3.65h-21.61c-2.01,0-3.74-1.21-5.2-3.65-1.46-2.43-2.19-5.32-2.19-8.66v-137.26c0-9.42-1.78-17.56-5.33-24.4s-7.8-10.26-12.72-10.26h-83.45c-2.01,0-3.69,1.14-5.06,3.42s-2.05,5.09-2.05,8.44v160.06c0,3.35-.73,6.23-2.19,8.66-1.46,2.44-3.19,3.65-5.2,3.65h-21.61c-2.01,0-3.74-1.21-5.2-3.65-1.46-2.43-2.19-5.32-2.19-8.66V.15" style="fill: #fff;"/>
  </g>
</svg>
