<?xml version="1.0" encoding="UTF-8"?>
<svg xmlns="http://www.w3.org/2000/svg" viewBox="0 0 400 400">
  <g>
    <path d="m3.56,407.85v-145.61c0-22.49,4.56-42.25,13.68-59.28-5.47-8.21-9.71-17.93-12.72-29.18-3.01-11.24-4.51-23.1-4.51-35.57,0-16.11,2.46-31.01,7.39-44.69s11.53-24.55,19.84-32.6c8.3-8.05,17.37-12.08,27.22-12.08h119.29c2,0,3.74,1.22,5.2,3.65,1.46,2.44,2.19,5.32,2.19,8.66v30.1c0,3.35-.73,6.23-2.19,8.66-1.46,2.44-3.19,3.65-5.2,3.65H54.45c-5.11,0-9.4,3.35-12.86,10.03-3.47,6.69-5.2,14.9-5.2,24.62s1.73,17.94,5.2,24.62c3.46,6.69,7.75,10.03,12.86,10.03h83.17c2,0,3.69,1.22,5.06,3.65,1.37,2.44,2.05,5.32,2.05,8.66v30.1c0,3.04-.68,5.78-2.05,8.21-1.37,2.44-3.06,3.65-5.06,3.65H58c-5.11,0-9.4,3.42-12.86,10.26-3.47,6.84-5.2,15.13-5.2,24.85v145.61" style="fill: #fff;"/>
  </g>
  <g>
    <path d="m400.1,351.16h-173.62c-2.01,0-3.74-1.21-5.2-3.65-1.46-2.43-2.19-5.32-2.19-8.66v-30.1c0-3.34.73-6.16,2.19-8.44,1.46-2.28,3.19-3.42,5.2-3.42h26.81c2,0,3.69-1.21,5.06-3.65,1.37-2.43,2.05-5.31,2.05-8.66V115.41c0-3.34-.68-6.16-2.05-8.44-1.37-2.28-3.06-3.42-5.06-3.42h-26.81c-2.01,0-3.74-1.21-5.2-3.65-1.46-2.43-2.19-5.32-2.19-8.66v-30.1c0-3.34.73-6.23,2.19-8.66,1.46-2.43,3.19-3.65,5.2-3.65h62.93c2.01,0,3.74,1.22,5.2,3.65,1.46,2.44,2.19,5.32,2.19,8.66v223.44c0,3.35.68,6.23,2.05,8.66,1.37,2.44,3.05,3.65,5.06,3.65h96.19" style="fill: #fff;"/>
  </g>
</svg>
