<?xml version="1.0" encoding="UTF-8"?>
<svg xmlns="http://www.w3.org/2000/svg" viewBox="0 0 400 400">
  <g>
    <path d="m-8.61,48.84h81.85c2,0,3.69,1.22,5.06,3.65,1.37,2.44,2.05,5.32,2.05,8.66v30.1c0,3.35-.68,6.23-2.05,8.66-1.37,2.44-3.06,3.65-5.06,3.65h-7.21c-2.01,0-3.74,1.14-5.2,3.42-1.46,2.28-2.19,5.09-2.19,8.44v85.73c0,17.94,2.46,34.43,7.39,49.48s11.53,26.98,19.84,35.8c8.3,8.82,17.37,13.22,27.22,13.22s19.52-4.71,27.91-14.14c.91-.91,1.64-2.28,2.19-4.1s.82-3.65.82-5.47v-55.18c0-3.34.73-6.23,2.19-8.66,1.46-2.43,3.19-3.65,5.2-3.65h21.62c2,0,3.74,1.22,5.2,3.65,1.46,2.44,2.19,5.32,2.19,8.66v80.26c0,2.74-.64,5.47-1.91,8.21-8.58,15.21-16.05,22.43-27.26,30.79-11.22,8.36-26.54,11.09-39.13,11.09-16.42,0-31.56-7.07-45.42-21.2-13.86-14.14-23.85-27.21-31.97-51.23-8.12-24.01-12.17-50.16-12.17-78.43v-84.82c0-3.34-.73-6.16-2.19-8.44-1.46-2.28-3.19-3.42-5.2-3.42H-8.61" style="fill: #fff;"/>
  </g>
  <g>
    <path d="m254.99,0v264.07c0,9.73,1.73,17.94,5.2,24.62,3.46,6.69,7.75,10.03,12.86,10.03,3.83,0,7.48-2.43,10.94-7.3l.27-.46,72.78-128.14c4.38-7.9,6.57-16.87,6.57-26.9V61.15c0-3.34.73-6.23,2.19-8.66,1.46-2.43,3.19-3.65,5.2-3.65h21.62c2,0,3.74,1.22,5.2,3.65,1.46,2.44,2.19,5.32,2.19,8.66v78.89c0,21.28-5.66,42.11-16.96,62.47l-72.78,130.42c-4.38,7.91-9.81,13.99-16.28,18.24-6.48,4.25-13.45,6.38-20.93,6.38-9.85,0-18.92-4.03-27.22-12.08-8.3-8.05-14.91-18.92-19.84-32.6s-7.39-28.57-7.39-44.69V0" style="fill: #fff;"/>
  </g>
</svg>
