<?xml version="1.0" encoding="UTF-8"?>
<svg id="a" data-name="图层 2" xmlns="http://www.w3.org/2000/svg" viewBox="0 0 7800 4400">
  <rect x="1200" y="2400" width="400" height="800" style="fill: #aaa;"/>
  <g>
    <polyline points="7200 400 7200 800 5200 800 5200 1600 1200 1600 1200 800 800 800 800 400" style="fill: none; stroke: #000; stroke-miterlimit: 10; stroke-width: 3px;"/>
    <polygon points="7600 400 7600 3200 400 3200 400 400 800 400 800 800 1200 800 1200 1600 5200 1600 5200 800 7200 800 7200 400 7600 400" style="fill: none; stroke: #000; stroke-miterlimit: 10; stroke-width: 3px;"/>
    <line x1="400" y1="2800" x2="7600" y2="2800" style="fill: none; stroke: #000; stroke-miterlimit: 10; stroke-width: 3px;"/>
    <line x1="400" y1="2400" x2="7600" y2="2400" style="fill: none; stroke: #000; stroke-miterlimit: 10; stroke-width: 3px;"/>
    <line x1="400" y1="2000" x2="7600" y2="2000" style="fill: none; stroke: #000; stroke-miterlimit: 10; stroke-width: 3px;"/>
    <polyline points="7600 1600 7200 1600 6800 1600 6400 1600 6000 1600 5600 1600 5200 1600" style="fill: none; stroke: #000; stroke-miterlimit: 10; stroke-width: 3px;"/>
    <polyline points="1200 1600 800 1600 400 1600" style="fill: none; stroke: #000; stroke-miterlimit: 10; stroke-width: 3px;"/>
    <polyline points="5200 1200 5600 1200 6000 1200 6400 1200 6800 1200 7200 1200 7600 1200" style="fill: none; stroke: #000; stroke-miterlimit: 10; stroke-width: 3px;"/>
    <polyline points="1200 1200 800 1200 400 1200" style="fill: none; stroke: #000; stroke-miterlimit: 10; stroke-width: 3px;"/>
    <line x1="7600" y1="800" x2="7200" y2="800" style="fill: none; stroke: #000; stroke-miterlimit: 10; stroke-width: 3px;"/>
    <line x1="800" y1="800" x2="400" y2="800" style="fill: none; stroke: #000; stroke-miterlimit: 10; stroke-width: 3px;"/>
    <polyline points="7200 3200 7200 2800 7200 2400 7200 2000 7200 1600 7200 1200 7200 800" style="fill: none; stroke: #000; stroke-miterlimit: 10; stroke-width: 3px;"/>
    <polyline points="6800 3200 6800 2800 6800 2400 6800 2000 6800 1600 6800 1200 6800 800" style="fill: none; stroke: #000; stroke-miterlimit: 10; stroke-width: 3px;"/>
    <polyline points="6400 3200 6400 2800 6400 2400 6400 2000 6400 1600 6400 1200 6400 800" style="fill: none; stroke: #000; stroke-miterlimit: 10; stroke-width: 3px;"/>
    <polyline points="6000 3200 6000 2800 6000 2400 6000 2000 6000 1600 6000 1200 6000 800" style="fill: none; stroke: #000; stroke-miterlimit: 10; stroke-width: 3px;"/>
    <polyline points="5600 3200 5600 2800 5600 2400 5600 2000 5600 1600 5600 1200 5600 800" style="fill: none; stroke: #000; stroke-miterlimit: 10; stroke-width: 3px;"/>
    <polyline points="5200 3200 5200 2800 5200 2400 5200 2000 5200 1600" style="fill: none; stroke: #000; stroke-miterlimit: 10; stroke-width: 3px;"/>
    <polyline points="4800 3200 4800 2800 4800 2400 4800 2000 4800 1600" style="fill: none; stroke: #000; stroke-miterlimit: 10; stroke-width: 3px;"/>
    <polyline points="4400 3200 4400 2800 4400 2400 4400 2000 4400 1600" style="fill: none; stroke: #000; stroke-miterlimit: 10; stroke-width: 3px;"/>
    <polyline points="4000 3200 4000 2800 4000 2400 4000 2000 4000 1600" style="fill: none; stroke: #000; stroke-miterlimit: 10; stroke-width: 3px;"/>
    <polyline points="3600 3200 3600 2800 3600 2400 3600 2000 3600 1600" style="fill: none; stroke: #000; stroke-miterlimit: 10; stroke-width: 3px;"/>
    <polyline points="3200 3200 3200 2800 3200 2400 3200 2000 3200 1600" style="fill: none; stroke: #000; stroke-miterlimit: 10; stroke-width: 3px;"/>
    <polyline points="2800 3200 2800 2800 2800 2400 2800 2000 2800 1600" style="fill: none; stroke: #000; stroke-miterlimit: 10; stroke-width: 3px;"/>
    <polyline points="2400 3200 2400 2800 2400 2400 2400 2000 2400 1600" style="fill: none; stroke: #000; stroke-miterlimit: 10; stroke-width: 3px;"/>
    <polyline points="2000 3200 2000 2800 2000 2400 2000 2000 2000 1600" style="fill: none; stroke: #000; stroke-miterlimit: 10; stroke-width: 3px;"/>
    <polyline points="1600 3200 1600 2800 1600 2400 1600 2000 1600 1600" style="fill: none; stroke: #000; stroke-miterlimit: 10; stroke-width: 3px;"/>
    <polyline points="1200 3200 1200 2800 1200 2400 1200 2000 1200 1600" style="fill: none; stroke: #000; stroke-miterlimit: 10; stroke-width: 3px;"/>
    <polyline points="800 3200 800 2800 800 2400 800 2000 800 1600 800 1200 800 800" style="fill: none; stroke: #000; stroke-miterlimit: 10; stroke-width: 3px;"/>
  </g>
  <g>
    <rect x="1600" y="3400" width="6000" height="800" style="fill: none; stroke: #000; stroke-miterlimit: 10; stroke-width: 3px;"/>
    <line x1="1600" y1="3800" x2="7600" y2="3800" style="fill: none; stroke: #000; stroke-miterlimit: 10; stroke-width: 3px;"/>
    <line x1="7200" y1="3400" x2="7200" y2="4200" style="fill: none; stroke: #000; stroke-miterlimit: 10; stroke-width: 3px;"/>
    <line x1="6800" y1="3400" x2="6800" y2="4200" style="fill: none; stroke: #000; stroke-miterlimit: 10; stroke-width: 3px;"/>
    <line x1="6400" y1="3400" x2="6400" y2="4200" style="fill: none; stroke: #000; stroke-miterlimit: 10; stroke-width: 3px;"/>
    <line x1="6000" y1="3400" x2="6000" y2="4200" style="fill: none; stroke: #000; stroke-miterlimit: 10; stroke-width: 3px;"/>
    <line x1="5600" y1="3400" x2="5600" y2="4200" style="fill: none; stroke: #000; stroke-miterlimit: 10; stroke-width: 3px;"/>
    <line x1="5200" y1="3400" x2="5200" y2="4200" style="fill: none; stroke: #000; stroke-miterlimit: 10; stroke-width: 3px;"/>
    <line x1="4800" y1="3400" x2="4800" y2="4200" style="fill: none; stroke: #000; stroke-miterlimit: 10; stroke-width: 3px;"/>
    <line x1="4400" y1="3400" x2="4400" y2="4200" style="fill: none; stroke: #000; stroke-miterlimit: 10; stroke-width: 3px;"/>
    <line x1="4000" y1="3400" x2="4000" y2="4200" style="fill: none; stroke: #000; stroke-miterlimit: 10; stroke-width: 3px;"/>
    <line x1="3600" y1="3400" x2="3600" y2="4200" style="fill: none; stroke: #000; stroke-miterlimit: 10; stroke-width: 3px;"/>
    <line x1="3200" y1="3400" x2="3200" y2="4200" style="fill: none; stroke: #000; stroke-miterlimit: 10; stroke-width: 3px;"/>
    <line x1="2800" y1="3400" x2="2800" y2="4200" style="fill: none; stroke: #000; stroke-miterlimit: 10; stroke-width: 3px;"/>
    <line x1="2400" y1="3400" x2="2400" y2="4200" style="fill: none; stroke: #000; stroke-miterlimit: 10; stroke-width: 3px;"/>
    <line x1="2000" y1="3400" x2="2000" y2="4200" style="fill: none; stroke: #000; stroke-miterlimit: 10; stroke-width: 3px;"/>
  </g>
  <g>
    <path d="m1000,3415l-222.337,385h-222.146l222.146-385h222.337Z" style="fill: blue; stroke: #000; stroke-linecap: round; stroke-linejoin: round; stroke-width: 30px;"/>
    <polygon points="1222.337 3415 1222.337 4185 1000 4185 777.663 3800 1000 3415 1222.337 3415" style="stroke: #000; stroke-linecap: round; stroke-linejoin: round; stroke-width: 30px;"/>
    <path d="m1000,4185h-222.337l-222.146-385h222.146l222.337,385Z" style="fill: lime; stroke: #000; stroke-linecap: round; stroke-linejoin: round; stroke-width: 30px;"/>
    <polygon points="1444.483 3800 1222.337 4185 1222.337 3415 1444.483 3800" style="fill: red; stroke: #000; stroke-linecap: round; stroke-linejoin: round; stroke-width: 30px;"/>
  </g>
  <g>
    <path d="m3200,415l-222.337,385h-222.146l222.146-385h222.337Z" style="fill: #ff0; stroke: #000; stroke-linecap: round; stroke-linejoin: round; stroke-width: 30px;"/>
    <polygon points="3422.337 415 3422.337 1185 3200 1185 2977.663 800 3200 415 3422.337 415" style="fill: #fff; stroke: #000; stroke-linecap: round; stroke-linejoin: round; stroke-width: 30px;"/>
    <path d="m3200,1185h-222.337l-222.146-385h222.146l222.337,385Z" style="fill: #f0f; stroke: #000; stroke-linecap: round; stroke-linejoin: round; stroke-width: 30px;"/>
    <polygon points="3644.483 800 3422.337 1185 3422.337 415 3644.483 800" style="fill: aqua; stroke: #000; stroke-linecap: round; stroke-linejoin: round; stroke-width: 30px;"/>
  </g>
  <g>
    <path d="m1350.041,648.706h129.661l3.589,33.989h-102.98v101.139h83.633v32.331h-83.633v101.139h108.754l-3.745,33.989h-135.279v-302.588Z" style="fill: blue;"/>
    <path d="m1544.148,648.706h30.114v268.599h113.434l-3.589,33.989h-139.959v-302.588Z" style="fill: blue;"/>
    <path d="m1737.006,648.706h129.661l3.589,33.989h-102.98v101.139h83.633v32.331h-83.633v101.139h108.754l-3.745,33.989h-135.279v-302.588Z" style="fill: blue;"/>
    <path d="m1917.85,840.621v-82.694l57.419-109.222h92.838l4.213,36.062h-80.98l-43.533,85.595v57.823l43.533,87.046h80.98l-4.213,36.062h-92.838l-57.419-110.673Z" style="fill: blue;"/>
    <path d="m2111.332,840.207v-81.865l58.511-109.636h43.844l56.483,109.636v81.865l-58.511,111.087h-41.816l-58.511-111.087Zm72.086,74.403h14.511l42.284-86.424v-57.823l-41.348-84.973h-14.667l-42.908,84.973v57.823l42.128,86.424Z" style="fill: blue;"/>
    <path d="m2315.893,648.706h90.342l57.42,109.015v81.657l-57.42,111.916h-90.342v-302.588Zm74.583,266.526l43.221-87.875v-57.616l-43.221-84.973h-44.313v230.464h44.313Z" style="fill: blue;"/>
    <path d="m2510.936,648.706h129.661l3.589,33.989h-102.98v101.139h83.633v32.331h-83.633v101.139h108.753l-3.745,33.989h-135.279v-302.588Z" style="fill: blue;"/>
  </g>
  <g>
    <path d="m3744.892,648.706h96.115l48.837,58.86v63.005l-49.149,69.015h-65.221v111.709h-30.582v-302.588Zm81.604,160.413l33.39-51.191v-37.098l-32.298-37.513h-52.115v125.802h51.022Z" style="fill: blue;"/>
    <path d="m3938.374,648.706h93.462l50.398,60.31v54.093l-44.937,54.922,42.128,78.963v54.3h-30.426v-49.326l-39.788-76.891h-40.256v126.217h-30.582v-302.588Zm80.668,147.978l33.235-44.352v-29.43l-33.235-39.585h-50.086v113.367h50.086Z" style="fill: blue;"/>
    <path d="m4119.998,840.207v-81.865l58.511-109.636h43.844l56.483,109.636v81.865l-58.511,111.087h-41.816l-58.511-111.087Zm72.086,74.403h14.511l42.284-86.424v-57.823l-41.348-84.973h-14.667l-42.908,84.973v57.823l42.128,86.424Z" style="fill: blue;"/>
    <path d="m4322.374,852.849v-60.103h30.114v47.668l40.724,75.025,37.916-74.403v-158.133h-90.03l3.589-34.197h116.399v204.143l-52.738,98.445h-29.958l-56.015-98.445Z" style="fill: blue;"/>
    <path d="m4519.601,648.706h129.661l3.589,33.989h-102.98v101.139h83.633v32.331h-83.633v101.139h108.754l-3.745,33.989h-135.279v-302.588Z" style="fill: blue;"/>
    <path d="m4700.446,840.621v-82.694l57.419-109.222h92.838l4.213,36.062h-80.981l-43.533,85.595v57.823l43.533,87.046h80.981l-4.213,36.062h-92.838l-57.419-110.673Z" style="fill: blue;"/>
    <path d="m4957.276,682.695h-65.844l2.652-33.989h158.527l2.497,33.989h-67.562v268.599h-30.27v-268.599Z" style="fill: blue;"/>
  </g>
  <g>
    <path d="m271.051,633.958h23.219v-66.717l-20.879,6.779v-10.379l22.439-7.44h10.08v77.757h23.039v9.84h-57.898v-9.84Z"/>
    <path d="m271.411,1032.159l41.519-43.018v-14.58l-11.58-7.919h-28.259l1.56-10.44h31.739l18.06,12.6v25.019l-39.838,40.138h43.978v9.84h-53.938l-3.24-11.64Z"/>
    <path d="m273.361,2233.359h28.619l14.219-13.319v-9.78l-9.899-9.479h-33.959l2.34-44.579h47.638l1.2,9.84h-39.238l-1.38,25.439h29.219l15.539,14.639v18.12l-20.639,19.559h-32.219l-1.44-10.439Z"/>
    <path d="m266.852,1811.519l35.398-56.037,9.06,6.119-31.679,49.678h29.219v-22.979h11.399v22.559h12.899v9.6h-12.899v24.06h-11.399v-24.06h-40.798l-1.2-8.939Z"/>
    <path d="m271.711,1434.979h31.079l13.379-12.719v-8.52l-12.419-10.92h-26.039v-9.18h25.679l9.179-11.459v-7.5l-10.199-9.66h-30.659l1.38-8.82h35.638l15.18,14.22v14.04l-11.1,12.599,15.479,14.16v14.639l-19.56,17.939h-35.638l-1.38-8.82Z"/>
    <path d="m287.37,3020.699l30.239-54.658h-47.818l1.2-9.84h55.798l3.42,10.021-31.499,57.118v20.459h-11.34v-23.1Z"/>
    <path d="m270.571,2625.319v-42.658l20.759-26.459h30.899l1.38,10.44h-26.459l-15.479,19.619v13.079l31.019-8.76,16.739,15.119v19.619l-18.779,18.479h-21.299l-18.779-18.479Zm23.939,8.04h11.16l12.479-12.84v-11.099l-9.6-8.22-26.879,5.64v13.679l12.839,12.84Z"/>
  </g>
  <g>
    <path d="m571.051,333.959h23.219v-66.718l-20.879,6.78v-10.379l22.439-7.439h10.08v77.757h23.039v9.839h-57.898v-9.839Z"/>
    <path d="m5334.302,733.959h23.219v-66.718l-20.879,6.78v-10.379l22.439-7.439h10.079v77.757h23.039v9.839h-57.897v-9.839Z"/>
    <path d="m5409.121,734.978h31.079l13.379-12.719v-8.52l-12.42-10.92h-26.039v-9.179h25.68l9.18-11.46v-7.5l-10.199-9.66h-30.659l1.38-8.819h35.639l15.18,14.219v14.04l-11.1,12.599,15.479,14.16v14.639l-19.559,17.939h-35.639l-1.38-8.82Z"/>
    <path d="m6933.912,733.959h23.22v-66.718l-20.879,6.78v-10.379l22.438-7.439h10.079v77.757h23.039v9.839h-57.897v-9.839Z"/>
    <path d="m7023.25,720.699l30.238-54.658h-47.817l1.2-9.839h55.797l3.42,10.02-31.498,57.118v20.459h-11.34v-23.099Z"/>
    <path d="m6533.432,733.959h23.219v-66.718l-20.879,6.78v-10.379l22.439-7.439h10.08v77.757h23.039v9.839h-57.898v-9.839Z"/>
    <path d="m6607.711,725.319v-42.659l20.76-26.458h30.898l1.38,10.439h-26.459l-15.479,19.619v13.08l31.02-8.76,16.738,15.119v19.62l-18.779,18.479h-21.299l-18.779-18.479Zm23.939,8.04h11.16l12.479-12.839v-11.1l-9.6-8.22-26.879,5.64v13.68l12.84,12.839Z"/>
    <path d="m6134.661,733.959h23.22v-66.718l-20.879,6.78v-10.379l22.438-7.439h10.08v77.757h23.039v9.839h-57.898v-9.839Z"/>
    <path d="m6211.041,733.359h28.619l14.22-13.32v-9.779l-9.9-9.479h-33.959l2.341-44.578h47.638l1.2,9.839h-39.238l-1.38,25.439h29.219l15.539,14.64v18.119l-20.639,19.559h-32.219l-1.44-10.439Z"/>
    <path d="m5732.111,734.679h23.219v-66.718l-20.879,6.78v-10.379l22.439-7.439h10.08v77.757h23.039v9.839h-57.898v-9.839Z"/>
    <path d="m5801.592,711.52l35.398-56.038,9.059,6.12-31.678,49.678h29.219v-22.979h11.398v22.559h12.9v9.6h-12.9v24.059h-11.398v-24.059h-40.799l-1.199-8.939Z"/>
    <path d="m7334.002,333.959h23.219v-66.718l-20.879,6.78v-10.379l22.439-7.439h10.079v77.757h23.039v9.839h-57.897v-9.839Z"/>
    <path d="m7407.321,328.079v-17.819l14.579-12-12.18-11.76v-14.759l15.959-15.539h21.96l15.959,15.539v14.759l-12.179,11.76,14.578,12v17.819l-18.358,15.719h-21.96l-18.358-15.719Zm23.099,6.479h12.479l11.579-10.08v-11.58l-11.579-9.419h-12.479l-11.579,9.419v11.58l11.579,10.08Zm0-40.438h12.479l9.96-10.5v-8.459l-9.96-9.959h-12.479l-9.959,9.959v8.459l9.959,10.5Z"/>
    <path d="m4934.392,1533.959h23.219v-66.718l-20.879,6.779v-10.379l22.439-7.439h10.079v77.757h23.039v9.839h-57.897v-9.839Z"/>
    <path d="m5008.431,1532.158l41.519-43.018v-14.58l-11.579-7.919h-28.26l1.561-10.439h31.738l18.06,12.599v25.02l-39.839,40.139h43.979v9.839h-53.938l-3.24-11.64Z"/>
    <path d="m4533.852,1533.959h23.219v-66.718l-20.879,6.779v-10.379l22.439-7.439h10.079v77.757h23.039v9.839h-57.897v-9.839Z"/>
    <path d="m4608.251,1533.959h23.219v-66.718l-20.879,6.779v-10.379l22.439-7.439h10.079v77.757h23.039v9.839h-57.897v-9.839Z"/>
    <path d="m4133.401,1533.959h23.219v-66.718l-20.879,6.78v-10.379l22.439-7.439h10.079v77.757h23.039v9.839h-57.897v-9.839Z"/>
    <path d="m4205.521,1487.94l22.499-31.738h16.859l21.72,31.738v23.699l-22.499,32.159h-16.08l-22.499-32.159v-23.699Zm27.719,45.238h5.58l16.26-25.019v-16.739l-15.899-24.599h-5.64l-16.5,24.599v16.739l16.199,25.019Zm-3.06-41.338h11.819v16.2h-11.819v-16.2Z"/>
    <path d="m3829.429,1474.681v42.658l-20.759,26.459h-30.899l-1.38-10.439h26.459l15.479-19.619v-13.079l-31.019,8.76-16.739-15.12v-19.619l18.779-18.479h21.299l18.779,18.479Zm-37.978,24.119l26.879-5.64v-13.68l-12.84-12.839h-11.159l-12.479,12.839v11.1l9.6,8.22Z"/>
    <path d="m3370.661,1528.079v-17.819l14.579-12-12.179-11.76v-14.759l15.959-15.539h21.959l15.959,15.539v14.759l-12.179,11.76,14.579,12v17.819l-18.359,15.719h-21.959l-18.359-15.719Zm23.099,6.479h12.479l11.58-10.08v-11.579l-11.58-9.42h-12.479l-11.579,9.42v11.579l11.579,10.08Zm0-40.438h12.479l9.96-10.5v-8.459l-9.96-9.96h-12.479l-9.959,9.96v8.459l9.959,10.5Z"/>
    <path d="m2987.37,1520.699l30.239-54.658h-47.818l1.2-9.839h55.798l3.42,10.02-31.499,57.117v20.459h-11.34v-23.099Z"/>
    <path d="m2570.571,1525.319v-42.658l20.759-26.459h30.898l1.38,10.439h-26.459l-15.479,19.619v13.08l31.019-8.76,16.739,15.119v19.619l-18.779,18.479h-21.299l-18.779-18.479Zm23.938,8.04h11.16l12.479-12.84v-11.1l-9.6-8.22-26.879,5.64v13.68l12.839,12.84Z"/>
    <path d="m2173.361,1533.359h28.619l14.219-13.32v-9.779l-9.899-9.479h-33.959l2.34-44.578h47.638l1.2,9.839h-39.238l-1.38,25.439h29.219l15.539,14.64v18.119l-20.639,19.559h-32.219l-1.44-10.439Z"/>
    <path d="m1766.852,1511.52l35.398-56.038,9.06,6.12-31.679,49.678h29.219v-22.979h11.399v22.56h12.899v9.6h-12.899v24.059h-11.399v-24.059h-40.798l-1.2-8.939Z"/>
    <path d="m1371.711,1534.978h31.079l13.379-12.719v-8.52l-12.419-10.92h-26.039v-9.179h25.679l9.179-11.46v-7.5l-10.199-9.66h-30.659l1.38-8.819h35.638l15.18,14.219v14.04l-11.1,12.599,15.479,14.16v14.639l-19.56,17.939h-35.638l-1.38-8.82Z"/>
    <path d="m971.411,732.158l41.519-43.018v-14.58l-11.58-7.919h-28.259l1.56-10.439h31.739l18.06,12.599v25.019l-39.838,40.139h43.978v9.839h-53.938l-3.24-11.64Z"/>
  </g>
</svg>