<svg width="32" height="32" xmlns="http://www.w3.org/2000/svg">

 <g>
  <title>background</title>
  <rect fill="none" id="canvas_background" height="402" width="582" y="-1" x="-1"/>
 </g>
 <g>
  <title>Layer 1</title>
  <g id="lifter">
   <path d="m28.15,8.570243a1.85,1.85 0 0 0 1.85,-1.85l0,-1.3a1.85,1.85 0 0 0 -1.85,-1.85l-18.15,0a1,1 0 0 0 0,2l18,0l0,1l-24,0l0,-1l2,0a1,1 0 0 0 0,-2l-2.15,0a1.85,1.85 0 0 0 -1.85,1.85l0,1.3a1.85,1.85 0 0 0 1.85,1.85l1,0l7.92,2.75l-9.11,3.31a1,1 0 0 0 0.04,1.94l8.67,2.76l-7.52,2.24l-1.85,0a1,1 0 0 0 -1,1l0,2a4,4 0 0 0 3,3.86l22,0.01a4,4 0 0 0 3,-3.87l0,-2a1,1 0 0 0 -1,-1l-2.84,0l-19.06,-6.06l8.64,-3.15l9,3.15l-4.06,1.23a1,1 0 0 0 0.29,2a1,1 0 0 0 0.29,0l7,-2.13a1,1 0 0 0 0.74,-1.04a1,1 0 0 0 -0.67,-1l-9.61,-3.29l7.46,-2.71l1.97,0zm-0.15,16a2,2 0 0 1 -1.4,1.89l-21.2,0a2,2 0 0 1 -1.4,-1.89l0,-1l24,0l0,1zm-16.28,-3l3.57,-1.09a1,1 0 0 0 0.32,-0.17l3.95,1.26l-7.84,0zm4,-11.33l-4.8,-1.67l9.4,0l-4.6,1.67z" id="svg_1"/>
  </g>
 </g>
</svg>