<svg xmlns="http://www.w3.org/2000/svg" viewBox="0 0 32 32"><g id="Layer_2" data-name="Layer 2"><path d="M30,9.24A2.39,2.39,0,0,0,27.58,7H11a1,1,0,0,0,0,2h7.94c.23,2.83,0,8.22-4,12.3a8.58,8.58,0,0,1-.7.66,4.15,4.15,0,0,1-5.52,0A8.58,8.58,0,0,1,8,21.3a13.59,13.59,0,0,1-3.28-5.6,15.64,15.64,0,0,1-.46-1.88c-.06-.32-.11-.64-.15-1A18.62,18.62,0,0,1,4,9.36.38.38,0,0,1,4.41,9H7A1,1,0,0,0,7,7H4.41A2.38,2.38,0,0,0,2,9.25a20.07,20.07,0,0,0,.13,3.88c0,.34.09.69.16,1a17.12,17.12,0,0,0,.52,2.11A15.61,15.61,0,0,0,6.61,22.7c.26.27.53.52.8.76a6.17,6.17,0,0,0,8.18,0l.22-.21.41.38a6.26,6.26,0,0,0,8,0c.34-.29.68-.59,1-.92a15.53,15.53,0,0,0,3.88-6.41,1,1,0,1,0-1.9-.6,13.57,13.57,0,0,1-3.39,5.59c-.29.29-.58.55-.88.8a4.27,4.27,0,0,1-5.45,0l-.31-.28A15.87,15.87,0,0,0,19,19a.75.75,0,0,0,.15,0A1.74,1.74,0,0,1,21,20.32,1,1,0,0,0,22,21a.9.9,0,0,0,.28,0A1,1,0,0,0,23,19.76a3.79,3.79,0,0,0-3.06-2.71A20,20,0,0,0,21,9h6.63a.39.39,0,0,1,.39.36,18.23,18.23,0,0,1,0,2.56A1,1,0,0,0,28.86,13h.08a1,1,0,0,0,1-.92A20.72,20.72,0,0,0,30,9.24Z"/><path d="M7.71,12a2.68,2.68,0,0,0-1.64,1.6,1,1,0,0,0,.57,1.29A.92.92,0,0,0,7,15a1,1,0,0,0,.93-.64c0-.09.17-.35.36-.4a.78.78,0,0,1,.82.49,1,1,0,0,0,1.78-.9A2.75,2.75,0,0,0,7.71,12Z"/><path d="M13,15a1,1,0,0,0,.93-.64c0-.09.17-.35.36-.4a.78.78,0,0,1,.82.49,1,1,0,1,0,1.78-.9A2.75,2.75,0,0,0,13.71,12a2.68,2.68,0,0,0-1.64,1.6,1,1,0,0,0,.57,1.29A.92.92,0,0,0,13,15Z"/><path d="M24.11,12.49a.81.81,0,0,1-.82.5.73.73,0,0,1-.36-.41,1,1,0,1,0-1.86.72,2.68,2.68,0,0,0,1.64,1.6,2.42,2.42,0,0,0,.7.1,2.82,2.82,0,0,0,2.48-1.61,1,1,0,1,0-1.78-.9Z"/><path d="M11.19,19A1.67,1.67,0,0,1,10,17.76,1,1,0,0,0,8,18.24,3.64,3.64,0,0,0,10.81,21a3.23,3.23,0,0,0,.61.06A3.79,3.79,0,0,0,15,18.28,1,1,0,0,0,13,17.72,1.74,1.74,0,0,1,11.19,19Z"/></g></svg>