<?xml version="1.0" encoding="utf-8"?>
<!-- Generator: Adobe Illustrator 16.0.0, SVG Export Plug-In . SVG Version: 6.00 Build 0)  -->
<!DOCTYPE svg PUBLIC "-//W3C//DTD SVG 1.0//EN" "http://www.w3.org/TR/2001/REC-SVG-20010904/DTD/svg10.dtd">
<svg version="1.0" id="Layer_1" xmlns="http://www.w3.org/2000/svg" xmlns:xlink="http://www.w3.org/1999/xlink" x="0px" y="0px"
	 width="100px" height="100px" viewBox="0 0 100 100" enable-background="new 0 0 100 100" xml:space="preserve">
<path d="M77.832,28.463H56.976L46.546,10H22.168L10,31.543L20.43,50L10,68.463L22.168,90h24.378l10.43-18.457h20.856L90,50
	L77.832,28.463z M17.656,31.543l8.405-14.877h16.595l8.405,14.877l-8.405,14.869H26.058L17.656,31.543z M42.656,83.333H26.062
	l-8.405-14.87l8.401-14.869h16.599l8.405,14.869L42.656,83.333z M73.942,64.876H57.344L48.938,50l8.405-14.87h16.599L82.344,50
	L73.942,64.876z"/>
</svg>
