<svg xmlns="http://www.w3.org/2000/svg" viewBox="0 0 32 32"><g id="pool"><path d="M27.07,26.3a3.15,3.15,0,0,0-4.08.29l-.2.2a1,1,0,0,1-.26.2,1.12,1.12,0,0,1-1.32-.2,3.2,3.2,0,0,0-4.42,0,1.13,1.13,0,0,1-1.58,0,3.14,3.14,0,0,0-4.42,0,1.11,1.11,0,0,1-1.58,0l-.2-.2a3.15,3.15,0,0,0-4.08-.29L2.4,28.2a1,1,0,0,0,1.2,1.6l2.53-1.9A1.13,1.13,0,0,1,7.59,28l.2.2a3.14,3.14,0,0,0,4.42,0,1.11,1.11,0,0,1,1.58,0,3.14,3.14,0,0,0,4.42,0,1.13,1.13,0,0,1,1.58,0,3.11,3.11,0,0,0,3.68.54,3,3,0,0,0,.74-.54l.2-.2a1.13,1.13,0,0,1,1.46-.11l2.53,1.9a1,1,0,0,0,.6.2,1,1,0,0,0,.8-.4,1,1,0,0,0-.2-1.4Z"/><path d="M3.6,25.12l2.53-1.9a1.13,1.13,0,0,1,1.46.11l.2.2a3.14,3.14,0,0,0,4.42,0,1.11,1.11,0,0,1,1.58,0,3.14,3.14,0,0,0,4.42,0,1.11,1.11,0,0,1,1.58,0,3.14,3.14,0,0,0,4.42,0l.2-.2a1.13,1.13,0,0,1,1.46-.11l2.53,1.9a1,1,0,0,0,.6.2,1,1,0,0,0,.8-.4,1,1,0,0,0-.2-1.4l-2.53-1.9a3.15,3.15,0,0,0-4.08.29l-.2.2a1.11,1.11,0,0,1-.79.33V5a1,1,0,0,1,2,0,1,1,0,0,0,2,0,3,3,0,0,0-6,0v8H9V10h8a1,1,0,0,0,0-2H9V5a1,1,0,0,1,2,0,1,1,0,0,0,2,0A3,3,0,0,0,7,5V21a3.19,3.19,0,0,0-2.07.61L2.4,23.52a1,1,0,0,0,1.2,1.6Zm13.19-3a1.13,1.13,0,0,1-1.58,0,3.14,3.14,0,0,0-4.42,0,1.11,1.11,0,0,1-1.58,0l-.2-.2H9V20H20v1.38A3.13,3.13,0,0,0,16.79,22.11ZM20,15v3H9V15Z"/></g></svg>