<svg xmlns="http://www.w3.org/2000/svg" viewBox="0 0 32 32"><defs><style>.cls-1{fill:#231f20;}</style></defs><g id="snake"><path class="cls-1" d="M25.55,23.18A3.43,3.43,0,0,0,26,21.5,3.5,3.5,0,0,0,22.5,18H20V11a.24.24,0,0,0,0-.08,12.63,12.63,0,0,0,.69-1.1A11.68,11.68,0,0,0,22,6.14a3.22,3.22,0,0,0-.75-2.67A4.4,4.4,0,0,0,17.86,2H14.14A4.4,4.4,0,0,0,10.8,3.47a3.22,3.22,0,0,0-.75,2.67,11.68,11.68,0,0,0,1.28,3.68,12.63,12.63,0,0,0,.69,1.1A.24.24,0,0,0,12,11v8a1,1,0,0,0,1,1h9.5a1.5,1.5,0,0,1,0,3H22a1,1,0,0,0,0,2h2.5a1.5,1.5,0,0,1,0,3H7.5a1.5,1.5,0,0,1,0-3H18a1,1,0,0,0,0-2H9.5a1.5,1.5,0,0,1,0-3,1,1,0,0,0,0-2A3.5,3.5,0,0,0,6,21.5a3.43,3.43,0,0,0,.45,1.68A3.49,3.49,0,0,0,7.5,30h17a3.49,3.49,0,0,0,1.05-6.82ZM14,13.25a3,3,0,0,0,3.94,0l0,0V18H14V13.22Zm-1.7-8.49A2.36,2.36,0,0,1,14.14,4h3.72a2.36,2.36,0,0,1,1.81.76,1.25,1.25,0,0,1,.31,1,9.94,9.94,0,0,1-1.07,3.07,11.53,11.53,0,0,1-2.3,2.92,1,1,0,0,1-1.22,0,11.53,11.53,0,0,1-2.3-2.92A9.94,9.94,0,0,1,12,5.8,1.25,1.25,0,0,1,12.33,4.76Z"/><path class="cls-1" d="M14,8a1,1,0,0,0,0-2h0a1,1,0,0,0,0,2Z"/><path class="cls-1" d="M18,8a1,1,0,0,0,0-2h0a1,1,0,0,0,0,2Z"/></g></svg>