<svg xmlns="http://www.w3.org/2000/svg" viewBox="0 0 32 32"><g id="paint_roller" data-name="paint roller"><path d="M26.67,6H25V4.67A2.68,2.68,0,0,0,22.33,2H4.67A2.68,2.68,0,0,0,2,4.67V9.33A2.68,2.68,0,0,0,4.67,12H16a1,1,0,0,0,0-2H4.67A.67.67,0,0,1,4,9.33V4.67A.67.67,0,0,1,4.67,4H22.33a.67.67,0,0,1,.67.67V9.33a.67.67,0,0,1-.67.67H20a1,1,0,0,0,0,2h2.33A2.68,2.68,0,0,0,25,9.33V8h1.67a.33.33,0,0,1,.33.33v4.54a.34.34,0,0,1-.28.33L17,14.83A2.32,2.32,0,0,0,15,17.13V18h-.95A2.05,2.05,0,0,0,12,20.05V26a4,4,0,0,0,8,0V20.05A2.05,2.05,0,0,0,18,18H17v-.87a.34.34,0,0,1,.28-.33l9.77-1.63A2.32,2.32,0,0,0,29,12.87V8.33A2.34,2.34,0,0,0,26.67,6ZM18,20.05V26a2,2,0,0,1-4,0l.05-6Z"/></g></svg>