<svg xmlns="http://www.w3.org/2000/svg" viewBox="0 0 32 32"><g id="rgb"><path d="M28.8,15.5a1,1,0,0,0-1.74,1A6.93,6.93,0,0,1,28,20a7,7,0,0,1-10.41,6.11A9,9,0,0,0,20,20.06a9,9,0,0,0,5-7.3,1,1,0,0,0,0-.29,9.55,9.55,0,0,0,0-1.31A9,9,0,0,0,15.16,3a9,9,0,0,0-7,4.6,1,1,0,1,0,1.74,1A7,7,0,0,1,15.35,5,7,7,0,0,1,23,11.22,9.11,9.11,0,0,0,21,11a8.94,8.94,0,0,0-5,1.52,9,9,0,1,0,0,15A9,9,0,0,0,30,20,9.07,9.07,0,0,0,28.8,15.5ZM16,24.89a7,7,0,0,1-1.95-4.11A8.36,8.36,0,0,0,16,21a8.06,8.06,0,0,0,.85,0A9.88,9.88,0,0,0,18,20.78,7,7,0,0,1,16,24.89Zm0-9.78a7,7,0,0,1,1.88,3.63,7.21,7.21,0,0,1-1.23.23,6.93,6.93,0,0,1-2.53-.23A6.92,6.92,0,0,1,16,15.11Zm6.88-1.85a6.84,6.84,0,0,1-1.49,3.2,7,7,0,0,1-1.64,1.45,9,9,0,0,0-2.16-4,7,7,0,0,1,5.29-.63ZM4,20a7,7,0,0,1,10.41-6.11,9,9,0,0,0-2.15,4,7.14,7.14,0,0,1-1.73-1.52,1,1,0,0,0-1.4-.16A1,1,0,0,0,9,17.63a9.07,9.07,0,0,0,3,2.43,9,9,0,0,0,2.41,6.05A7,7,0,0,1,4,20Z"/></g></svg>