<?xml version="1.0" encoding="utf-8"?>
<!-- Generator: Adobe Illustrator 16.0.0, SVG Export Plug-In . SVG Version: 6.00 Build 0)  -->
<!DOCTYPE svg PUBLIC "-//W3C//DTD SVG 1.0//EN" "http://www.w3.org/TR/2001/REC-SVG-20010904/DTD/svg10.dtd">
<svg version="1.0" id="Layer_1" xmlns="http://www.w3.org/2000/svg" xmlns:xlink="http://www.w3.org/1999/xlink" x="0px" y="0px"
	 width="100px" height="100px" viewBox="0 0 100 100" enable-background="new 0 0 100 100" xml:space="preserve">
<path d="M90,66.667V20h-6.667c-3.682,0-7.015,1.491-9.427,3.906L58.386,39.427c-2.412,2.416-5.746,3.906-9.428,3.906H45l-5-10
	H26.667l6.666,33.334H40v6.666H23.333c-3.682,0-6.666-2.984-6.666-6.666S19.651,60,23.333,60v-6.667
	C15.97,53.333,10,59.304,10,66.667S15.97,80,23.333,80H90v-6.667H76.667v-6.666H90z M70,73.333H46.667v-6.666H70V73.333z M38.799,60
	l-4.001-20h1.081l5,10h8.079c5.346,0,10.368-2.083,14.145-5.862L78.62,28.62c1.26-1.26,2.933-1.953,4.713-1.953V60H38.799z"/>
</svg>
