<svg xmlns="http://www.w3.org/2000/svg" viewBox="0 0 32 32"><defs><style>.cls-1{fill:#231f20;}</style></defs><g id="sleeping_mask" data-name="sleeping mask"><path class="cls-1" d="M29,16.1s0-.07,0-.1V12.26A9.27,9.27,0,0,0,19.74,3H12.26A9.27,9.27,0,0,0,3,12.26a1,1,0,0,0,2,0,8.17,8.17,0,0,1,.08-1.11A7.31,7.31,0,0,1,12.26,5h7.48A7.27,7.27,0,0,1,27,12.26v1.82A6.55,6.55,0,0,0,23.4,13H8.6A6.61,6.61,0,0,0,2,19.6v2.59a6.81,6.81,0,0,0,13.27,2.15L15.72,23h.56l.45,1.34a6.81,6.81,0,0,0,11.6,2.32,8,8,0,0,0,.5-.65,1,1,0,0,0-1.66-1.12,4.94,4.94,0,0,1-.35.45,4.81,4.81,0,0,1-8.2-1.63l-.67-2A1,1,0,0,0,17,21H15a1,1,0,0,0-.95.68l-.67,2A4.81,4.81,0,0,1,4,22.19V19.6A4.61,4.61,0,0,1,8.6,15H23.4A4.61,4.61,0,0,1,28,19.6v2.59a1,1,0,0,0,2,0V19.6A6.52,6.52,0,0,0,29,16.1Z"/><path class="cls-1" d="M9,24a1,1,0,0,0,1-1V21.91l.41-.09.88.89a1,1,0,0,0,1.42,0,1,1,0,0,0,0-1.42L12.37,21l.23-.15a1,1,0,1,0-1.2-1.6,4,4,0,0,1-4.8,0,1,1,0,0,0-1.2,1.6l.23.16-.34.33a1,1,0,0,0,0,1.42,1,1,0,0,0,1.42,0l.88-.89c.13,0,.27.06.41.09V23A1,1,0,0,0,9,24Z"/><path class="cls-1" d="M23,24a1,1,0,0,0,1-1V21.91l.41-.09.88.89a1,1,0,0,0,1.42,0,1,1,0,0,0,0-1.42L26.37,21l.23-.15a1,1,0,1,0-1.2-1.6,4,4,0,0,1-4.8,0,1,1,0,1,0-1.2,1.6l.23.16-.34.33a1,1,0,0,0,0,1.42,1,1,0,0,0,1.42,0l.88-.89c.13,0,.27.06.41.09V23A1,1,0,0,0,23,24Z"/></g></svg>