<svg xmlns="http://www.w3.org/2000/svg" viewBox="0 0 32 32"><defs><style>.cls-1{fill:#231f20;}</style></defs><g id="panther"><path class="cls-1" d="M23.32,18.58a.94.94,0,0,1,.82-.18L27,19a2,2,0,0,0,2.2-1.09l.55-1.12a2.06,2.06,0,0,0,.21-.91V14a4.36,4.36,0,0,0-1.86-3.59L26.6,9.35a1,1,0,0,0-1.23.08l-1.54,1.39L21.42,10a.88.88,0,0,0-.36-.06l-8.1.29a1,1,0,0,0,0,2h0L21,11.94l2.78,1a1,1,0,0,0,1-.2l1.39-1.25.88.6A2.36,2.36,0,0,1,28,14v1.94l-.54,1.13-2.89-.62a3,3,0,0,0-2.5.57A2.9,2.9,0,0,0,21,19.27V25H20V19.89a1,1,0,0,0-.8-1l-7.31-1.46a3,3,0,0,0-2.6.85L7,20.64a1,1,0,0,0-.26.9L7.48,25H6.79L6,21.91,7,18.16a1,1,0,0,0,0-.24V14.57a2.22,2.22,0,0,1,1.26-2l.2-.07a2,2,0,0,1,.64-.12,1,1,0,1,0,0-2,3.81,3.81,0,0,0-1.31.24H4.93a.53.53,0,0,1-.42-.22.65.65,0,0,1-.12-.57.61.61,0,0,1,.33-.43.48.48,0,0,1,.45,0l.18.09a1,1,0,1,0,.92-1.78L6.1,7.62a2.52,2.52,0,0,0-2.21-.06A2.61,2.61,0,0,0,2.44,9.34a2.66,2.66,0,0,0,.5,2.28,2.54,2.54,0,0,0,2,1H5.5a4.23,4.23,0,0,0-.5,2v3.22L4,21.67a.94.94,0,0,0,0,.47l1,4.09A1,1,0,0,0,6,27H8.72a1,1,0,0,0,.77-.37,1,1,0,0,0,.2-.84l-.88-4.14L10,20.43V23a1,1,0,0,0,.17.55l2,3A1,1,0,0,0,13,27h3a1,1,0,0,0,.89-1.45L15.12,22l.77-1.55a.88.88,0,0,0,0-.15l2.06.41V26a1,1,0,0,0,1,1h3a1,1,0,0,0,1-1V24.28l2,.5V25a1,1,0,0,0,1,1h3a1,1,0,0,0,1-1V23.83a3.54,3.54,0,0,0-2.42-3.36l-4.26-1.42A1,1,0,0,0,23,19,.79.79,0,0,1,23.32,18.58ZM13.11,22.45,14.38,25h-.84L12,22.7V19.51l1.93.39-.82,1.65A1,1,0,0,0,13.11,22.45ZM27,22.37A1.54,1.54,0,0,1,28,23.83V24H27a1,1,0,0,0-.76-1L23,22.22V21.05Z"/></g></svg>