<svg xmlns="http://www.w3.org/2000/svg" viewBox="0 0 32 32"><defs><style>.cls-1{fill:#231f20;}</style></defs><g id="plane"><path class="cls-1" d="M29.41,13.09,21,9.35V8.91a7.91,7.91,0,0,0-3.06-6.25,3.18,3.18,0,0,0-3.88,0A7.91,7.91,0,0,0,11,8.91V16H4V14.65l5.41-2.4a1,1,0,0,0,.5-1.32,1,1,0,0,0-1.32-.51l-6,2.67A1,1,0,0,0,2,14v3a1,1,0,0,0,1,1H6v1a1,1,0,0,0,2,0V18h3v2.63a7.55,7.55,0,0,0,.05.83L7.4,24.2A1,1,0,0,0,7,25v4a1,1,0,0,0,.34.75A1,1,0,0,0,8,30h.12L16,29l7.88,1H24a1,1,0,0,0,.66-.25A1,1,0,0,0,25,29V25a1,1,0,0,0-.4-.8l-3.94-2.95a1,1,0,0,0-.59-.37,1,1,0,0,0-1.16.81,6,6,0,0,1-1.24,2.68L16,26.42l-1.67-2.05A6,6,0,0,1,13,20.63V8.91a5.89,5.89,0,0,1,2.28-4.66,1.17,1.17,0,0,1,1.44,0A5.89,5.89,0,0,1,19,8.91V10h0v7.79a1,1,0,0,0,1,1A1,1,0,0,0,21,18H24v1a1,1,0,0,0,2,0V18h3a1,1,0,0,0,1-1V14A1,1,0,0,0,29.41,13.09ZM19.22,25.63a8.23,8.23,0,0,0,1.2-2.07L23,25.5v2.37l-5.09-.64Zm-5.13,1.6L9,27.87V25.5l2.58-1.93a7.76,7.76,0,0,0,1.2,2.06ZM28,16H21V11.54l7,3.11Z"/></g></svg>