<svg xmlns="http://www.w3.org/2000/svg" viewBox="0 0 32 32"><defs><style>.cls-1{fill:#231f20;}</style></defs><g id="camera"><path class="cls-1" d="M26.74,9H25V7.63A2.63,2.63,0,0,0,22.38,5H18.63A2.63,2.63,0,0,0,16,7.63V9H8V8A1,1,0,0,0,6,8V9H5.26A3.26,3.26,0,0,0,2,12.26V23.74A3.26,3.26,0,0,0,5.26,27H21a1,1,0,0,0,0-2H5.26A1.25,1.25,0,0,1,4,23.74V12.26A1.25,1.25,0,0,1,5.26,11H17a1,1,0,0,0,1-1V7.63A.63.63,0,0,1,18.63,7h3.75a.63.63,0,0,1,.62.63V10a1,1,0,0,0,1,1h2.74A1.25,1.25,0,0,1,28,12.26V23.74A1.25,1.25,0,0,1,26.74,25H25a1,1,0,0,0,0,2h1.74A3.26,3.26,0,0,0,30,23.74V12.26A3.26,3.26,0,0,0,26.74,9Z"/><path class="cls-1" d="M17.82,21.56a4.05,4.05,0,0,1-5.68-2.49,1,1,0,0,0-1.23-.7,1,1,0,0,0-.69,1.23,5.41,5.41,0,0,0,.43,1.12,6,6,0,0,0,3.5,3A6.23,6.23,0,0,0,16,24a6,6,0,1,0-5.4-8.64,1,1,0,1,0,1.8.88,4,4,0,1,1,5.41,5.32Z"/><path class="cls-1" d="M25,14a1,1,0,0,0,0-2H24a1,1,0,0,0,0,2Z"/></g></svg>