<svg xmlns="http://www.w3.org/2000/svg" viewBox="0 0 32 32"><title>clock android app aplication phone</title><g id="clock_android_app_aplication_phone" data-name="clock android app aplication phone"><path d="M30.56,8.47a8,8,0,0,0-7-7,64.29,64.29,0,0,0-15.06,0,8,8,0,0,0-7,7,64.29,64.29,0,0,0,0,15.06,8,8,0,0,0,7,7,64.29,64.29,0,0,0,15.06,0,8,8,0,0,0,7-7A64.29,64.29,0,0,0,30.56,8.47ZM23.3,28.58A63,63,0,0,1,17,29V26a1,1,0,0,0-2,0v3a63,63,0,0,1-6.3-.39A6,6,0,0,1,3.42,23.3,63,63,0,0,1,3,17H6a1,1,0,0,0,0-2H3a63,63,0,0,1,.39-6.3A6,6,0,0,1,8.7,3.42,63,63,0,0,1,15,3V6a1,1,0,0,0,2,0V3a63,63,0,0,1,6.3.39A6,6,0,0,1,28.58,8.7,63,63,0,0,1,29,15H26a1,1,0,0,0,0,2h3a63,63,0,0,1-.39,6.3A6,6,0,0,1,23.3,28.58Z"/><path d="M16,9a1,1,0,0,0-1,1v5.67L12.2,19.4a1,1,0,1,0,1.6,1.2l3-4A1,1,0,0,0,17,16V10A1,1,0,0,0,16,9Z"/></g></svg>