<svg xmlns="http://www.w3.org/2000/svg" viewBox="0 0 32 32"><g id="toothbrush"><path d="M26,7a1,1,0,0,0-1,1v2.53c0,.27-.16.47-.3.47H22s0-.08,0-.12V4h2.7c.14,0,.3.2.3.47a1,1,0,0,0,2,0A2.39,2.39,0,0,0,24.7,2H21a1,1,0,0,0-1,1v7.88a6.12,6.12,0,0,0,1.79,4.33A4.13,4.13,0,0,1,23,18.12V29a1,1,0,0,0,2,0V18.12a6.12,6.12,0,0,0-1.79-4.33,3.83,3.83,0,0,1-.6-.79H24.7A2.39,2.39,0,0,0,27,10.53V8A1,1,0,0,0,26,7Z"/><path d="M15,7h-.18L14,2.8A1,1,0,0,0,13,2H9a1,1,0,0,0-1,.8L7.18,7H7A1,1,0,0,0,6,8l-.19,4a1,1,0,0,0,2,.1L8,9h6.1L15,28H7.05l.09-2H12a1,1,0,0,0,0-2H7.24l.38-7.95a1,1,0,0,0-1-1.05,1,1,0,0,0-1,.95L5,29a1,1,0,0,0,.28.74A1,1,0,0,0,6,30H16a1,1,0,0,0,.72-.31A1,1,0,0,0,17,29L16,8A1,1,0,0,0,15,7ZM9.22,7l.6-3h2.36l.6,3Z"/></g></svg>