<svg xmlns="http://www.w3.org/2000/svg" viewBox="0 0 32 32"><defs><style>.cls-1{fill:#231f20;}</style></defs><g id="seagull"><path class="cls-1" d="M20,6h0a1,1,0,1,0,1,1A1,1,0,0,0,20,6Z"/><path class="cls-1" d="M25,6h-.22A5.46,5.46,0,0,0,19,2a5.64,5.64,0,0,0-5,5.66V10H3a1,1,0,0,0-1,1,4.72,4.72,0,0,0,2.11,3.94l.91.61a6.92,6.92,0,0,0,3.09,5.34A13,13,0,0,0,12,22.59V24.1A5,5,0,0,0,8.1,28H7a1,1,0,0,0,0,2H24a1,1,0,0,0,0-2H22.9A5,5,0,0,0,19,24.1V22.32a12.88,12.88,0,0,0,3-1.53,7,7,0,0,0,2.94-4.88,5,5,0,0,0,4-3.91H29a1,1,0,0,0,1-1A5,5,0,0,0,25,6Zm2.83,4H25V8A3,3,0,0,1,27.83,10Zm-7,18H10.17A3,3,0,0,1,13,26h5A3,3,0,0,1,20.83,28ZM17,24H14V23c.44,0,.79.05,1,.05a12.09,12.09,0,0,0,2-.17Zm3.87-4.86A10.24,10.24,0,0,1,15,21a11.23,11.23,0,0,1-5.79-1.78A5,5,0,0,1,7,15a1,1,0,0,0-.45-.83l-1.33-.89a2.79,2.79,0,0,1-1-1.28H14.86c1.38.35,2.13,1.28,2.14,2a1.81,1.81,0,0,1-.64,1.22c-1.24,1-3.67,0-3.95-.14a5.73,5.73,0,0,1-2.12-1.7,1,1,0,1,0-1.58,1.22,7.56,7.56,0,0,0,2.88,2.3,8.4,8.4,0,0,0,3.3.77,4.2,4.2,0,0,0,2.75-.91A3.76,3.76,0,0,0,19,14a4.23,4.23,0,0,0-3-3.73V7.69A3.63,3.63,0,0,1,19.15,4a3.44,3.44,0,0,1,2.7.89A3.51,3.51,0,0,1,23,7.5V15A5,5,0,0,1,20.87,19.14ZM25,13.83V12h1.83A3,3,0,0,1,25,13.83Z"/></g></svg>