<svg xmlns="http://www.w3.org/2000/svg" viewBox="0 0 32 32"><g id="pen_tool" data-name="pen tool"><path d="M22.21,19.74a1,1,0,1,0,1.93.52l1.78-6.62a2.47,2.47,0,0,0-.53-2.26L17.8,2.81a2.34,2.34,0,0,0-1.44-.74,1,1,0,0,0-.72,0,2.34,2.34,0,0,0-1.44.74L6.61,11.38a2.47,2.47,0,0,0-.53,2.26L8.6,23A1.84,1.84,0,0,0,7,24.85v3.3A1.85,1.85,0,0,0,8.85,30H12a1,1,0,0,0,0-2H9V25H23v3H16a1,1,0,0,0,0,2h7.15A1.85,1.85,0,0,0,25,28.15v-3.3A1.85,1.85,0,0,0,23.15,23H10.67L8,13.13a.45.45,0,0,1,.09-.42L15,4.93v6.25a3,3,0,1,0,2,0V4.93l6.89,7.78a.45.45,0,0,1,.09.42ZM16,15a1,1,0,1,1,1-1A1,1,0,0,1,16,15Z"/></g></svg>