<svg xmlns="http://www.w3.org/2000/svg" viewBox="0 0 32 32"><g id="nano"><path d="M29,15a1,1,0,0,0,0-2H26V11h3a1,1,0,0,0,0-2H26V8.32A2.32,2.32,0,0,0,23.68,6H23V3a1,1,0,0,0-2,0V6H19V3a1,1,0,0,0-2,0V6H15V3a1,1,0,0,0-2,0V6H11V3A1,1,0,0,0,9,3V6H8.32A2.32,2.32,0,0,0,6,8.32V9H3a1,1,0,0,0,0,2H6v2H3a1,1,0,0,0,0,2H6v2H3a1,1,0,0,0,0,2H6v2H3a1,1,0,0,0,0,2H6v.68A2.32,2.32,0,0,0,8.32,26H9v3a1,1,0,0,0,2,0V26h2v3a1,1,0,0,0,2,0V26h2v3a1,1,0,0,0,2,0V26h2v3a1,1,0,0,0,2,0V26h.68A2.32,2.32,0,0,0,26,23.68V23h3a1,1,0,0,0,0-2H26V19h3a1,1,0,0,0,0-2H26V15Zm-5,8.68a.32.32,0,0,1-.32.32H8.32A.32.32,0,0,1,8,23.68V8.32A.32.32,0,0,1,8.32,8H23.68a.32.32,0,0,1,.32.32Z"/><path d="M16,11a5,5,0,0,0,0,10,4.82,4.82,0,0,0,1.25-.16,1,1,0,1,0-.5-1.93A3.14,3.14,0,0,1,16,19a3,3,0,1,1,3-3,3.14,3.14,0,0,1-.09.75,1,1,0,1,0,1.93.5A4.82,4.82,0,0,0,21,16,5,5,0,0,0,16,11Z"/></g></svg>