<?xml version="1.0" encoding="utf-8"?>
<!-- Generator: Adobe Illustrator 16.0.0, SVG Export Plug-In . SVG Version: 6.00 Build 0)  -->
<!DOCTYPE svg PUBLIC "-//W3C//DTD SVG 1.0//EN" "http://www.w3.org/TR/2001/REC-SVG-20010904/DTD/svg10.dtd">
<svg version="1.0" id="Layer_1" xmlns="http://www.w3.org/2000/svg" xmlns:xlink="http://www.w3.org/1999/xlink" x="0px" y="0px"
	 width="100px" height="100px" viewBox="0 0 100 100" enable-background="new 0 0 100 100" xml:space="preserve">
<path d="M60,10.001c-7.363,0-13.333,5.97-13.333,13.333c0,6.204,4.258,11.373,10,12.861v35.471c0,6.445-5.225,11.666-11.667,11.666
	c-6.445,0-11.667-5.221-11.667-11.666v-3.334H40L26.667,48.334v23.332c0,10.13,8.209,18.333,18.333,18.333
	s18.333-8.203,18.333-18.333V36.195c5.739-1.488,10-6.657,10-12.861C73.333,15.971,67.363,10.001,60,10.001z M60,30
	c-3.682,0-6.667-2.984-6.667-6.666s2.985-6.667,6.667-6.667s6.667,2.985,6.667,6.667S63.682,30,60,30z"/>
</svg>
