<svg xmlns="http://www.w3.org/2000/svg" viewBox="0 0 32 32"><g id="eco_light" data-name="eco light"><path d="M26,12A10,10,0,1,0,7.11,16.59a1,1,0,0,0,1.78-.92A7.92,7.92,0,0,1,8,12a8,8,0,1,1,11.84,7H17V15h0a1,1,0,0,0,0-.48v-.09a4.21,4.21,0,0,0,0-.71,2,2,0,0,1,.66-1.25A2.16,2.16,0,0,1,20,12.2a2.58,2.58,0,0,1-1.33,1.59,1,1,0,0,0,.43,1.9,1.11,1.11,0,0,0,.43-.09,4.58,4.58,0,0,0,2.56-3.84,1,1,0,0,0-.39-.87,4.26,4.26,0,0,0-5.25,0,3.15,3.15,0,0,0-.37.36,4.68,4.68,0,0,0-.39-.38,4.25,4.25,0,0,0-5.25,0,1,1,0,0,0-.4.87,4.61,4.61,0,0,0,2.57,3.83,4.45,4.45,0,0,0,1.89.42A4.56,4.56,0,0,0,15,16v3H11.58A1.58,1.58,0,0,0,10,20.58v4.84A1.58,1.58,0,0,0,11.58,27h.7l.62,1.85A1.66,1.66,0,0,0,14.49,30h3a1.66,1.66,0,0,0,1.59-1.15L19.72,27h.7A1.58,1.58,0,0,0,22,25.42V20.58a1.5,1.5,0,0,0-.1-.52A9.93,9.93,0,0,0,26,12ZM13.43,13.77a2.58,2.58,0,0,1-1.33-1.59,2.16,2.16,0,0,1,2.26.26A2,2,0,0,1,15,13.68a2.35,2.35,0,0,0,0,.26A2.46,2.46,0,0,1,13.43,13.77ZM12,21h7.67a.92.92,0,0,0,.33.06V22H12Zm5.28,7H14.72l-.33-1h3.22ZM20,25H12V24h8Z"/></g></svg>