<svg xmlns="http://www.w3.org/2000/svg" viewBox="0 0 32 32"><g id="element"><path d="M29,24a1,1,0,0,0-1,1v1a2,2,0,0,1-2,2H6a2,2,0,0,1-2-2V6A2,2,0,0,1,6,4H8A1,1,0,0,0,8,2H6A4,4,0,0,0,2,6V26a4,4,0,0,0,4,4H26a4,4,0,0,0,4-4V25A1,1,0,0,0,29,24Z"/><path d="M26,2H12a1,1,0,0,0,0,2H26a2,2,0,0,1,2,2V21a1,1,0,0,0,2,0V6A4,4,0,0,0,26,2Z"/><path d="M7,18a1,1,0,0,0,1,1H24a1,1,0,0,0,0-2H8A1,1,0,0,0,7,18Z"/><path d="M14.53,7.12A.32.32,0,0,0,14.32,7H12.86a.28.28,0,0,0-.2.08.3.3,0,0,0-.08.21v7.35a.27.27,0,0,0,.28.28h1.46a.32.32,0,0,0,.21-.08.27.27,0,0,0,.08-.2V11.86H17.4v2.82a.27.27,0,0,0,.08.2.28.28,0,0,0,.2.08h1.46a.28.28,0,0,0,.2-.08.32.32,0,0,0,.08-.2V7.33a.3.3,0,0,0-.08-.21.28.28,0,0,0-.2-.08H17.68a.28.28,0,0,0-.2.08.26.26,0,0,0-.08.21v2.72H14.61V7.33A.26.26,0,0,0,14.53,7.12Z"/><path d="M9.81,25.94a.18.18,0,0,0,.13.06h1.38a.18.18,0,0,0,.13-.06.16.16,0,0,0,.06-.13V21.29a.21.21,0,0,0-.19-.19H9.91l-.07,0L8.15,22.46a.2.2,0,0,0-.08.12.24.24,0,0,0,0,.15l.62.8a.2.2,0,0,0,.12.09.17.17,0,0,0,.14,0L9.76,23v2.83A.15.15,0,0,0,9.81,25.94Z"/><path d="M12.38,24.41a.15.15,0,0,0-.13.05.18.18,0,0,0-.06.13v1.22a.21.21,0,0,0,.19.19H13.6a.18.18,0,0,0,.13-.06.16.16,0,0,0,.06-.13V24.59a.18.18,0,0,0-.06-.13.17.17,0,0,0-.13-.05Z"/><path d="M18.16,21.53a2,2,0,0,0-.68-.36,2.93,2.93,0,0,0-1.79,0,2,2,0,0,0-.68.36,1.82,1.82,0,0,0-.44.56,2,2,0,0,0-.18.71c0,.13,0,.28,0,.47v.55c0,.18,0,.33,0,.46a2.06,2.06,0,0,0,.18.71,1.79,1.79,0,0,0,.42.57,2,2,0,0,0,.67.37,2.87,2.87,0,0,0,.92.14,2.93,2.93,0,0,0,.93-.14,2,2,0,0,0,.67-.37A1.79,1.79,0,0,0,18.6,25a2.06,2.06,0,0,0,.18-.71c0-.13,0-.28,0-.46v-.55c0-.19,0-.34,0-.47a2,2,0,0,0-.18-.71A1.82,1.82,0,0,0,18.16,21.53ZM17,23.79c0,.17,0,.32,0,.45a.56.56,0,0,1-.09.33.31.31,0,0,1-.29.13.31.31,0,0,1-.28-.13.76.76,0,0,1-.09-.33c0-.13,0-.28,0-.45a4.34,4.34,0,0,1,0-.51c0-.17,0-.32,0-.44a.8.8,0,0,1,.09-.32.31.31,0,0,1,.28-.14.33.33,0,0,1,.29.14.57.57,0,0,1,.09.32c0,.12,0,.27,0,.44Z"/><path d="M20.92,25.94a.16.16,0,0,0,.13.06h1.37a.18.18,0,0,0,.13-.06.16.16,0,0,0,.06-.13V21.29a.21.21,0,0,0-.19-.19H21l-.07,0-1.68,1.31a.18.18,0,0,0-.09.12.24.24,0,0,0,0,.15l.62.8a.22.22,0,0,0,.13.09.19.19,0,0,0,.14,0l.78-.61v2.83A.16.16,0,0,0,20.92,25.94Z"/><path d="M8.87,7.17H7.65l-.06,0L6.13,8.34a.16.16,0,0,0-.07.11.19.19,0,0,0,0,.13l.53.69a.21.21,0,0,0,.11.08.14.14,0,0,0,.12,0l.68-.52v2.44a.18.18,0,0,0,.05.12.15.15,0,0,0,.11,0H8.87a.15.15,0,0,0,.11,0,.18.18,0,0,0,0-.12V7.33a.17.17,0,0,0-.16-.16Z"/></g></svg>