<?xml version="1.0" encoding="utf-8"?>
<!-- Generator: Adobe Illustrator 16.0.0, SVG Export Plug-In . SVG Version: 6.00 Build 0)  -->
<!DOCTYPE svg PUBLIC "-//W3C//DTD SVG 1.0//EN" "http://www.w3.org/TR/2001/REC-SVG-20010904/DTD/svg10.dtd">
<svg version="1.0" id="Layer_1" xmlns="http://www.w3.org/2000/svg" xmlns:xlink="http://www.w3.org/1999/xlink" x="0px" y="0px"
	 width="100px" height="100px" viewBox="0 0 100 100" enable-background="new 0 0 100 100" xml:space="preserve">
<path d="M81.973,50c8.788-14.665,10.81-28.777,3.808-35.779C78.775,7.215,64.661,9.236,50,18.024
	C35.339,9.238,21.225,7.217,14.22,14.222c-7.002,7.002-4.98,21.118,3.806,35.777C9.239,64.662,7.215,78.775,14.22,85.781
	c7.005,7.002,21.119,4.98,35.78-3.806c14.665,8.789,28.775,10.808,35.78,3.806C92.782,78.775,90.765,64.665,81.973,50z
	 M74.029,16.657c3.154,0,5.521,0.768,7.035,2.28c3.974,3.974,2.796,13.689-3.2,24.822c-2.871-3.952-6.208-7.877-9.978-11.648
	c-3.778-3.778-7.714-7.119-11.673-9.997C62.663,18.627,68.877,16.657,74.029,16.657z M74.085,50
	c-2.952,4.378-6.589,8.851-10.914,13.177C58.972,67.379,54.489,71.021,50,74.056c-4.488-3.036-8.971-6.679-13.173-10.885
	c-4.32-4.319-7.953-8.782-10.901-13.156c3.063-4.541,6.744-9.033,10.897-13.19c4.206-4.202,8.685-7.843,13.177-10.882
	c4.486,3.039,8.968,6.68,13.171,10.882C67.496,41.151,71.133,45.621,74.085,50z M18.939,18.937c1.511-1.512,3.874-2.28,7.031-2.28
	c5.153,0,11.367,1.971,17.818,5.457c-3.964,2.877-7.899,6.219-11.679,9.997c-3.77,3.77-7.103,7.695-9.974,11.648
	C16.141,32.626,14.962,22.911,18.939,18.937z M25.971,83.34c-3.157,0-5.521-0.766-7.034-2.275
	c-2.815-2.816-3.024-8.912-0.563-16.305c0.922-2.754,2.221-5.612,3.773-8.499c2.867,3.944,6.2,7.86,9.964,11.626
	c3.782,3.779,7.715,7.123,11.679,10C37.338,81.373,31.127,83.34,25.971,83.34z M81.064,81.064c-1.514,1.51-3.877,2.278-7.035,2.278
	c-5.152,0-11.366-1.97-17.815-5.456c3.959-2.874,7.895-6.217,11.673-9.992c3.77-3.773,7.106-7.699,9.978-11.65
	C83.86,67.377,85.038,77.09,81.064,81.064z"/>
<path d="M50,36.667c-7.363,0-13.333,5.97-13.333,13.333c0,7.367,5.97,13.333,13.333,13.333c7.366,0,13.333-5.967,13.333-13.333
	C63.333,42.637,57.366,36.667,50,36.667z M50,56.667c-3.682,0-6.666-2.981-6.666-6.667c0-3.682,2.984-6.667,6.666-6.667
	c3.686,0,6.667,2.985,6.667,6.667C56.667,53.686,53.686,56.667,50,56.667z"/>
</svg>
