<?xml version="1.0" encoding="utf-8"?>
<!-- Generator: Adobe Illustrator 16.0.0, SVG Export Plug-In . SVG Version: 6.00 Build 0)  -->
<!DOCTYPE svg PUBLIC "-//W3C//DTD SVG 1.0//EN" "http://www.w3.org/TR/2001/REC-SVG-20010904/DTD/svg10.dtd">
<svg version="1.0" id="Layer_1" xmlns="http://www.w3.org/2000/svg" xmlns:xlink="http://www.w3.org/1999/xlink" x="0px" y="0px"
	 width="100px" height="100px" viewBox="0 0 100 100" enable-background="new 0 0 100 100" xml:space="preserve">
<path d="M80,16.666c0-3.682-2.985-6.667-6.667-6.667l-46.666,0.002c-3.682,0-6.667,2.984-6.667,6.666v20h6.667v53.334h46.666V36.667
	H80V16.666z M66.667,70.001h-20v-20h20V70.001z M66.667,43.334h-20c-3.682,0-6.667,2.985-6.667,6.667v20
	c0,3.682,2.988,6.666,6.667,6.666h20v6.667H33.333V36.667h33.334V43.334z M73.333,30.001H26.667V16.667h46.666V30.001z"/>
</svg>
