<svg xmlns="http://www.w3.org/2000/svg" viewBox="0 0 32 32"><g id="satelite"><path d="M25.42,14.08h0l3.19-2.46a1,1,0,0,0,.18-1.4L26.35,7h0L23.9,3.82a1,1,0,0,0-.66-.38,1,1,0,0,0-.74.2L19.32,6.09h0L16.13,8.55l-1.54-2a6.14,6.14,0,0,0-.7-2.4,7,7,0,0,0-1.43-1.87,1,1,0,0,0-1.29-.06L8.85,4a1,1,0,0,0,1.22,1.58l1.59-1.23a4.52,4.52,0,0,1,.46.71,4.84,4.84,0,0,1,.42,1.18L8.93,9l-.47.37a4.84,4.84,0,0,1-1-.71A4.27,4.27,0,0,1,6.88,8h0A1,1,0,0,0,5.66,6.45L4.94,7a1,1,0,0,0-.28,1.26,7,7,0,0,0,1.43,1.87,6.25,6.25,0,0,0,2.14,1.3l1.54,2L6.58,15.91h0L3.39,18.37a1,1,0,0,0-.18,1.4L5.65,23h0L8.1,26.16a1,1,0,0,0,.66.39h.13a1,1,0,0,0,.61-.21l6.37-4.91.62.8a4,4,0,0,0,2.66,1.54,4.58,4.58,0,0,0,.53,0,3.92,3.92,0,0,0,1.55-.33l1.43,1.87a3,3,0,0,0,.12,3.47,3,3,0,0,0,2,1.15,2.69,2.69,0,0,0,.4,0,3,3,0,0,0,.38-6,3.09,3.09,0,0,0-1.32.14l-1.42-1.87A2.92,2.92,0,0,0,23,22a1,1,0,0,0-.29-1.38,1,1,0,0,0-1.39.29,1.87,1.87,0,0,1-.46.51A2,2,0,0,1,18.07,21L12,13h0l-1.84-2.4,3.19-2.47,1.84,2.41h0L20,17h0l1.22,1.6a1,1,0,0,0,1.59-1.22l-.62-.81,3.19-2.45ZM25.17,26h.13a1,1,0,0,1,.67.38,1,1,0,0,1-.19,1.43A.94.94,0,0,1,25,28a1,1,0,0,1-.67-.39,1,1,0,0,1,.19-1.42A1,1,0,0,1,25.17,26ZM25,11.88l-1.23-1.61L25.37,9l1.23,1.61Zm-2.08-6,1.24,1.61L22.55,8.68,21.32,7.07ZM19.74,8.29,21,9.9l-2.4,1.85h0l-1.23-1.61Zm-7.53,8.36h0L9.81,18.5,8.58,16.89,11,15ZM7,18.11l1.23,1.61L6.63,21,5.4,19.35Zm2.08,6L7.84,22.54l1.61-1.23,1.23,1.61Zm3.18-2.45L11,20.09l2.4-1.85h0l1.23,1.61Zm7.53-8.36h0l2.39-1.84,1.23,1.61L21,15Z"/></g></svg>