<svg xmlns="http://www.w3.org/2000/svg" viewBox="0 0 32 32"><g id="sun"><path d="M16,11.5A5,5,0,0,1,19.54,13,5,5,0,0,1,21,16.22a1,1,0,0,0,1.05,1A1,1,0,0,0,23,16.11a7,7,0,1,0-2,5.34,6.49,6.49,0,0,0,.76-.89,1,1,0,1,0-1.63-1.16,5.38,5.38,0,0,1-.54.64A5,5,0,1,1,16,11.5Z"/><path d="M29.29,15.54l-1.21-.36a3,3,0,0,1-2-2,3,3,0,0,1,.47-2.82l.77-1a1,1,0,0,0,0-1.2,1,1,0,0,0-1.14-.35L25,8.26a2.91,2.91,0,0,1-2.75-.39A3,3,0,0,1,21,5.3L21,4a1,1,0,0,0-1.83-.59l-.71,1.05A3,3,0,0,1,16,5.81h0a3,3,0,0,1-2.48-1.32l-.71-1.05A1,1,0,0,0,11,4L11,5.3a3,3,0,0,1-.62,1.94A1,1,0,0,0,12,8.45a5,5,0,0,0,.85-1.76A5,5,0,0,0,16,7.81h0a5,5,0,0,0,3.15-1.12,5,5,0,0,0,5.1,3.74,5.08,5.08,0,0,0-.08,3.4,5,5,0,0,0,2,2.67,5,5,0,0,0-2,2.67,5.08,5.08,0,0,0,.08,3.4,5,5,0,0,0-5.1,3.74A5,5,0,0,0,16,25.19h0a5,5,0,0,0-3.15,1.12,5,5,0,0,0-1.92-2.8,4.94,4.94,0,0,0-3.18-.94,5.08,5.08,0,0,0,.08-3.4,5,5,0,0,0-2-2.67,5,5,0,0,0,2-2.67,5.08,5.08,0,0,0-.08-3.4,1,1,0,0,0,.25,0,1,1,0,0,0,0-2,2.88,2.88,0,0,1-1-.18L5.82,7.83a1,1,0,0,0-1.14.35,1,1,0,0,0,0,1.2l.77,1a3,3,0,0,1,.47,2.82,2.94,2.94,0,0,1-2,2l-1.21.36a1,1,0,0,0,0,1.92l1.21.36a2.94,2.94,0,0,1,2,2,3,3,0,0,1-.47,2.82l-.77,1a1,1,0,0,0,0,1.2,1,1,0,0,0,1.14.35L7,24.74a2.91,2.91,0,0,1,2.75.39A3,3,0,0,1,11,27.7L11,29a1,1,0,0,0,1.83.59l.71-1a3,3,0,0,1,5,0l.71,1A1,1,0,0,0,20,30a1,1,0,0,0,.3-.05,1,1,0,0,0,.7-1l0-1.27a3,3,0,0,1,1.26-2.57A2.91,2.91,0,0,1,25,24.74l1.19.43a1,1,0,0,0,1.14-.35,1,1,0,0,0,0-1.2l-.77-1a3,3,0,0,1-.47-2.82,3,3,0,0,1,2-2l1.21-.36a1,1,0,0,0,0-1.92Z"/></g></svg>