<svg xmlns="http://www.w3.org/2000/svg" viewBox="0 0 32 32"><title>medicine bottle</title><g id="medicine_bottle" data-name="medicine bottle"><path d="M23.69,11.78l-.88-.66A2.08,2.08,0,0,1,22,9.47V7.05s0,0,0,0,0,0,0,0V3a1,1,0,0,0-.29-.71A1,1,0,0,0,21,2H11a1,1,0,0,0-.71.29A1,1,0,0,0,10,3V9.48a2,2,0,0,1-.82,1.63l-.88.67A5.76,5.76,0,0,0,6,16.37V27.45A2.55,2.55,0,0,0,8.55,30h14.9A2.55,2.55,0,0,0,26,27.45V16.38A5.73,5.73,0,0,0,23.69,11.78ZM20,6H19V4h1ZM15,6V4h2V6ZM13,4V6H12V4ZM24,27.45a.55.55,0,0,1-.55.55H8.55A.55.55,0,0,1,8,27.45V16.37a3.75,3.75,0,0,1,1.5-3l.88-.67A4,4,0,0,0,12,9.48V8h8V9.47a4.08,4.08,0,0,0,1.63,3.25l.89.66a3.75,3.75,0,0,1,1.5,3ZM22,26v0a1,1,0,1,1-1-1A1,1,0,0,1,22,26Zm0-8v5a1,1,0,0,1-2,0V18a1,1,0,0,1,2,0Z"/></g></svg>