<svg width="32" height="32" xmlns="http://www.w3.org/2000/svg">
 <defs>
  <style>.cls-1{fill:#231f20;}</style>
 </defs>
 <g>
  <title>background</title>
  <rect fill="none" id="canvas_background" height="602" width="802" y="-1" x="-1"/>
 </g>
 <g>
  <title>Layer 1</title>
  <g id="shampoo">
   <path id="svg_1" d="m22.955732,18a1,1 0 0 0 -1,1l0,3l-10,0a1,1 0 0 0 0,2l10,0l0,3.59a0.41,0.41 0 0 1 -0.41,0.41l-11.18,0a0.41,0.41 0 0 1 -0.41,-0.41l0,-11.59s0,0 0,-0.05s0,0 0,0a3.91,3.91 0 0 1 3.9,-3.95l4.2,0a3.91,3.91 0 0 1 3.9,3.9a1,1 0 1 0 2,0a5.9,5.9 0 0 0 -4,-5.58l0,-0.94a2.39,2.39 0 0 0 -2.38,-2.38l-0.62,0l0,-2a1,1 0 0 0 0,-2l-3.78,0a1,1 0 0 0 -0.47,0.12l-1.88,1a1,1 0 1 0 0.93,1.76l1.67,-0.88l1.53,0l0,2l-0.62,0a2.39,2.39 0 0 0 -2.38,2.38l0,0.94a5.9,5.9 0 0 0 -4,5.58s0,0 0,0s0,0 0,0.05l0,11.64a2.41,2.41 0 0 0 2.41,2.41l11.18,0a2.41,2.41 0 0 0 2.41,-2.41l0,-8.59a1,1 0 0 0 -1,-1zm-9,-8.62a0.38,0.38 0 0 1 0.38,-0.38l3.24,0a0.38,0.38 0 0 1 0.38,0.38l0,0.62l-4,0l0,-0.62z" class="cls-1"/>
   <path id="svg_5" d="m13.955732,17a1,1 0 0 0 0,2l4,0a1,1 0 0 0 0,-2l-4,0z" class="cls-1"/>
  </g>
 </g>
</svg>