<svg xmlns="http://www.w3.org/2000/svg" viewBox="0 0 32 32"><defs><style>.cls-1{fill:#231f20;}</style></defs><g id="hat"><path class="cls-1" d="M25,16c-.43-5-4.28-9-9-9S7.47,11,7,16c-3.29.92-5,2.29-5,4C2,23.26,9,25,16,25s14-1.74,14-5.06C30,18.26,28.25,16.89,25,16Zm-9,7C8.24,23,4,21,4,19.94c0-.39.85-1.19,3-1.88a1,1,0,0,0,.52.82A18,18,0,0,0,16,21a18,18,0,0,0,4.24-.51c.34-.08.69-.18,1.05-.29A1,1,0,0,0,22,19a1,1,0,0,0-1.25-.67c-.33.1-.64.19-.94.26A16,16,0,0,1,9,17.39v-.5C9,12.54,12.14,9,16,9a7.11,7.11,0,0,1,6.54,5.09,22.73,22.73,0,0,1-10.37.65,1,1,0,1,0-.34,2,25.42,25.42,0,0,0,4.17.35,24.82,24.82,0,0,0,7-1,7.63,7.63,0,0,1,0,.84V18a1,1,0,0,0,2,.06c2.16.69,3,1.49,3,1.88C28,21,23.76,23,16,23Z"/></g></svg>