<svg xmlns="http://www.w3.org/2000/svg" viewBox="0 0 32 32"><defs><style>.cls-1{fill:#231f20;}</style></defs><g id="squid"><path class="cls-1" d="M27.5,17A2.5,2.5,0,0,0,25,19.5V20a1,1,0,0,1-1.87.5,1,1,0,0,0-1.36-.37,1,1,0,0,0-.37,1.37A3,3,0,0,0,27,20v-.5a.5.5,0,0,1,1,0v.79A3.72,3.72,0,0,1,24.29,24a4.21,4.21,0,0,1-3.6-2.09L20,20.73V19a4,4,0,0,0,.5.05A3.5,3.5,0,0,0,24,15.5a.77.77,0,0,0,0-.15,5.46,5.46,0,0,0,1-4.49,9.74,9.74,0,0,0-3.32-6.64A9.73,9.73,0,0,0,16.24,2h-.57a9.75,9.75,0,0,0-5.34,2.22A9.74,9.74,0,0,0,7,10.86a5.46,5.46,0,0,0,1,4.49.77.77,0,0,0,0,.15A3.48,3.48,0,0,0,9,18S9,18,9,18v2a1,1,0,0,1-2,0v-.5a2.5,2.5,0,0,0-5,0v.79A5.72,5.72,0,0,0,7.72,26a6.2,6.2,0,0,0,3.62-1.19,6.27,6.27,0,0,0,.66-.6V27.5a2.5,2.5,0,0,0,4,2,2.5,2.5,0,0,0,4-2V24.24A6.24,6.24,0,0,0,24.29,26,5.71,5.71,0,0,0,30,20.29V19.5A2.5,2.5,0,0,0,27.5,17Zm-7,0A1.5,1.5,0,1,1,22,15.5,1.5,1.5,0,0,1,20.5,17Zm-9,0A1.5,1.5,0,1,1,13,15.5,1.5,1.5,0,0,1,11.5,17Zm-.19,4.91a4,4,0,0,1-1.15,1.28A4.07,4.07,0,0,1,7.71,24,3.72,3.72,0,0,1,4,20.29V19.5a.5.5,0,0,1,1,0V20a3,3,0,0,0,6,0V19a4,4,0,0,0,.5.05A4,4,0,0,0,12,19v1.78ZM18,27.5a.5.5,0,0,1-1,0V20a1,1,0,0,0-2,0v7.5a.5.5,0,0,1-1,0V18s0,0,0-.05A3.49,3.49,0,0,0,11.5,12,3.52,3.52,0,0,0,9,13,2,2,0,0,1,9,12.78a3.43,3.43,0,0,1,0-1.56c0-.05,0-.1,0-.15a7.85,7.85,0,0,1,2.63-5.33A7.62,7.62,0,0,1,15.76,4h.39a7.59,7.59,0,0,1,4.22,1.74A7.85,7.85,0,0,1,23,11.07s0,.1,0,.15a3.42,3.42,0,0,1,0,1.56A2,2,0,0,1,23,13a3.5,3.5,0,0,0-6,2.49A3.48,3.48,0,0,0,18,18s0,0,0,.05Z"/><path class="cls-1" d="M11.5,14.5a1,1,0,1,0,1,1A1,1,0,0,0,11.5,14.5Zm0,1Z"/><path class="cls-1" d="M20.5,14.5a1,1,0,1,0,1,1A1,1,0,0,0,20.5,14.5Zm0,1Z"/></g></svg>