<?xml version="1.0" encoding="utf-8"?>
<!-- Generator: Adobe Illustrator 16.0.0, SVG Export Plug-In . SVG Version: 6.00 Build 0)  -->
<!DOCTYPE svg PUBLIC "-//W3C//DTD SVG 1.0//EN" "http://www.w3.org/TR/2001/REC-SVG-20010904/DTD/svg10.dtd">
<svg version="1.0" id="Layer_1" xmlns="http://www.w3.org/2000/svg" xmlns:xlink="http://www.w3.org/1999/xlink" x="0px" y="0px"
	 width="100px" height="100px" viewBox="0 0 100 100" enable-background="new 0 0 100 100" xml:space="preserve">
<path d="M90,50c0-4.997-4.817-9.343-11.931-11.628c3.415-6.647,3.747-13.125,0.215-16.66c-3.531-3.528-10.013-3.196-16.656,0.215
	C59.343,14.814,54.993,10,50,10s-9.343,4.814-11.628,11.927c-6.646-3.415-13.125-3.743-16.656-0.215
	c-3.532,3.535-3.2,10.013,0.215,16.66C14.817,40.657,10,45.003,10,50c0,4.993,4.814,9.342,11.931,11.627
	c-3.415,6.641-3.747,13.125-0.215,16.654c3.531,3.535,10.01,3.203,16.656-0.215C40.657,85.182,45.007,90,50,90
	s9.343-4.818,11.628-11.934c6.644,3.418,13.125,3.75,16.656,0.215c3.532-3.529,3.2-10.014-0.215-16.654
	C85.183,59.342,90,54.993,90,50z M74.265,55.774c-1.101,0.267-2.279,0.495-3.568,0.651c-0.394,1.27-0.914,2.493-1.526,3.652
	c0.808,1.021,1.481,2.018,2.07,2.994c3.147,5.215,3.33,9.492,2.331,10.495c-1.003,1.003-5.283,0.82-10.498-2.331
	c-0.974-0.586-1.97-1.263-2.992-2.07c-1.162,0.612-2.383,1.133-3.655,1.53c-0.153,1.289-0.381,2.468-0.651,3.567
	c-1.461,5.912-4.358,9.069-5.774,9.069s-4.31-3.157-5.774-9.069c-0.271-1.1-0.498-2.278-0.651-3.567
	c-1.272-0.397-2.493-0.918-3.652-1.53c-1.025,0.808-2.024,1.484-2.995,2.07c-5.215,3.151-9.498,3.334-10.498,2.331
	c-0.999-1.003-0.816-5.28,2.331-10.495c0.589-0.977,1.263-1.973,2.07-2.994c-0.615-1.159-1.133-2.383-1.526-3.652
	c-1.289-0.156-2.468-0.385-3.568-0.651c-5.911-1.465-9.068-4.362-9.068-5.774c0-1.42,3.157-4.313,9.068-5.775
	c1.101-0.273,2.279-0.501,3.568-0.65c0.394-1.276,0.911-2.494,1.526-3.656c-0.808-1.025-1.481-2.021-2.07-2.991
	c-3.147-5.218-3.33-9.499-2.331-10.501c1-0.996,5.283-0.814,10.498,2.33c0.971,0.59,1.97,1.264,2.995,2.07
	c1.159-0.611,2.376-1.133,3.652-1.523c0.153-1.289,0.381-2.467,0.651-3.567c1.461-5.915,4.358-9.069,5.774-9.069
	s4.313,3.154,5.774,9.069c0.271,1.101,0.498,2.278,0.651,3.567c1.272,0.391,2.493,0.912,3.655,1.523
	c1.022-0.807,2.019-1.48,2.992-2.07c5.215-3.145,9.495-3.326,10.498-2.33c0.999,1.002,0.816,5.283-2.331,10.501
	c-0.589,0.97-1.263,1.966-2.07,2.991c0.612,1.162,1.133,2.38,1.526,3.656c1.289,0.149,2.468,0.377,3.568,0.65
	c5.914,1.462,9.068,4.355,9.068,5.775C83.333,51.412,80.179,54.31,74.265,55.774z"/>
<path d="M50,35c-8.284,0-15,6.712-15,15c0,8.281,6.716,15,15,15c8.281,0,15-6.719,15-15C65,41.712,58.281,35,50,35z M50,58.333
	c-4.603,0-8.333-3.737-8.333-8.333c0-4.604,3.73-8.334,8.333-8.334c4.6,0,8.333,3.73,8.333,8.334
	C58.333,54.596,54.6,58.333,50,58.333z"/>
</svg>
