<svg xmlns="http://www.w3.org/2000/svg" viewBox="0 0 32 32"><defs><style>.cls-1{fill:#231f20;}</style></defs><g id="mortarboard"><path class="cls-1" d="M29.36,8.07l-13-5a1,1,0,0,0-.72,0l-4,1.54a1,1,0,0,0,.72,1.86L16,5.07,26.21,9,24,9.86A1,1,0,0,0,23,9H19a1,1,0,0,0,0,2h2l-5,1.93L5.79,9,8.36,8a1,1,0,0,0-.72-1.87l-5,1.93a1,1,0,0,0,0,1.86L5,10.85A.8.8,0,0,0,5,11v6a1,1,0,0,0,.45.83A19.38,19.38,0,0,0,16,21a19.29,19.29,0,0,0,4.22-.47,1,1,0,1,0-.44-2A17.17,17.17,0,0,1,16,19a17.4,17.4,0,0,1-9-2.55V11.61l8.64,3.32a1,1,0,0,0,.72,0L22,12.76v9.42A3,3,0,0,0,20,25v3a1,1,0,0,0,1,1h4a1,1,0,0,0,1-1V25a3,3,0,0,0-2-2.82v-3h0a1,1,0,0,0,.44-.1,18.29,18.29,0,0,0,2.11-1.21A1,1,0,0,0,27,17V11a.8.8,0,0,0,0-.15l2.39-.92a1,1,0,0,0,0-1.86ZM24,27H22V25a1,1,0,0,1,2,0Zm1-10.55c-.32.2-.66.37-1,.55V12l1-.38Z"/></g></svg>