<svg width="32" height="32" xmlns="http://www.w3.org/2000/svg">
 <g>
  <title>background</title>
  <rect x="-1" y="-1" width="3.999959" height="3.999959" id="canvas_background" fill="none"/>
 </g>

 <g>
  <title>Layer 1</title>
  <g id="space_gun">
   <path d="m20.407036,11l0,-2.5a2.5,2.5 0 0 0 -2.5,-2.5a2.47,2.47 0 0 0 -2,1l-8.44,-0.64a5.62,5.62 0 0 0 -3.3,0.78a1,1 0 1 0 1,1.72a3.59,3.59 0 0 1 2.13,-0.51l8.11,0.58l0,1.07l-3,0a1,1 0 0 0 0,2l3,0l0,3.07l-8.08,0.58a3.7,3.7 0 0 1 -2.76,-1a3.59,3.59 0 0 1 -1.16,-2.65a4.15,4.15 0 0 1 0.08,-0.79a1,1 0 0 0 -0.76,-1.21a1,1 0 0 0 -1.19,0.77a5.41,5.41 0 0 0 -0.13,1.23a5.71,5.71 0 0 0 1.8,4.14a5.68,5.68 0 0 0 3.2,1.45l0,5.41a3,3 0 0 0 6,0l0,-1a1,1 0 0 0 -2,0l0,1a1,1 0 0 1 -2,0l0,-5.43l2,-0.14l0,1.57a1,1 0 0 0 2,0l0,-1.71l3.54,-0.29a2.47,2.47 0 0 0 2,1a2.5,2.5 0 0 0 2.46,-2.5l0,-2.5l0,-2zm-2,4.5a0.5,0.5 0 0 1 -1,0l0,-7a0.5,0.5 0 0 1 1,0l0,7z" id="svg_1"/>
   <path d="m10.407036,11a1,1 0 0 0 -1,-1l0,0a1,1 0 1 0 1,1z" id="svg_2"/>
   <path d="m10.407036,11a1,1 0 0 0 -1,-1l0,0a1,1 0 1 0 1,1z" id="svg_8"/>
  </g>
  <path stroke="null" id="svg_3" d="m18.518321,13.010638l11.33,0a1,1 0 0 0 0,-2l-11.33,0l0,2z"/>
 </g>
</svg>