<svg xmlns="http://www.w3.org/2000/svg" viewBox="0 0 32 32"><g id="traffic_light" data-name="traffic light"><path d="M16,6a3,3,0,1,0,3,3A3,3,0,0,0,16,6Zm0,4a1,1,0,1,1,1-1A1,1,0,0,1,16,10Z"/><path d="M16,13a3,3,0,1,0,3,3A3,3,0,0,0,16,13Zm0,4a1,1,0,1,1,1-1A1,1,0,0,1,16,17Z"/><path d="M16,20a3,3,0,0,0,0,6,1,1,0,0,0,0-2,1,1,0,1,1,.87-1.5,1,1,0,0,0,1.36.36,1,1,0,0,0,.37-1.36A3,3,0,0,0,16,20Z"/><path d="M27.52,15.9A1.7,1.7,0,0,0,26.31,13H23V7h2.59l-1.3,1.29a1,1,0,0,0,0,1.42,1,1,0,0,0,1.42,0L27.52,7.9A1.7,1.7,0,0,0,26.31,5H23V4.82A2.83,2.83,0,0,0,20.18,2H11.82A2.83,2.83,0,0,0,9,4.82V5H5.69A1.7,1.7,0,0,0,4.48,7.9L9,12.41V13H5.69a1.7,1.7,0,0,0-1.21,2.9L9,20.41V21H5.69a1.7,1.7,0,0,0-1.21,2.9l4.81,4.81a1.19,1.19,0,0,0,.33.22A2.81,2.81,0,0,0,11.82,30h8.36a2.81,2.81,0,0,0,2.2-1.07,1.19,1.19,0,0,0,.33-.22l4.81-4.81A1.7,1.7,0,0,0,26.31,21H23v-.59ZM25.59,15,23,17.59V15ZM6.41,7H9V9.59Zm0,8H9v2.59ZM9,23v2.59L6.41,23Zm11.18,5H11.82a.82.82,0,0,1-.82-.82V4.82A.82.82,0,0,1,11.82,4h8.36a.82.82,0,0,1,.82.82V27.18A.82.82,0,0,1,20.18,28Zm5.41-5L23,25.59V23Z"/></g></svg>