<svg xmlns="http://www.w3.org/2000/svg" viewBox="0 0 32 32"><g id="flashlight"><path d="M23.06,9a2,2,0,0,0-1.74-1H10.68A2,2,0,0,0,8.94,9a2.05,2.05,0,0,0-.09,2l1.85,3.69a2.79,2.79,0,0,1,.3,1.27V26.58A3.43,3.43,0,0,0,14.42,30h3.16A3.43,3.43,0,0,0,21,26.58V15.91a2.79,2.79,0,0,1,.3-1.27L23.15,11A2.05,2.05,0,0,0,23.06,9Zm-3.55,4.77A4.94,4.94,0,0,0,19,15.91V26.58A1.43,1.43,0,0,1,17.58,28H14.42A1.43,1.43,0,0,1,13,26.58V15.91a4.94,4.94,0,0,0-.51-2.17L10.68,10l10.68.05Z"/><path d="M16,20a1,1,0,0,0,1-1V16a1,1,0,0,0-2,0v3A1,1,0,0,0,16,20Z"/><path d="M10,7H22a1,1,0,0,0,1-1V5.88A3.88,3.88,0,0,0,19.12,2H12.88A3.88,3.88,0,0,0,9,5.88V6A1,1,0,0,0,10,7Zm2.88-3h6.24a1.89,1.89,0,0,1,1.66,1H11.22A1.89,1.89,0,0,1,12.88,4Z"/></g></svg>