<svg xmlns="http://www.w3.org/2000/svg" viewBox="0 0 32 32"><defs><style>.cls-1{fill:#231f20;}</style></defs><g id="glasses"><path class="cls-1" d="M30,11.32a1,1,0,1,0-1.9-.64l-.57,1.71A2.93,2.93,0,0,0,26,12H20a3,3,0,0,0-2.79,2H14.83A3,3,0,0,0,12,12H6a2.93,2.93,0,0,0-1.44.39L4,10.68a1,1,0,0,0-1.9.64l1,3,0,0A2.56,2.56,0,0,0,3,15v1a6,6,0,0,0,12,0h2a6,6,0,0,0,12,0V15a2.56,2.56,0,0,0-.07-.62l0,0ZM13,16a4,4,0,0,1-8,0V15a1,1,0,0,1,1-1H12a1,1,0,0,1,1,1Zm14,0a4,4,0,0,1-8,0V15a1,1,0,0,1,1-1H26a1,1,0,0,1,1,1Z"/></g></svg>