<svg xmlns="http://www.w3.org/2000/svg" viewBox="0 0 32 32"><g id="speedometer"><path d="M30,15a1,1,0,0,0-.07-.34,14,14,0,0,0-27.86,0A.88.88,0,0,0,2,15a1.42,1.42,0,0,0,0,.2c0,.27,0,.53,0,.8A14,14,0,0,0,23.54,27.8a1,1,0,0,0-1.08-1.69A12,12,0,0,1,7.38,24.33a17.15,17.15,0,0,1,18.07.5A.94.94,0,0,0,26,25l.17,0a1,1,0,0,0,.87-.36A13.92,13.92,0,0,0,30,16c0-.27,0-.53,0-.8A1.42,1.42,0,0,0,30,15Zm-4.1,7.78A19.48,19.48,0,0,0,16,20a19.34,19.34,0,0,0-9.9,2.76A11.9,11.9,0,0,1,4,16H6a1,1,0,0,0,0-2H4.18A11.94,11.94,0,0,1,6.85,8.26L8.29,9.71a1,1,0,0,0,1.42,0,1,1,0,0,0,0-1.42L8.26,6.85A11.9,11.9,0,0,1,15,4.05V6a1,1,0,0,0,2,0V4.05a11.9,11.9,0,0,1,6.74,2.8L22.29,8.29a1,1,0,0,0,0,1.42,1,1,0,0,0,1.42,0l1.44-1.45A11.94,11.94,0,0,1,27.82,14H26a1,1,0,0,0,0,2h2A11.92,11.92,0,0,1,25.9,22.78Z"/><path d="M17,13.18V9a1,1,0,0,0-2,0v5a1,1,0,0,0,1,1,1,1,0,1,1-1,1,1,1,0,0,0-2,0,3,3,0,1,0,4-2.82Z"/></g></svg>