<svg xmlns="http://www.w3.org/2000/svg" viewBox="0 0 32 32"><defs><style>.cls-1{fill:#231f20;}</style></defs><g id="ruler"><path class="cls-1" d="M29,7.63a2.28,2.28,0,0,0-.79-1.58L24.09,2.54a2.34,2.34,0,0,0-3.27.24L18.61,5.35a1,1,0,1,0,1.52,1.3l2.21-2.56A.27.27,0,0,1,22.55,4a.32.32,0,0,1,.23.08l4.07,3.5a.35.35,0,0,1,.11.22.34.34,0,0,1-.08.23l-1.1,1.27L24.27,8A1,1,0,0,0,23,9.49l1.52,1.31-.66.76h0l-.76-.66a1,1,0,0,0-1.3,1.52l.76.65h0l-.66.76-1.51-1.31A1,1,0,0,0,19,14l1.52,1.3-.66.76h0l-.75-.65A1,1,0,1,0,17.84,17l.76.65h0l-.65.76-1.52-1.3a1,1,0,1,0-1.3,1.51l1.51,1.31-.65.75h0L15.23,20a1,1,0,0,0-1.31,1.52l.76.65h0l-.65.76-1.52-1.31a1,1,0,1,0-1.3,1.52l1.51,1.3-.65.76h0l-.76-.65A1,1,0,1,0,10,26.05l.75.65h0L9.66,28a.3.3,0,0,1-.44,0l-4.07-3.5A.35.35,0,0,1,5,24.29a.34.34,0,0,1,.08-.23L17.76,9.4a1,1,0,0,0-1.52-1.3L3.6,22.76a2.27,2.27,0,0,0-.55,1.68A2.3,2.3,0,0,0,3.84,26l4.07,3.51a2.35,2.35,0,0,0,1.51.56h.17a2.33,2.33,0,0,0,1.59-.79l11.54-13.4h0L28.4,9.31A2.27,2.27,0,0,0,29,7.63Z"/></g></svg>