<?xml version="1.0" encoding="utf-8"?>
<!-- Generator: Adobe Illustrator 16.0.0, SVG Export Plug-In . SVG Version: 6.00 Build 0)  -->
<!DOCTYPE svg PUBLIC "-//W3C//DTD SVG 1.0//EN" "http://www.w3.org/TR/2001/REC-SVG-20010904/DTD/svg10.dtd">
<svg version="1.0" id="Layer_1" xmlns="http://www.w3.org/2000/svg" xmlns:xlink="http://www.w3.org/1999/xlink" x="0px" y="0px"
	 width="100px" height="100px" viewBox="0 0 100 100" enable-background="new 0 0 100 100" xml:space="preserve">
<path d="M63.333,52.691c0-4.934-2.711-9.195-6.692-11.5c5.817-10.072,13.347-23.116,13.347-23.116
	C64.102,14.671,57.288,12.692,50,12.692s-14.102,1.979-19.987,5.388l13.347,23.112c-3.984,2.308-6.692,6.565-6.692,11.5H10
	c0,14.803,8.06,27.695,20.013,34.617c0,0,7.533-13.045,13.347-23.115c1.963,1.133,4.212,1.832,6.641,1.832s4.678-0.699,6.638-1.832
	l13.346,23.115C81.937,80.391,90,67.496,90,52.691H63.333z M27.917,77.611c-5.395-4.793-9.115-11.215-10.566-18.252h21.1
	C35.059,65.24,30.866,72.504,27.917,77.611z M39.45,21.09c3.395-1.139,6.963-1.731,10.55-1.731s7.151,0.589,10.547,1.731
	C57.598,26.198,53.398,33.473,50,39.362L39.45,21.09z M50,59.359c-3.682,0-6.667-2.982-6.667-6.668c0-3.684,2.985-6.666,6.667-6.666
	s6.667,2.981,6.667,6.666C56.667,56.377,53.682,59.359,50,59.359z M72.083,77.611L61.546,59.359h21.104
	C81.194,66.396,77.478,72.822,72.083,77.611z"/>
</svg>
