<svg xmlns="http://www.w3.org/2000/svg" viewBox="0 0 32 32"><title>7-Digital Clock</title><g id="_7-Digital_Clock" data-name="7-Digital Clock"><path d="M31,8H1A1,1,0,0,0,0,9V21a1,1,0,0,0,1,1H2.26A1.91,1.91,0,0,0,4,23v2a1,1,0,0,0,1,1H8a1,1,0,0,0,1-1V23H23v2a1,1,0,0,0,1,1h3a1,1,0,0,0,1-1V23a2,2,0,0,0,1.74-1H31a1,1,0,0,0,1-1V9A1,1,0,0,0,31,8ZM7,24H6V23H7Zm19,0H25V23h1Zm4-4H2V10H30Z"/><path d="M5,18H27a1,1,0,0,0,1-1V13a1,1,0,0,0-1-1H5a1,1,0,0,0-1,1v4A1,1,0,0,0,5,18Zm19-4h2v2H24Zm-4,0h2v2H20Zm-6,0h2v2H14Zm-4,0h2v2H10Z"/></g></svg>