<svg xmlns="http://www.w3.org/2000/svg" viewBox="0 0 32 32"><g id="yin_yang" data-name="yin yang"><path d="M16,2A14,14,0,0,0,3.58,9.54a1,1,0,1,0,1.77.92A12,12,0,0,1,9.61,5.84,7.52,7.52,0,0,0,9,11.29a8.07,8.07,0,0,0,5.29,5.13c.39.14.8.29,1.27.5,1.06.46,4.31,1.89,5.49,4.49a7.08,7.08,0,0,1,0,5.27.78.78,0,0,0,0,.22A12,12,0,0,1,4,16a12.7,12.7,0,0,1,.14-1.85A1,1,0,0,0,3.31,13a1,1,0,0,0-1.15.84A15.44,15.44,0,0,0,2,16a14,14,0,0,0,26.42,6.46,1,1,0,1,0-1.77-.92,12,12,0,0,1-3.23,3.89,8.28,8.28,0,0,0-.51-4.84c-1.5-3.3-5.27-5-6.51-5.51-.51-.22-1-.39-1.38-.54a6,6,0,0,1-2.35-1.28A5.84,5.84,0,0,1,11,10.71c-.93-3,1.67-5.92,1.78-6a1,1,0,0,0,.16-.26A11.82,11.82,0,0,1,16,4,12,12,0,0,1,28,16a12.7,12.7,0,0,1-.14,1.85A1,1,0,0,0,28.69,19h.16a1,1,0,0,0,1-.85A15.44,15.44,0,0,0,30,16,14,14,0,0,0,16,2Z"/><path d="M19,23.5A3.5,3.5,0,1,0,15.5,27,3.5,3.5,0,0,0,19,23.5Zm-5,0A1.5,1.5,0,1,1,15.5,25,1.5,1.5,0,0,1,14,23.5Z"/><path d="M12,8.5A3.5,3.5,0,1,0,15.5,5,3.5,3.5,0,0,0,12,8.5Zm5,0A1.5,1.5,0,1,1,15.5,7,1.5,1.5,0,0,1,17,8.5Z"/></g></svg>