<svg xmlns="http://www.w3.org/2000/svg" viewBox="0 0 32 32"><g id="mist"><path d="M28.42,4H22.67a2.1,2.1,0,0,0-1.79-1H20a1,1,0,0,0,0,2h.88a.12.12,0,0,1,.12.12V8.88a.12.12,0,0,1-.12.12H11.12A.12.12,0,0,1,11,8.88V5.12A.12.12,0,0,1,11.12,5H16a1,1,0,0,0,0-2H11.12A2.13,2.13,0,0,0,9.29,4.06.94.94,0,0,0,9,4H3.58A1.58,1.58,0,0,0,2,5.58V8.42A1.58,1.58,0,0,0,3.58,10H6A1,1,0,0,0,6,8H4V6H9V8.88A2.12,2.12,0,0,0,11.12,11H12v2a1,1,0,0,0,0,2h1v3.22A4.5,4.5,0,0,0,10.22,21H9a4,4,0,0,0,0,8h3a1,1,0,0,0,0-2H9a2,2,0,0,1,0-4h2a1,1,0,0,0,1-.86,2.46,2.46,0,0,1,.72-1.43A2.53,2.53,0,0,1,14.14,20,1,1,0,0,0,15,19V15h2v4a1,1,0,0,0,.86,1,2.46,2.46,0,0,1,1.43.72A2.53,2.53,0,0,1,20,22.14,1,1,0,0,0,21,23h2a2,2,0,0,1,0,4H16a1,1,0,0,0,0,2h7a4,4,0,0,0,0-8H21.78A4.5,4.5,0,0,0,19,18.22V15h1a1,1,0,0,0,0-2V11h.88a2.1,2.1,0,0,0,1.79-1h5.75A1.58,1.58,0,0,0,30,8.42V5.58A1.58,1.58,0,0,0,28.42,4ZM18,13H14V11h4ZM28,8H23V6h5Z"/></g></svg>