<?xml version="1.0" encoding="utf-8"?>
<!-- Generator: Adobe Illustrator 16.0.0, SVG Export Plug-In . SVG Version: 6.00 Build 0)  -->
<!DOCTYPE svg PUBLIC "-//W3C//DTD SVG 1.0//EN" "http://www.w3.org/TR/2001/REC-SVG-20010904/DTD/svg10.dtd">
<svg version="1.0" id="Layer_1" xmlns="http://www.w3.org/2000/svg" xmlns:xlink="http://www.w3.org/1999/xlink" x="0px" y="0px"
	 width="100px" height="100px" viewBox="0 0 100 100" enable-background="new 0 0 100 100" xml:space="preserve">
<polygon points="65.918,40 59.251,60 70,60 70,40 "/>
<polygon points="23.333,40 23.333,60 27.415,60 34.082,40 "/>
<path d="M83.333,40v-6.667c0-3.665-3.001-6.666-6.666-6.666h-60c-3.666,0-6.667,3.001-6.667,6.666v33.334
	c0,3.665,3.001,6.666,6.667,6.666h60c3.665,0,6.666-3.001,6.666-6.666V60L90,56.667V43.333L83.333,40z M16.667,66.667V33.333h26.666
	l-6.666,20h10.748l-4.443,13.334H16.667z M76.667,66.667H50l6.667-20H45.918l4.443-13.334h26.306V66.667z"/>
</svg>
