<svg xmlns="http://www.w3.org/2000/svg" viewBox="0 0 32 32"><title>location android app aplication phone</title><g id="location_android_app_aplication_phone" data-name="location android app aplication phone"><path d="M30.56,8.47a8,8,0,0,0-7-7,64.29,64.29,0,0,0-15.06,0,8,8,0,0,0-7,7,64.29,64.29,0,0,0,0,15.06,8,8,0,0,0,7,7,64.29,64.29,0,0,0,15.06,0,8,8,0,0,0,7-7A64.29,64.29,0,0,0,30.56,8.47Zm-2,.23A63,63,0,0,1,29,15h-4A9,9,0,0,0,17,7.06V3a63,63,0,0,1,6.3.39A6,6,0,0,1,28.58,8.7ZM20,17h2.92A7,7,0,0,1,17,22.92V20a1,1,0,0,0-2,0v2.92A7,7,0,0,1,9.08,17H12a1,1,0,0,0,0-2H9.08A7,7,0,0,1,15,9.08V12a1,1,0,0,0,2,0V9.08A7,7,0,0,1,22.92,15H20a1,1,0,0,0,0,2ZM8.7,3.42A63,63,0,0,1,15,3v4A9,9,0,0,0,7.06,15H3a63,63,0,0,1,.39-6.3A6,6,0,0,1,8.7,3.42ZM3.42,23.3A63,63,0,0,1,3,17h4A9,9,0,0,0,15,24.94v4a63,63,0,0,1-6.3-.39A6,6,0,0,1,3.42,23.3ZM23.3,28.58A63,63,0,0,1,17,29v-4A9,9,0,0,0,24.94,17h4a63,63,0,0,1-.39,6.3A6,6,0,0,1,23.3,28.58Z"/></g></svg>