<svg xmlns="http://www.w3.org/2000/svg" viewBox="0 0 32 32"><title>cog android app aplication phone</title><g id="cog_android_app_aplication_phone" data-name="cog android app aplication phone"><path d="M30.56,8.47a8,8,0,0,0-7-7,64.29,64.29,0,0,0-15.06,0,8,8,0,0,0-7,7,64.29,64.29,0,0,0,0,15.06,8,8,0,0,0,7,7,64.29,64.29,0,0,0,15.06,0,8,8,0,0,0,7-7A64.29,64.29,0,0,0,30.56,8.47Zm-2,14.83a6,6,0,0,1-5.28,5.28,63.65,63.65,0,0,1-14.6,0A6,6,0,0,1,3.42,23.3a63.65,63.65,0,0,1,0-14.6A6,6,0,0,1,8.7,3.42a63.65,63.65,0,0,1,14.6,0A6,6,0,0,1,28.58,8.7,63.65,63.65,0,0,1,28.58,23.3Z"/><path d="M15.24,13.83,14.43,13a4.17,4.17,0,0,0,.43-1H16a1,1,0,0,0,0-2H14.86a4.17,4.17,0,0,0-.43-1l.81-.81a1,1,0,0,0-1.41-1.41L13,7.57a4.17,4.17,0,0,0-1-.43V6a1,1,0,0,0-2,0V7.14a4.17,4.17,0,0,0-1,.43l-.81-.81A1,1,0,0,0,6.76,8.17L7.57,9a4.17,4.17,0,0,0-.43,1H6a1,1,0,0,0,0,2H7.14a4.17,4.17,0,0,0,.43,1l-.81.81a1,1,0,0,0,1.41,1.41L9,14.43a4.17,4.17,0,0,0,1,.43V16a1,1,0,0,0,2,0V14.86a4.17,4.17,0,0,0,1-.43l.81.81a1,1,0,0,0,1.41-1.41ZM11,13a2,2,0,1,1,2-2A2,2,0,0,1,11,13Z"/><path d="M26,20H24.86a4.17,4.17,0,0,0-.43-1l.81-.81a1,1,0,0,0-1.41-1.41l-.81.81a4.17,4.17,0,0,0-1-.43V16a1,1,0,0,0-2,0v1.14a4.17,4.17,0,0,0-1,.43l-.81-.81a1,1,0,0,0-1.41,1.41l.81.81a4.17,4.17,0,0,0-.43,1H16a1,1,0,0,0,0,2h1.14a4.17,4.17,0,0,0,.43,1l-.81.81a1,1,0,0,0,1.41,1.41l.81-.81a4.17,4.17,0,0,0,1,.43V26a1,1,0,0,0,2,0V24.86a4.17,4.17,0,0,0,1-.43l.81.81a1,1,0,0,0,1.41-1.41L24.43,23a4.17,4.17,0,0,0,.43-1H26a1,1,0,0,0,0-2Zm-5,3a2,2,0,1,1,2-2A2,2,0,0,1,21,23Z"/></g></svg>