<svg xmlns="http://www.w3.org/2000/svg" viewBox="0 0 32 32"><defs><style>.cls-1{fill:#231f20;}</style></defs><g id="ship"><path class="cls-1" d="M29.6,24.2a1,1,0,0,0-1.4.2l-1.57,2.07a4,4,0,0,1-.38.43L28,18.45a1,1,0,0,0-.7-1.16L26,16.91a.41.41,0,0,0,0-.11l-2-10A1,1,0,0,0,23,6H20V4.19A2.19,2.19,0,0,0,17.81,2H14.19A2.19,2.19,0,0,0,12,4.19V6H9a1,1,0,0,0-1,.8l-1.4,7a1,1,0,0,0,2,.4L9.82,8H22.18l1.65,8.27L16.28,14a1.06,1.06,0,0,0-.56,0l-11,3.25A1,1,0,0,0,4,18.45L5.75,26.9a4,4,0,0,1-.38-.43L3.8,24.4a1,1,0,1,0-1.6,1.2l1.58,2.08A5.44,5.44,0,0,0,8.1,30a5.07,5.07,0,0,0,2.54-.7l3.84-2.25a2.87,2.87,0,0,1,3,0,1,1,0,0,0,1-1.73,4.89,4.89,0,0,0-5.06,0L9.63,27.57A2.93,2.93,0,0,1,8,28a1.21,1.21,0,0,0,0-.19L6.16,19,16,16,25.84,19,24,27.8A1.2,1.2,0,0,0,24,28a3,3,0,0,1-1.65-.42l-.87-.51a1,1,0,0,0-1,1.73l.86.51a5.07,5.07,0,0,0,2.54.7,5.44,5.44,0,0,0,4.32-2.32L29.8,25.6A1,1,0,0,0,29.6,24.2ZM14,6V4.19A.18.18,0,0,1,14.19,4h3.62a.18.18,0,0,1,.19.19V6Z"/></g></svg>