<svg xmlns="http://www.w3.org/2000/svg" viewBox="0 0 32 32"><g id="money"><path d="M27.65,7H4.35A2.35,2.35,0,0,0,2,9.35v13.3A2.35,2.35,0,0,0,4.35,25H10a1,1,0,0,0,0-2H9s0,0,0,0a5,5,0,0,0-5-5V14A5,5,0,0,0,9,9H23a5,5,0,0,0,5,5v4a5,5,0,0,0-5,5s0,0,0,0H14a1,1,0,0,0,0,2H27.65A2.35,2.35,0,0,0,30,22.65V9.35A2.35,2.35,0,0,0,27.65,7ZM7,23s0,0,0,0H4.35A.35.35,0,0,1,4,22.65V20A3,3,0,0,1,7,23ZM4,12V9.35A.35.35,0,0,1,4.35,9H7A3,3,0,0,1,4,12ZM25,9h2.65a.35.35,0,0,1,.35.35V12A3,3,0,0,1,25,9Zm3,13.65a.35.35,0,0,1-.35.35H25s0,0,0,0a3,3,0,0,1,3-3Z"/><path d="M16,14a1,1,0,0,0,0-2,4,4,0,1,0,3.77,2.67,1,1,0,1,0-1.88.66A2.19,2.19,0,0,1,18,16a2,2,0,1,1-2-2Z"/></g></svg>