<?xml version="1.0" encoding="utf-8"?>
<!-- Generator: Adobe Illustrator 16.0.0, SVG Export Plug-In . SVG Version: 6.00 Build 0)  -->
<!DOCTYPE svg PUBLIC "-//W3C//DTD SVG 1.0//EN" "http://www.w3.org/TR/2001/REC-SVG-20010904/DTD/svg10.dtd">
<svg version="1.0" id="Layer_1" xmlns="http://www.w3.org/2000/svg" xmlns:xlink="http://www.w3.org/1999/xlink" x="0px" y="0px"
	 width="100px" height="100px" viewBox="0 0 100 100" enable-background="new 0 0 100 100" xml:space="preserve">
<path d="M86.667,58.955V26.667C86.667,17.464,79.202,10,70,10c-9.206,0-16.667,7.464-16.667,16.667v32.286
	C51.23,62.119,50,65.915,50,70c0,11.045,8.952,20,20,20c11.045,0,20-8.955,20-20C90,65.915,88.77,62.119,86.667,58.955z M70,83.333
	c-7.366,0-13.333-5.97-13.333-13.333c0-3.359,1.282-6.39,3.333-8.737V26.667c0-5.524,4.479-10,10-10s10,4.476,10,10v34.6
	c2.051,2.344,3.333,5.374,3.333,8.733C83.333,77.363,77.363,83.333,70,83.333z"/>
<polygon points="46.667,40 46.667,33.333 39.108,33.333 47.888,18.125 42.112,14.792 33.333,30 24.554,14.792 18.779,18.125 
	27.559,33.333 10,33.333 10,40 27.559,40 18.779,55.208 24.554,58.542 33.333,43.333 42.112,58.542 47.888,55.208 39.108,40 "/>
<path d="M73.333,64.258V50h-6.666v14.258c-1.986,1.155-3.334,3.281-3.334,5.742c0,3.682,2.982,6.667,6.667,6.667
	c3.682,0,6.667-2.985,6.667-6.667C76.667,67.539,75.319,65.413,73.333,64.258z"/>
</svg>
