<svg xmlns="http://www.w3.org/2000/svg" viewBox="0 0 32 32"><g id="lanceolate"><path d="M16.63,2.22a1,1,0,0,0-1.26,0C8.62,7.66,5.63,15.15,8.09,20.42A9.75,9.75,0,0,0,15,25.92V29a1,1,0,0,0,2,0V21.5l3.6-2.7a1,1,0,1,0-1.2-1.6L17,19V16.5l3.6-2.7a1,1,0,1,0-1.2-1.6L17,14V11.5l2.27-1.7a1,1,0,1,0-1.2-1.6L17,9V5.21c4.81,4.61,6.94,10.42,5.09,14.37a8.82,8.82,0,0,1-2,2.68,1,1,0,0,0,1.34,1.48,10.7,10.7,0,0,0,2.48-3.32C26.37,15.15,23.38,7.66,16.63,2.22ZM9.91,19.58C8.06,15.63,10.19,9.82,15,5.21V9l-1.07-.8a1,1,0,0,0-1.2,1.6L15,11.5V14l-2.4-1.8a1,1,0,1,0-1.2,1.6L15,16.5V19l-2.4-1.8a1,1,0,0,0-1.2,1.6L15,21.5v2.4C12.36,23.38,10.54,20.94,9.91,19.58Z"/></g></svg>