<?xml version="1.0" encoding="utf-8"?>
<!-- Generator: Adobe Illustrator 16.0.0, SVG Export Plug-In . SVG Version: 6.00 Build 0)  -->
<!DOCTYPE svg PUBLIC "-//W3C//DTD SVG 1.0//EN" "http://www.w3.org/TR/2001/REC-SVG-20010904/DTD/svg10.dtd">
<svg version="1.0" id="Layer_1" xmlns="http://www.w3.org/2000/svg" xmlns:xlink="http://www.w3.org/1999/xlink" x="0px" y="0px"
	 width="100px" height="100px" viewBox="0 0 100 100" enable-background="new 0 0 100 100" xml:space="preserve">
<path d="M75,53.333c-0.495,0-0.957,0.098-1.438,0.146L61.289,16.667H46.667v6.667h9.82l7.031,21.087
	c-6.692,3.203-11.878,9.033-14.049,16.24L40.918,35h5.749v-6.666h-20V35h7.22l2.224,6.667H10v6.666h28.333L43.887,65h-4.284
	C38.086,58.323,32.136,53.333,25,53.333c-8.281,0-15,6.713-15,14.997c0,8.291,6.719,15.003,15,15.003
	c7.136,0,13.083-4.99,14.603-11.666H55V68.33c0-7.63,4.31-14.255,10.612-17.62l1.617,4.85C62.91,58.19,59.997,62.9,59.997,68.33
	c0,8.291,6.715,15.003,15.003,15.003c8.281,0,15-6.712,15-15.003C90,60.046,83.281,53.333,75,53.333z M25,76.667
	c-4.597,0-8.333-3.74-8.333-8.337c0-4.593,3.736-8.33,8.333-8.33c3.411,0,6.341,2.063,7.634,5H25v6.667h7.63
	C31.341,74.603,28.411,76.667,25,76.667z M75,76.667c-4.597,0-8.337-3.74-8.337-8.337c0-2.448,1.084-4.632,2.771-6.155l2.405,7.213
	l6.322-2.109l-2.399-7.2c4.235,0.391,7.571,3.919,7.571,8.252C83.333,72.927,79.597,76.667,75,76.667z"/>
</svg>
