<svg xmlns="http://www.w3.org/2000/svg" viewBox="0 0 32 32"><defs><style>.cls-1{fill:#231f20;}</style></defs><g id="tooth"><path class="cls-1" d="M29.39,16.71a32.56,32.56,0,0,0-3.09-1.14c-.29-.1-.6-.19-.92-.27,0-.29-.08-.56-.13-.8a11.12,11.12,0,0,0,1.63-4.35,1,1,0,1,0-2-.3,9,9,0,0,1-1.54,3.86,1,1,0,0,0-.16.82,10.81,10.81,0,0,1,0,5.23A10.18,10.18,0,0,1,21,24a.69.69,0,0,1-.23.16.46.46,0,0,1-.44-.07.73.73,0,0,1-.29-.64,7.07,7.07,0,0,0-1.48-5.16A3.56,3.56,0,0,0,16,17a3.56,3.56,0,0,0-2.55,1.32A7.07,7.07,0,0,0,12,23.48a.73.73,0,0,1-.29.64.46.46,0,0,1-.44.07A.69.69,0,0,1,11,24,10.18,10.18,0,0,1,8.8,19.76a10.81,10.81,0,0,1,0-5.23,1,1,0,0,0-.16-.81,9.25,9.25,0,0,1-.92-1.66A9.36,9.36,0,0,1,7,8.83,4.72,4.72,0,0,1,9,4.6a3.39,3.39,0,0,1,3.42-.25c.13.05.25.12.37.18a10.47,10.47,0,0,1,1,.63,3.72,3.72,0,0,0,4.4,0,10.47,10.47,0,0,1,1-.63c.12-.06.24-.13.37-.18a3.35,3.35,0,0,1,2.93,0,4.35,4.35,0,0,1,2.33,2.92A1,1,0,0,0,26.05,8a1,1,0,0,0,.72-1.22,6.41,6.41,0,0,0-3.42-4.24,5.39,5.39,0,0,0-4.64,0l-.46.23A11.82,11.82,0,0,0,17,3.53a1.68,1.68,0,0,1-2.06,0,11.82,11.82,0,0,0-1.22-.76l-.46-.23a5.38,5.38,0,0,0-5.38.39,6.71,6.71,0,0,0-2.9,6V9a11.31,11.31,0,0,0,.87,3.82,10.8,10.8,0,0,0,.87,1.65c0,.25-.09.52-.13.8l-.92.27a32.62,32.62,0,0,0-3.09,1.15,1,1,0,0,0-.61.92V29a1,1,0,0,0,1,1H8a1,1,0,0,0,0-2H4V18.29c.75-.3,1.52-.57,2.3-.82l.19,0a12.44,12.44,0,0,0,3,7.93,2.57,2.57,0,0,0,1,.72,2.49,2.49,0,0,0,2.3-.32A2.78,2.78,0,0,0,14,23.42a5.5,5.5,0,0,1,.95-3.74c.22-.24.63-.68,1.08-.68s.86.44,1.08.68a5.5,5.5,0,0,1,1,3.74,2.78,2.78,0,0,0,1.12,2.33,2.5,2.5,0,0,0,1.44.47,2.45,2.45,0,0,0,.85-.15,2.54,2.54,0,0,0,1-.72,12.44,12.44,0,0,0,3-7.93l.19.06c.78.24,1.55.51,2.3.81V28H11a1,1,0,0,0,0,2H29a1,1,0,0,0,1-1V17.63A1,1,0,0,0,29.39,16.71Z"/></g></svg>