<svg width="32" height="32" xmlns="http://www.w3.org/2000/svg">

 <g>
  <title>background</title>
  <rect fill="none" id="canvas_background" height="402" width="582" y="-1" x="-1"/>
 </g>
 <g>
  <title>Layer 1</title>
  <g id="coins">
   <path id="svg_1" d="m28.82,12.46a7.8,7.8 0 0 0 -0.91,-1.15a1,1 0 0 0 -1.44,1.38a6.11,6.11 0 0 1 0.67,0.85a5.5,5.5 0 1 1 -4.64,-2.54a5.38,5.38 0 0 1 1.27,0.15a1,1 0 0 0 0.46,-2a7.72,7.72 0 0 0 -1.73,-0.15a7.47,7.47 0 0 0 -3,0.64a0.33,0.33 0 0 0 -0.1,-0.06a7.27,7.27 0 0 0 -2.9,-0.58a7.47,7.47 0 0 0 -3.5,0.88a7.4,7.4 0 0 0 -3.5,-0.88a7.5,7.5 0 0 0 -6.32,11.54a1,1 0 0 0 0.82,0.46a1,1 0 0 0 0.54,-0.16a1,1 0 0 0 0.3,-1.38a5.51,5.51 0 0 1 4.66,-8.46a5.42,5.42 0 0 1 1.65,0.26a7.54,7.54 0 0 0 -1,1.24a1,1 0 0 0 0.32,1.38a1,1 0 0 0 1.38,-0.31a5.46,5.46 0 0 1 4.65,-2.57a5.69,5.69 0 0 1 0.83,0.08a7.47,7.47 0 0 0 0,10.84a5.69,5.69 0 0 1 -0.83,0.08a5.51,5.51 0 0 1 -5.5,-5.5a1,1 0 0 0 -2,0a7.48,7.48 0 0 0 2.14,5.24a5.59,5.59 0 0 1 -3.76,-0.16a1,1 0 0 0 -1.3,0.54a1,1 0 0 0 0.54,1.3a7.27,7.27 0 0 0 2.88,0.58a7.47,7.47 0 0 0 3.5,-0.88a7.43,7.43 0 0 0 3.5,0.88a7.27,7.27 0 0 0 2.88,-0.58a0.33,0.33 0 0 0 0.1,-0.06a7.5,7.5 0 0 0 9.34,-10.9z"/>
  </g>
 </g>
</svg>