<svg xmlns="http://www.w3.org/2000/svg" viewBox="0 0 32 32"><g id="test_tube" data-name="test tube"><path d="M29,9V5a1,1,0,0,0-2,0V9H25V7a1,1,0,0,0,0-2H18a1,1,0,0,0,0,2V9H14V7a1,1,0,0,0,0-2H7A1,1,0,0,0,7,7V9H5V5A1,1,0,0,0,3,5V9a1,1,0,0,0,0,2V27.06A2.94,2.94,0,0,0,5.94,30H20a1,1,0,0,0,0-2H5.94A.94.94,0,0,1,5,27.06V26H27v1.06a.94.94,0,0,1-.94.94H24a1,1,0,0,0,0,2h2.06A2.94,2.94,0,0,0,29,27.06V11a1,1,0,0,0,0-2ZM20,7h3V9H20Zm0,9h3v2.5a1.5,1.5,0,0,1-3,0Zm3-2H20V11h3ZM9,7h3V9H9Zm3,7H9V11h3ZM27,24H5V11H7v4a1,1,0,0,0,1,1h4v2.5a1.5,1.5,0,0,1-3,0,1,1,0,0,0-2,0,3.5,3.5,0,0,0,7,0V11h4v7.5a3.5,3.5,0,0,0,7,0V11h2Z"/></g></svg>