<svg xmlns="http://www.w3.org/2000/svg" viewBox="0 0 32 32"><defs><style>.cls-1{fill:#231f20;}</style></defs><g id="syringe"><path class="cls-1" d="M29.26,22.39a2.44,2.44,0,0,0-1.72-.77,2.53,2.53,0,0,0-1.71.63L24.46,20.8a2.43,2.43,0,0,0,.74-1.67,2.4,2.4,0,0,0-.67-1.75L16.64,9h0L14.89,7.15A2.44,2.44,0,0,0,12,6.67L10.56,5.14a1,1,0,0,0-.7-.31.85.85,0,0,0-.36.06L8.07,3.37a1,1,0,0,0-.69-.31.94.94,0,0,0-.72.27l-.46.43L4.84,2.31A1,1,0,1,0,3.38,3.69L4.75,5.13l-.46.44A1,1,0,0,0,4,6.26,1,1,0,0,0,4.25,7L5.68,8.5a1,1,0,0,0-.09.35,1,1,0,0,0,.28.71L7.3,11.09A2.39,2.39,0,0,0,7,12.26,2.44,2.44,0,0,0,7.62,14L14.4,21.2a1,1,0,0,0,1.41.05,1,1,0,0,0,0-1.42L9.07,12.64A.46.46,0,0,1,9,12.32.42.42,0,0,1,9.09,12l.24-.23h0L11,10.26,12.81,8.5a.47.47,0,0,1,.32-.12.46.46,0,0,1,.31.14L14.5,9.64l-.44.42a1,1,0,0,0,0,1.41,1,1,0,0,0,.73.31,1,1,0,0,0,.68-.27l.44-.41.68.72-1,1a1,1,0,0,0,0,1.41,1,1,0,0,0,.72.32,1,1,0,0,0,.69-.27l1-1,.68.73-.44.41a1,1,0,1,0,1.37,1.45l.44-.41.68.72-1,1a1,1,0,0,0,0,1.42,1,1,0,0,0,.73.31,1,1,0,0,0,.68-.27l1-1,1.06,1.12a.46.46,0,0,1,.12.32.42.42,0,0,1-.14.31l-.69.65h0L20,22.23h0l-.69.65A.4.4,0,0,1,19,23a.42.42,0,0,1-.31-.14L17.93,22a1,1,0,1,0-1.45,1.37l.78.83A2.44,2.44,0,0,0,19,25H19a2.42,2.42,0,0,0,1.64-.63l1.37,1.45a2.46,2.46,0,0,0-.69,1.63,2.52,2.52,0,0,0,.72,1.82A2.48,2.48,0,0,0,23.8,30h.07a2.44,2.44,0,0,0,1.68-.67l1.83-1.72A1,1,0,1,0,26,26.19l-1.82,1.72a.54.54,0,0,1-.33.13.58.58,0,0,1-.37-.21.46.46,0,0,1-.12-.32.44.44,0,0,1,.14-.32l.64-.6h0L25.82,25l1.34-1.27a.46.46,0,0,1,.33-.12.51.51,0,0,1,.37.2.46.46,0,0,1,0,.64,1,1,0,0,0,0,1.42,1,1,0,0,0,1.41,0A2.48,2.48,0,0,0,29.26,22.39ZM9.13,9.22l-.44.42L8,8.92,9.79,7.24l.68.72ZM8,6.19l-.91.87-.68-.72.46-.44h0l.45-.43Zm14.59,16.4.44-.42,1.36,1.45-.87.82L22.14,23Z"/></g></svg>