<svg xmlns="http://www.w3.org/2000/svg" viewBox="0 0 32 32"><title>weather android app aplication phone</title><g id="weather_android_app_aplication_phone" data-name="weather android app aplication phone"><path d="M30.56,8.47a8,8,0,0,0-7-7,64.29,64.29,0,0,0-15.06,0,8,8,0,0,0-7,7,64.29,64.29,0,0,0,0,15.06,8,8,0,0,0,7,7,64.29,64.29,0,0,0,15.06,0,8,8,0,0,0,7-7A64.29,64.29,0,0,0,30.56,8.47Zm-2,14.83a6,6,0,0,1-5.28,5.28,63.65,63.65,0,0,1-14.6,0A6,6,0,0,1,3.42,23.3a63.65,63.65,0,0,1,0-14.6A6,6,0,0,1,8.7,3.42a63.65,63.65,0,0,1,14.6,0A6,6,0,0,1,28.58,8.7,63.65,63.65,0,0,1,28.58,23.3Z"/><path d="M22,24H10a1,1,0,0,0,0,2H22a1,1,0,0,0,0-2Z"/><path d="M25,20H23.93A8,8,0,0,0,8.07,20H7a1,1,0,0,0,0,2H25a1,1,0,0,0,0-2ZM10.08,20a6,6,0,0,1,11.84,0Z"/><path d="M16,12a1,1,0,0,0,1-1V7a1,1,0,0,0-2,0v4A1,1,0,0,0,16,12Z"/><path d="M9.93,13.93a1,1,0,0,0,0-1.42L7.1,9.69A1,1,0,1,0,5.69,11.1l2.82,2.83A1,1,0,0,0,9.93,13.93Z"/><path d="M24.9,9.69l-2.83,2.82a1,1,0,0,0,1.42,1.42l2.82-2.83A1,1,0,0,0,24.9,9.69Z"/></g></svg>