<svg xmlns="http://www.w3.org/2000/svg" viewBox="0 0 32 32"><g id="earth"><path d="M16,2A14,14,0,0,0,2.07,14.67.88.88,0,0,0,2,15a1.42,1.42,0,0,0,0,.2c0,.27,0,.53,0,.8A14,14,0,0,0,24.62,27a1,1,0,0,0-1.24-1.58,11.71,11.71,0,0,1-4.45,2.18,1.08,1.08,0,0,0-.22-.35.71.71,0,0,1-.09-.91l.66-1a2.75,2.75,0,0,0,.17-2.73l-.72-1.44a2.73,2.73,0,0,0-3.84-1.12L11.77,22a.82.82,0,0,1-.26.1L6.23,23A12,12,0,0,1,4,16H6.83a3.84,3.84,0,0,0,2.71-1.12l1.34-1.34A1.78,1.78,0,0,1,12.17,13a3.8,3.8,0,0,0,3.66-2.71,1,1,0,1,0-1.91-.58A1.82,1.82,0,0,1,12.17,11a3.84,3.84,0,0,0-2.71,1.12L8.12,13.46A1.78,1.78,0,0,1,6.83,14H4.18a12,12,0,0,1,8-9.37l1.41,2.82A1,1,0,0,0,14.5,8,.93.93,0,0,0,15,7.89a1,1,0,0,0,.44-1.34l-1.2-2.4A11.77,11.77,0,0,1,23.86,7L22.17,9.77a2.6,2.6,0,0,0,1.41,3.81.62.62,0,0,1,.42.58v.23A2.61,2.61,0,0,0,26.61,17H28a11.83,11.83,0,0,1-1.8,5.4,1,1,0,0,0,1.7,1.07A14,14,0,0,0,16,2ZM11.84,24a2.78,2.78,0,0,0,1-.35l3.12-1.87a.68.68,0,0,1,.57-.08.73.73,0,0,1,.45.37l.72,1.44a.73.73,0,0,1-.05.73l-.66,1a2.75,2.75,0,0,0-.18,2.7c-.25,0-.51,0-.77,0a11.94,11.94,0,0,1-8.22-3.28ZM26,14.39v-.23a2.59,2.59,0,0,0-1.78-2.47.65.65,0,0,1-.38-.37.59.59,0,0,1,.05-.52L25.3,8.44A11.9,11.9,0,0,1,28,15H26.61A.61.61,0,0,1,26,14.39Z"/></g></svg>