<svg xmlns="http://www.w3.org/2000/svg" viewBox="0 0 32 32"><defs><style>.cls-1{fill:#231f20;}</style></defs><g id="train"><path class="cls-1" d="M26.91,28.59,26.19,27A1,1,0,0,0,27,26a1,1,0,0,0-1-1h-.68l-.45-1H25a1,1,0,0,0,0-2H24l-.46-1A2.83,2.83,0,0,0,26,18.16v-12s0-.07,0-.1,0,0,0,0a.8.8,0,0,0,0-.15A4.14,4.14,0,0,0,21.85,2H16a1,1,0,0,0,0,2h5.85a2.14,2.14,0,0,1,1.81,1H8.34a2.14,2.14,0,0,1,1.81-1H12a1,1,0,0,0,0-2H10.15A4.14,4.14,0,0,0,6,5.85.8.8,0,0,0,6,6s0,0,0,0,0,.06,0,.1v12A2.83,2.83,0,0,0,8.48,21L8,22H7a1,1,0,0,0,0,2h.13l-.45,1H6a1,1,0,0,0-1,1,1,1,0,0,0,.81,1l-.72,1.63a1,1,0,0,0,.5,1.32A1,1,0,0,0,6,30a1,1,0,0,0,.91-.59L8,27H24l1.07,2.41A1,1,0,0,0,26,30a1,1,0,0,0,.41-.09A1,1,0,0,0,26.91,28.59ZM8,18.16V15H21a1,1,0,0,0,0-2H8V7H24V18.16a.83.83,0,0,1-.84.84H8.84A.84.84,0,0,1,8,18.16ZM10.65,21h10.7l.44,1H10.21ZM8.87,25l.45-1H22.68l.45,1Z"/><path class="cls-1" d="M11,18a1,1,0,0,0,0-2h0a1,1,0,1,0,0,2Z"/><path class="cls-1" d="M21,18a1,1,0,0,0,0-2h0a1,1,0,1,0,0,2Z"/></g></svg>