<svg width="32" height="32" xmlns="http://www.w3.org/2000/svg">

 <g>
  <title>background</title>
  <rect fill="none" id="canvas_background" height="402" width="582" y="-1" x="-1"/>
 </g>
 <g>
  <title>Layer 1</title>
  <g id="hourglass">
   <path id="svg_1" d="m26,28l-1,0a16.8,16.8 0 0 0 -3.15,-9.6a15.08,15.08 0 0 0 -1.63,-1.86a0.64,0.64 0 0 1 -0.2,-0.49a0.58,0.58 0 0 1 0.21,-0.44a13.86,13.86 0 0 0 2.66,-3.07a14.58,14.58 0 0 0 2.11,-8.54l1,0a1,1 0 0 0 0,-2l-20,0a1,1 0 0 0 0,2l1,0a14.59,14.59 0 0 0 0,2.09a1,1 0 1 0 2,-0.18a15.22,15.22 0 0 1 0,-1.91l14,0a12.61,12.61 0 0 1 -1.87,7.46a12,12 0 0 1 -2.29,2.64a2.58,2.58 0 0 0 -0.84,1.9a2.69,2.69 0 0 0 0.81,2a13.72,13.72 0 0 1 1.39,1.6a14.82,14.82 0 0 1 2.8,8.4l-13.95,0a14.82,14.82 0 0 1 2.75,-8.4a13.72,13.72 0 0 1 1.42,-1.6a2.69,2.69 0 0 0 0.78,-2a2.58,2.58 0 0 0 -0.9,-1.89a12,12 0 0 1 -2.29,-2.64a12.79,12.79 0 0 1 -0.89,-1.77a1,1 0 0 0 -1.84,0.78a14,14 0 0 0 1.08,2.06a14.14,14.14 0 0 0 2.66,3.08a0.55,0.55 0 0 1 0.21,0.43a0.64,0.64 0 0 1 -0.2,0.49a15.08,15.08 0 0 0 -1.63,1.86a16.8,16.8 0 0 0 -3.15,9.6l-1.05,0a1,1 0 0 0 0,2l20,0a1,1 0 0 0 0,-2z"/>
   <path id="svg_2" d="m20.91,9.42a1,1 0 0 0 -0.07,-1a1,1 0 0 0 -0.84,-0.42l-8,0a1,1 0 0 0 -0.84,0.46a1,1 0 0 0 -0.07,1a19.53,19.53 0 0 0 2.11,3.54c0.31,0.42 0.62,0.8 0.93,1.15a2.44,2.44 0 0 0 3.74,0c0.31,-0.35 0.62,-0.73 0.93,-1.15a19.53,19.53 0 0 0 2.11,-3.58zm-3.71,2.36c-0.28,0.38 -0.56,0.72 -0.83,1a0.46,0.46 0 0 1 -0.74,0c-0.27,-0.31 -0.55,-0.65 -0.83,-1a16.48,16.48 0 0 1 -1.16,-1.78l4.72,0a16.48,16.48 0 0 1 -1.16,1.78z"/>
  </g>
 </g>
</svg>