<svg xmlns="http://www.w3.org/2000/svg" viewBox="0 0 32 32"><g id="image"><path d="M27.48,10h-18A2.52,2.52,0,0,0,7,12.52v12A2.52,2.52,0,0,0,9.52,27h18A2.52,2.52,0,0,0,30,24.48v-12A2.52,2.52,0,0,0,27.48,10ZM28,24.48a.52.52,0,0,1-.52.52h-18A.52.52,0,0,1,9,24.48v-1l3.9-3.15a1.53,1.53,0,0,1,2,.09l1.28,1.24,0,.05c0,.05.1.07.15.12l1.95,1.89a1,1,0,1,0,1.4-1.44l-1.15-1.1L21,19.31a1.56,1.56,0,0,1,1.91,0l2.45,2a1,1,0,0,0,1.41-.14,1,1,0,0,0-.15-1.41l-2.45-2a3.57,3.57,0,0,0-4.38-.07l-2.7,2.05L16.29,19a3.51,3.51,0,0,0-4.65-.2L9,20.91V12.52A.52.52,0,0,1,9.52,12h18a.52.52,0,0,1,.52.52Z"/><path d="M4.52,20A.52.52,0,0,1,4,19.48v-12A.52.52,0,0,1,4.52,7h18a.52.52,0,0,1,.52.52,1,1,0,0,0,2,0A2.52,2.52,0,0,0,22.48,5h-18A2.52,2.52,0,0,0,2,7.52v12A2.52,2.52,0,0,0,4.52,22a1,1,0,0,0,0-2Z"/><path d="M16.5,13A2.5,2.5,0,1,0,19,15.5,2.5,2.5,0,0,0,16.5,13Zm0,3a.5.5,0,1,1,.5-.5A.5.5,0,0,1,16.5,16Z"/></g></svg>