<svg xmlns="http://www.w3.org/2000/svg" viewBox="0 0 32 32"><g id="root"><path d="M29,15H17V11.79a5.33,5.33,0,0,1,2.5-4.16,5.24,5.24,0,0,1,4.29-.3,5.85,5.85,0,0,1-3.17,3.51,1,1,0,1,0,.76,1.85A8.13,8.13,0,0,0,26,7,1,1,0,0,0,25.5,5.9a7.4,7.4,0,0,0-7,0,6.69,6.69,0,0,0-2.57,2.66A6.71,6.71,0,0,0,13.5,6.13a7.43,7.43,0,0,0-7,0A1,1,0,0,0,6,7.19a8.11,8.11,0,0,0,4.6,5.73,7.25,7.25,0,0,0,2.82.56A8.05,8.05,0,0,0,15,13.32V15H3a1,1,0,0,0,0,2H15v2.46l-2.55,1.71a1,1,0,0,0,1.1,1.66l1.45-1v2.59l-2.55,1.71a1,1,0,0,0,1.1,1.66l1.45-1V28a1,1,0,0,0,2,0V26.87l1.45,1A.94.94,0,0,0,19,28a1,1,0,0,0,.55-1.83L17,24.46V21.87l1.45,1A.94.94,0,0,0,19,23a1,1,0,0,0,.55-1.83L17,19.46V17H29a1,1,0,0,0,0-2ZM11.38,11.08A5.87,5.87,0,0,1,8.21,7.57a5.17,5.17,0,0,1,4.29.3,5.15,5.15,0,0,1,2.4,3.43A5.69,5.69,0,0,1,11.38,11.08Z"/></g></svg>