<svg xmlns="http://www.w3.org/2000/svg" viewBox="0 0 32 32"><title>47-Cookie</title><g id="_47-Cookie" data-name="47-Cookie"><path d="M30.15,8.53A1,1,0,0,0,29.26,8H26V6a1,1,0,0,0-1-1H23V2.26a1,1,0,0,0-.6-.92A16,16,0,1,0,32,16,16,16,0,0,0,30.15,8.53ZM16,30A14,14,0,1,1,21,2.93V5a2,2,0,0,0,2,2h1V8a2,2,0,0,0,2,2h2.65A13.81,13.81,0,0,1,30,16,14,14,0,0,1,16,30Z"/><path d="M14,9a3,3,0,1,0-3,3A3,3,0,0,0,14,9Zm-3,1a1,1,0,1,1,1-1A1,1,0,0,1,11,10Z"/><path d="M15,20a3,3,0,1,0,3,3A3,3,0,0,0,15,20Zm0,4a1,1,0,1,1,1-1A1,1,0,0,1,15,24Z"/><circle cx="25" cy="19" r="2"/><circle cx="7" cy="18" r="2"/><path d="M19,10a4,4,0,1,0,4,4A4,4,0,0,0,19,10Zm0,6a2,2,0,1,1,2-2A2,2,0,0,1,19,16Z"/></g></svg>