<?xml version="1.0" encoding="utf-8"?>
<!-- Generator: Adobe Illustrator 16.0.0, SVG Export Plug-In . SVG Version: 6.00 Build 0)  -->
<!DOCTYPE svg PUBLIC "-//W3C//DTD SVG 1.0//EN" "http://www.w3.org/TR/2001/REC-SVG-20010904/DTD/svg10.dtd">
<svg version="1.0" id="Layer_1" xmlns="http://www.w3.org/2000/svg" xmlns:xlink="http://www.w3.org/1999/xlink" x="0px" y="0px"
	 width="100px" height="100px" viewBox="0 0 100 100" enable-background="new 0 0 100 100" xml:space="preserve">
<path d="M90,10h-6.666c0,5.515-4.486,10-10,10c-0.551,0-1.09,0.032-1.627,0.065c1.057-3.269,1.627-6.66,1.627-10.065h-6.666
	c0,4.255-1.074,8.323-2.973,11.999c-5.258,2.359-9.008,6.627-10.049,11.761c-1.178-0.264-2.389-0.427-3.647-0.427
	c-1.256,0-2.467,0.163-3.646,0.427c-1.042-5.134-4.793-9.401-10.049-11.761c-1.899-3.676-2.972-7.744-2.972-11.999h-6.667
	c0,3.405,0.569,6.797,1.628,10.065C27.757,20.032,27.216,20,26.667,20c-5.515,0-10-4.485-10-10H10
	c0,8.073,5.742,14.802,13.366,16.335C19.355,28.708,14.782,30,10,30v6.667c8.107,0,16.198-3.002,22.533-8.939
	c4.409,1.631,7.467,5,7.467,8.939h0.095c-0.782,0.582-1.519,1.214-2.186,1.92c-4.443-2.154-9.7-2.598-14.575-0.68
	c2.012,4.619,5.809,7.969,10.246,9.658c-0.119,0.801-0.246,1.602-0.246,2.435c0,2.556,0.442,5.056,1.123,7.425
	C31.673,60.862,30,65.234,30,70c0,11.048,8.954,20,20,20c11.043,0,20-8.952,20-20c0-4.766-1.672-9.138-4.455-12.571
	c0.68-2.373,1.123-4.873,1.123-7.429c0-0.833-0.127-1.634-0.248-2.435c4.439-1.689,8.236-5.039,10.248-9.658
	c-4.877-1.918-10.135-1.475-14.578,0.68c-0.666-0.706-1.402-1.338-2.184-1.92H60c0-3.939,3.061-7.309,7.469-8.939
	c6.334,5.938,14.426,8.939,22.531,8.939V30c-4.781,0-9.355-1.292-13.365-3.665C84.258,24.802,90,18.073,90,10z M62.381,65.114
	c0.598,1.517,0.953,3.157,0.953,4.886c0,7.366-5.973,13.333-13.334,13.333c-7.364,0-13.333-5.967-13.333-13.333
	c0-1.731,0.354-3.372,0.954-4.89c2.718,5.082,5.721,8.467,5.721,8.467c3.664,4.118,9.655,4.118,13.319,0
	C56.66,73.577,59.662,70.192,62.381,65.114z M60,50c0,9.583-8.248,19.063-8.33,19.157C51.186,69.704,50.604,70,50,70
	c-0.598,0-1.182-0.296-1.676-0.853C48.249,69.063,40,59.583,40,50c0-5.515,4.486-10,10-10C55.516,40,60,44.485,60,50z"/>
</svg>
