<svg xmlns="http://www.w3.org/2000/svg" viewBox="0 0 32 32"><g id="telescope"><path d="M29.81,7.92,27.42,3a1.74,1.74,0,0,0-2.32-.82L19.46,4.85a1,1,0,0,0-.51.57,1,1,0,0,0,0,.76l2.17,4.51L10.34,15.88h0L9,13.18l8.39-4a1,1,0,0,0-.86-1.81l-9.3,4.47a1,1,0,0,0-.46,1.33L3.87,14.55a1.76,1.76,0,0,0-.82,2.33l.66,1.36A1.75,1.75,0,0,0,6,19.06L9,17.65H9a1,1,0,0,0,.57.51,1,1,0,0,0,.33.06,1,1,0,0,0,.44-.1L22,12.49a1,1,0,0,0,.9.57,1.13,1.13,0,0,0,.44-.1L29,10.25h0A1.75,1.75,0,0,0,29.81,7.92ZM5.4,17.15,5,16.25,7.67,15l.22.45.21.45Zm18-6.43L21.23,6.21l4.5-2.16L27.9,8.56Z"/><path d="M18,20.76V17.62l1.45-.73a1,1,0,1,0-.9-1.78l-4,2a1,1,0,0,0-.44,1.34A1,1,0,0,0,15,19a.93.93,0,0,0,.45-.11l.55-.27v2.14l-3.89,7.79a1,1,0,1,0,1.78.9L17,23.24l3.11,6.21A1,1,0,0,0,21,30a.93.93,0,0,0,.45-.11,1,1,0,0,0,.44-1.34Z"/></g></svg>