<svg version="1.0" id="Layer_1" xmlns="http://www.w3.org/2000/svg" xmlns:xlink="http://www.w3.org/1999/xlink" x="0px" y="0px" width="100px" height="100px" viewBox="0 0 100 100" enable-background="new 0 0 100 100" xml:space="preserve">
   <metadata>
      <rdf:RDF xmlns:rdf="http://www.w3.org/1999/02/22-rdf-syntax-ns#">
         <rdf:Description xmlns:dc="http://purl.org/dc/elements/1.1/" rdf:about="">
            <dc:title>
               <rdf:Alt>
                  <rdf:li xml:lang="x-default">Food trolley</rdf:li>
               </rdf:Alt>
            </dc:title>
            <dc:description>
               <rdf:Alt>
                  <rdf:li xml:lang="x-default"></rdf:li>
               </rdf:Alt>
            </dc:description>
            <dc:subject>
               <rdf:Bag>
                  <rdf:li>fast food</rdf:li>
                  <rdf:li>trolley</rdf:li>
                  <rdf:li>hot dogs</rdf:li>
                  <rdf:li>street food</rdf:li>
                  <rdf:li>hot dog</rdf:li>
                  <rdf:li>food</rdf:li>
               </rdf:Bag>
            </dc:subject>
         </rdf:Description>
      </rdf:RDF>
   </metadata>
<path d="M90,16.667V10H10v6.667h6.667V50H10v6.667h6.667V80c0,5.524,4.476,10,10,10c4.349,0,8.011-2.789,9.388-6.666h27.891  C65.325,87.211,68.987,90,73.333,90c5.524,0,10-4.476,10-10V56.667H90V50h-6.667V16.667H90z M23.333,30H30v6.667h-6.667V30z   M23.333,43.334H40V50H23.333V43.334z M26.667,83.334c-1.842,0-3.333-1.491-3.333-3.334c0-1.839,1.491-3.333,3.333-3.333  C28.509,76.667,30,78.161,30,80C30,81.843,28.509,83.334,26.667,83.334z M73.333,83.334C71.494,83.334,70,81.843,70,80  c0-1.839,1.494-3.333,3.333-3.333c1.843,0,3.334,1.494,3.334,3.333C76.667,81.843,75.176,83.334,73.333,83.334z M76.667,70.612  C75.618,70.241,74.509,70,73.333,70c-4.346,0-8.008,2.793-9.388,6.667H36.055C34.676,72.793,31.016,70,26.667,70  c-1.175,0-2.285,0.241-3.333,0.612V56.667h53.333V70.612z M76.667,43.334H53.333V50h-6.667V36.667h-10V23.334H23.333v-6.667h53.333  V43.334z" />
<rect x="58.333" y="26.667" width="5" height="11.667" />
<rect x="66.667" y="26.667" width="5" height="11.667" />
</svg>
