<svg xmlns="http://www.w3.org/2000/svg" viewBox="0 0 32 32"><defs><style>.cls-1{fill:#231f20;}</style></defs><g id="alcohol"><path class="cls-1" d="M22,15V13.47a3.76,3.76,0,0,0-.58-2,3.84,3.84,0,0,0-1.09-1.11L19,9.46V8a1,1,0,0,0,1-1V3a1,1,0,0,0-1-1H13a1,1,0,0,0-1,1V7a1,1,0,0,0,1,1V9.46l-1.33.89A3.73,3.73,0,0,0,10,13.47V29a1,1,0,0,0,1,1h2a1,1,0,0,0,0-2H12V26h8v2H16a1,1,0,0,0,0,2h5a1,1,0,0,0,1-1V18a1,1,0,0,0-2,0v6H12V16h9A1,1,0,0,0,22,15ZM14,4h4V6H14Zm-2,9.47A1.72,1.72,0,0,1,12.78,12l1.77-1.19A1,1,0,0,0,15,10V8h2v2a1,1,0,0,0,.45.83L19.22,12a1.58,1.58,0,0,1,.51.52,1.68,1.68,0,0,1,.27.93V14H12Z"/><path class="cls-1" d="M16,23a1,1,0,0,0,1-1V21h1a1,1,0,0,0,0-2H17V18a1,1,0,0,0-2,0v1H14a1,1,0,0,0,0,2h1v1A1,1,0,0,0,16,23Z"/></g></svg>