<svg width="32" height="32" xmlns="http://www.w3.org/2000/svg">

 <g>
  <title>Layer 1</title>
  <g transform="rotate(90 15.9723 16.0969)" id="svg_60">
   <g id="svg_35">
    <g stroke="null" id="svg_11">
     <path stroke="null" id="svg_10" d="m29.97736,21.40576c-0.553,0 -1,-0.14234 -1,-0.31845l0,-9.8769c0,-0.17578 0.447,-0.31845 1,-0.31845s1,0.14267 1,0.31845l0,9.8769c0,0.17611 -0.447,0.31845 -1,0.31845z"/>
    </g>
    <g stroke="null" id="svg_13">
     <path stroke="null" id="svg_12" d="m1.96736,21.12604c-0.553,0 -1,-0.13877 -1,-0.31045l0,-9.62879c0,-0.17137 0.447,-0.31046 1,-0.31046s1,0.13909 1,0.31046l0,9.62879c0,0.17168 -0.447,0.31045 -1,0.31045z"/>
    </g>
    <g id="svg_15">
     <path id="svg_14" d="m5.96736,25.96521c-0.256,0 -0.512,-0.098 -0.707,-0.293l-4,-4c-0.391,-0.391 -0.391,-1.023 0,-1.414s1.023,-0.391 1.414,0l4,4c0.391,0.391 0.391,1.023 0,1.414c-0.195,0.195 -0.451,0.293 -0.707,0.293z"/>
    </g>
    <g id="svg_17">
     <path id="svg_16" d="m25.97536,25.96521c-0.256,0 -0.512,-0.098 -0.707,-0.293c-0.391,-0.391 -0.391,-1.023 0,-1.414l4.002,-4c0.391,-0.391 1.023,-0.391 1.414,0s0.391,1.023 0,1.414l-4.002,4c-0.195,0.195 -0.451,0.293 -0.707,0.293z"/>
    </g>
    <g id="svg_19">
     <path id="svg_18" d="m25.97536,25.96521l-20.008,0c-0.553,0 -1,-0.447 -1,-1s0.447,-1 1,-1l20.008,0c0.553,0 1,0.447 1,1s-0.447,1 -1,1z"/>
    </g>
    <g stroke="null" id="svg_21">
     <path stroke="null" id="svg_20" d="m24.98336,18.96121c-0.553,0 -1,-0.08711 -1,-0.19487l0,-4.87369c0,-0.10757 0.447,-0.19487 1,-0.19487s1,0.0873 1,0.19487l0,4.87369c0,0.10776 -0.447,0.19487 -1,0.19487z"/>
    </g>
    <g id="svg_23">
     <path id="svg_22" d="m29.97636,21.96521c-0.176,0 -0.354,-0.046 -0.515,-0.144l-4.994,-3.004c-0.473,-0.284 -0.626,-0.898 -0.341,-1.372c0.284,-0.474 0.9,-0.628 1.372,-0.341l4.994,3.004c0.473,0.284 0.626,0.898 0.341,1.372c-0.187,0.312 -0.518,0.485 -0.857,0.485z"/>
    </g>
    <g stroke="null" id="svg_25">
     <path stroke="null" id="svg_24" d="m6.96336,18.9652c-0.553,0 -1,-0.07754 -1,-0.17347l0,-4.33994c0,-0.09576 0.447,-0.17348 1,-0.17348s1,0.07772 1,0.17348l0,4.33994c0,0.09593 -0.447,0.17347 -1,0.17347z"/>
    </g>
    <g id="svg_27">
     <path id="svg_26" d="m1.96836,21.96521c-0.34,0 -0.671,-0.173 -0.858,-0.485c-0.284,-0.474 -0.131,-1.088 0.343,-1.372l4.996,-3c0.474,-0.284 1.088,-0.131 1.372,0.343s0.131,1.088 -0.343,1.372l-4.996,3c-0.161,0.096 -0.339,0.142 -0.514,0.142z"/>
    </g>
    <g id="svg_29">
     <path id="svg_28" d="m8.96536,20.96721c-0.256,0 -0.512,-0.098 -0.707,-0.293l-2.002,-2.002c-0.391,-0.391 -0.391,-1.023 0,-1.414s1.023,-0.391 1.414,0l2.002,2.002c0.391,0.391 0.391,1.023 0,1.414c-0.195,0.195 -0.451,0.293 -0.707,0.293z"/>
    </g>
    <g id="svg_31">
     <path id="svg_30" d="m8.96536,20.96721c-0.552,0 -1,-0.447 -1,-1c0,-0.552 0.447,-1 1,-1l14.012,-0.004l0,0c0.552,0 1,0.447 1,1c0,0.552 -0.447,1 -1,1l-14.012,0.004l0,0z"/>
    </g>
    <g id="svg_33">
     <path id="svg_32" d="m22.97736,20.96321c-0.256,0 -0.512,-0.098 -0.707,-0.293c-0.391,-0.391 -0.391,-1.023 0,-1.414l2.004,-2.004c0.391,-0.391 1.023,-0.391 1.414,0s0.391,1.023 0,1.414l-2.004,2.004c-0.195,0.195 -0.451,0.293 -0.707,0.293z"/>
    </g>
    <g stroke="null" id="svg_35">
     <path stroke="null" id="svg_34" d="m5.77136,25.82535c-0.185,0 -0.371,-0.051 -0.537,-0.157c-0.466,-0.298 -0.602,-0.916 -0.305,-1.381l3.193,-4.998c0.296,-0.466 0.917,-0.602 1.381,-0.305c0.466,0.298 0.602,0.916 0.305,1.381l-3.193,4.998c-0.191,0.299 -0.514,0.462 -0.844,0.462z"/>
    </g>
    <g id="svg_37">
     <path id="svg_36" d="m25.90643,25.82535c-0.34,0 -0.671,-0.173 -0.858,-0.486l-2.998,-5.002c-0.284,-0.474 -0.131,-1.088 0.344,-1.371c0.471,-0.284 1.087,-0.131 1.371,0.344l2.998,5.002c0.284,0.474 0.131,1.088 -0.344,1.371c-0.161,0.096 -0.338,0.142 -0.513,0.142z"/>
    </g>
   </g>
   <g id="svg_183">
    <g id="svg_40">
     <path id="svg_39" d="m29.97736,12.2303c-0.256,0 -0.512,-0.098 -0.707,-0.293l-4,-4.001c-0.391,-0.391 -0.391,-1.024 0,-1.414c0.391,-0.391 1.023,-0.391 1.414,0l4,4.001c0.391,0.391 0.391,1.024 0,1.414c-0.195,0.195 -0.451,0.293 -0.707,0.293z"/>
    </g>
    <g id="svg_42">
     <path id="svg_41" d="m1.96736,12.2303c-0.256,0 -0.512,-0.098 -0.707,-0.293c-0.391,-0.391 -0.391,-1.024 0,-1.414l4.002,-4.001c0.391,-0.391 1.023,-0.391 1.414,0s0.391,1.024 0,1.414l-4.002,4.001c-0.195,0.195 -0.451,0.293 -0.707,0.293z"/>
    </g>
    <g id="svg_44">
     <path id="svg_43" d="m25.97736,8.2293l-20.008,0c-0.553,0 -1,-0.448 -1,-1s0.447,-1 1,-1l20.008,0c0.553,0 1,0.448 1,1s-0.447,1 -1,1z"/>
    </g>
    <g id="svg_46">
     <path id="svg_45" d="m24.98036,15.2263c-0.34,0 -0.671,-0.173 -0.858,-0.486c-0.284,-0.474 -0.131,-1.088 0.344,-1.372l4.998,-2.996c0.472,-0.283 1.088,-0.13 1.371,0.344c0.284,0.474 0.131,1.088 -0.344,1.372l-4.998,2.996c-0.161,0.096 -0.338,0.142 -0.513,0.142z"/>
    </g>
    <g id="svg_48">
     <path id="svg_47" d="m24.98336,15.2303c-0.256,0 -0.512,-0.098 -0.707,-0.293l-2.004,-2.004c-0.391,-0.391 -0.391,-1.023 0,-1.414s1.023,-0.391 1.414,0l2.004,2.004c0.391,0.391 0.391,1.023 0,1.414c-0.196,0.195 -0.451,0.293 -0.707,0.293z"/>
    </g>
    <g id="svg_50">
     <path id="svg_49" d="m22.97936,13.2263l-14.014,0c-0.553,0 -1,-0.448 -1,-1s0.447,-1 1,-1l14.014,0c0.553,0 1,0.448 1,1s-0.447,1 -1,1z"/>
    </g>
    <g id="svg_52">
     <path id="svg_51" d="m6.96336,15.2283c-0.256,0 -0.512,-0.098 -0.707,-0.293c-0.391,-0.391 -0.391,-1.023 0,-1.414l2.002,-2.002c0.391,-0.391 1.023,-0.391 1.414,0s0.391,1.023 0,1.414l-2.002,2.002c-0.195,0.195 -0.451,0.293 -0.707,0.293z"/>
    </g>
    <g id="svg_54">
     <path id="svg_53" d="m6.96236,15.2283c-0.175,0 -0.353,-0.046 -0.514,-0.143l-4.996,-2.998c-0.474,-0.284 -0.627,-0.898 -0.343,-1.372c0.283,-0.473 0.897,-0.627 1.372,-0.343l4.996,2.998c0.474,0.284 0.627,0.898 0.343,1.372c-0.187,0.313 -0.518,0.486 -0.858,0.486z"/>
    </g>
    <g id="svg_56">
     <path id="svg_55" d="m22.97836,13.2263c-0.175,0 -0.353,-0.046 -0.514,-0.143c-0.474,-0.284 -0.627,-0.898 -0.343,-1.372l2.998,-4.997c0.284,-0.474 0.898,-0.627 1.372,-0.343s0.627,0.898 0.343,1.372l-2.998,4.998c-0.187,0.312 -0.518,0.485 -0.858,0.485z"/>
    </g>
    <g id="svg_58">
     <path id="svg_57" d="m8.96636,13.2263c-0.34,0 -0.671,-0.173 -0.858,-0.486l-2.996,-4.997c-0.284,-0.474 -0.131,-1.088 0.343,-1.372c0.475,-0.284 1.088,-0.129 1.372,0.343l2.996,4.997c0.284,0.474 0.131,1.088 -0.343,1.372c-0.161,0.097 -0.339,0.143 -0.514,0.143z"/>
    </g>
   </g>
  </g>
 </g>
</svg>