<svg xmlns="http://www.w3.org/2000/svg" viewBox="0 0 32 32"><g id="monitor"><path d="M29,24a1,1,0,0,0,1-1V21.12A2.12,2.12,0,0,0,27.88,19H26V4.07A2.07,2.07,0,0,0,23.93,2H14a1,1,0,0,0,0,2l10,.07V19H8L8.07,4H10a1,1,0,0,0,0-2H8.07A2.07,2.07,0,0,0,6,4.07V19H4.12A2.12,2.12,0,0,0,2,21.12v6.76A2.12,2.12,0,0,0,4.12,30H27.88A2.12,2.12,0,0,0,30,27.88V27a1,1,0,0,0-2,0v.88a.12.12,0,0,1-.12.12H17V21H27.88a.12.12,0,0,1,.12.12V23A1,1,0,0,0,29,24ZM15,28H4.12A.12.12,0,0,1,4,27.88V21.12A.12.12,0,0,1,4.12,21H15Z"/><path d="M9,6V17a1,1,0,0,0,1,1H22a1,1,0,0,0,1-1V6a1,1,0,0,0-1-1H10A1,1,0,0,0,9,6Zm2,1H21v9H11Z"/><path d="M12,27a1,1,0,0,0,0-2h0a1,1,0,0,0,0,2Z"/><path d="M9,27a1,1,0,0,0,0-2H9a1,1,0,0,0,0,2Z"/><path d="M25,25a1,1,0,1,0,1,1,1,1,0,0,0-1-1Z"/><path d="M22,25a1,1,0,1,0,1,1,1,1,0,0,0-1-1Z"/></g></svg>