<?xml version="1.0" encoding="utf-8"?>
<!-- Generator: Adobe Illustrator 16.0.0, SVG Export Plug-In . SVG Version: 6.00 Build 0)  -->
<!DOCTYPE svg PUBLIC "-//W3C//DTD SVG 1.0//EN" "http://www.w3.org/TR/2001/REC-SVG-20010904/DTD/svg10.dtd">
<svg version="1.0" id="Layer_1" xmlns="http://www.w3.org/2000/svg" xmlns:xlink="http://www.w3.org/1999/xlink" x="0px" y="0px"
	 width="100px" height="100px" viewBox="0 0 100 100" enable-background="new 0 0 100 100" xml:space="preserve">
<rect x="46.667" y="10" width="6.666" height="20"/>
<rect x="46.667" y="70" width="6.666" height="20"/>
<rect x="10" y="46.667" width="20" height="6.666"/>
<rect x="70" y="46.667" width="20" height="6.666"/>
<rect x="25.455" y="18.786" transform="matrix(0.7071 -0.7071 0.7071 0.7071 -11.9244 28.7873)" width="6.665" height="20.003"/>
<rect x="67.88" y="61.214" transform="matrix(0.7071 -0.7071 0.7071 0.7071 -29.4984 71.2133)" width="6.666" height="20"/>
<rect x="25.454" y="61.213" transform="matrix(-0.7068 -0.7074 0.7074 -0.7068 -1.2409 141.9115)" width="6.668" height="20"/>
<rect x="67.881" y="18.787" transform="matrix(-0.7071 -0.7071 0.7071 -0.7071 101.215 99.4988)" width="6.666" height="20"/>
</svg>
