<?xml version="1.0" encoding="utf-8"?>
<!-- Generator: Adobe Illustrator 16.0.0, SVG Export Plug-In . SVG Version: 6.00 Build 0)  -->
<!DOCTYPE svg PUBLIC "-//W3C//DTD SVG 1.0//EN" "http://www.w3.org/TR/2001/REC-SVG-20010904/DTD/svg10.dtd">
<svg version="1.0" id="Layer_1" xmlns="http://www.w3.org/2000/svg" xmlns:xlink="http://www.w3.org/1999/xlink" x="0px" y="0px"
	 width="100px" height="100px" viewBox="0 0 100 100" enable-background="new 0 0 100 100" xml:space="preserve">
<path d="M50,10c-22.093,0-40,17.907-40,40c0,22.094,17.907,40,40,40h3.333V66.332C60.94,64.785,66.667,58.063,66.667,50V40H60V30
	c0-1.842-1.491-3.333-3.333-3.333c-1.843,0-3.334,1.491-3.334,3.333v10h-6.666V30c0-1.842-1.491-3.333-3.334-3.333
	C41.491,26.667,40,28.158,40,30v10h-6.667v10c0,8.063,5.727,14.785,13.334,16.332v16.832c-16.843-1.674-30-15.879-30-33.164
	c0-18.412,14.922-33.333,33.333-33.333c18.401,0,33.333,14.922,33.333,33.333c0,13.891-8.506,25.781-20.582,30.791l2.529,6.104
	C79.775,80.893,90,66.67,90,50C90,27.907,72.083,10,50,10z M40,50v-3.333h20V50c0,5.514-4.485,10-10,10S40,55.514,40,50z"/>
</svg>
