<svg xmlns="http://www.w3.org/2000/svg" viewBox="0 0 32 32"><g id="plant"><path d="M9.29,25.29l-3,3a1,1,0,0,0,0,1.42,1,1,0,0,0,1.42,0l3-3a1,1,0,0,0-1.42-1.42Z"/><path d="M29.61,13.41a6.89,6.89,0,0,0-5.89-1.16,6.64,6.64,0,0,0-4.58,5.06L17,18.38V14.49a8,8,0,0,0,3.1-5.38,1,1,0,1,0-2-.22A5.88,5.88,0,0,1,17,11.63V10a1,1,0,0,0-2,0v1.64a5.49,5.49,0,0,1-1-4.42,5.38,5.38,0,0,1,2-3,5.8,5.8,0,0,1,1.29,1.35,1,1,0,1,0,1.65-1.12,8.16,8.16,0,0,0-2.42-2.3,1,1,0,0,0-1,0A7.55,7.55,0,0,0,12,6.78a7.78,7.78,0,0,0,3,7.7v3.9L12.85,17.3a6.68,6.68,0,0,0-4.57-5,6.91,6.91,0,0,0-5.89,1.17,1,1,0,0,0-.36,1,7.4,7.4,0,0,0,3.48,4.64A6.86,6.86,0,0,0,8.88,20a8.14,8.14,0,0,0,3.38-.75L15,20.62v1.45a8.17,8.17,0,0,0-2.41.67,1,1,0,0,0,.82,1.82A6.25,6.25,0,0,1,16,24a6.17,6.17,0,0,1,4.41,1.83l3.88,3.88a1,1,0,0,0,1.42,0,1,1,0,0,0,0-1.42l-3.88-3.88A8.23,8.23,0,0,0,17,22.07V20.62l2.8-1.4a8.14,8.14,0,0,0,3.32.73,6.85,6.85,0,0,0,3.37-.87A7.44,7.44,0,0,0,30,14.44,1,1,0,0,0,29.61,13.41Zm-23.12,4a5.23,5.23,0,0,1-2.31-2.7,4.75,4.75,0,0,1,3.54-.47,4.5,4.5,0,0,1,2.35,1.7l-1.62-.81a1,1,0,0,0-.9,1.78L9.66,18A5.08,5.08,0,0,1,6.49,17.39Zm19-.06a4.93,4.93,0,0,1-3.07.57l2-1a1,1,0,1,0-.9-1.78L21.87,16a4.46,4.46,0,0,1,2.41-1.78,4.66,4.66,0,0,1,3.54.47A5.25,5.25,0,0,1,25.51,17.33Z"/></g></svg>