<svg xmlns="http://www.w3.org/2000/svg" viewBox="0 0 32 32"><g id="toggle"><path d="M8.5,15h15a6.5,6.5,0,0,0,0-13H8.5a6.5,6.5,0,0,0,0,13Zm0-11h15a4.5,4.5,0,0,1,0,9H8.5a4.5,4.5,0,0,1,0-9Z"/><path d="M8.5,12A3.5,3.5,0,1,0,5,8.5,3.5,3.5,0,0,0,8.5,12Zm0-5A1.5,1.5,0,1,1,7,8.5,1.5,1.5,0,0,1,8.5,7Z"/><path d="M23.5,16H8.5a6.5,6.5,0,0,0,0,13h15a6.5,6.5,0,0,0,0-13Zm0,11H8.5a4.5,4.5,0,0,1,0-9h15a4.5,4.5,0,0,1,0,9Z"/><path d="M23.5,19A3.5,3.5,0,1,0,27,22.5,3.5,3.5,0,0,0,23.5,19Zm0,5A1.5,1.5,0,1,1,25,22.5,1.5,1.5,0,0,1,23.5,24Z"/></g></svg>