<svg xmlns="http://www.w3.org/2000/svg" viewBox="0 0 32 32"><g id="atom_2" data-name="atom 2"><path d="M13,16a3,3,0,1,0,3-3A3,3,0,0,0,13,16Zm4,0a1,1,0,1,1-1-1A1,1,0,0,1,17,16Z"/><path d="M25.64,11.58c1.42-3.42,1.72-6.39,0-7.81a3.19,3.19,0,0,0-2.47-.65c-2.67.28-6.49,3-10.1,7A29.16,29.16,0,0,0,8.3,11C7.07,8,6.9,5.91,7.62,5.31c.57-.48,2.24-.19,4.7,1.51a1,1,0,0,0,1.14-1.64C10.36,3,7.83,2.53,6.34,3.77c-1.7,1.42-1.4,4.39,0,7.81C3.76,12.59,2,14.07,2,16c0,3.34,5.3,5.36,11.09,5.87.48.54,1,1.06,1.46,1.55-2.49,2.19-4.64,3.33-6,3.47a1.26,1.26,0,0,1-1-.2c-.53-.44-.57-1.72-.11-3.43A1,1,0,0,0,6.8,22a1,1,0,0,0-1.22.71c-.89,3.27-.08,4.79.76,5.49a3,3,0,0,0,2,.67l.46,0c2-.21,4.53-1.7,7.19-4.08,2.66,2.38,5.23,3.87,7.19,4.08l.46,0a3,3,0,0,0,2-.67c2.4-2,.81-7.15-2.35-12.23.55-.88,1-1.76,1.48-2.62C26.86,14.17,28,15.17,28,16a1.71,1.71,0,0,1-.68,1.19,1,1,0,1,0,1.36,1.47A3.59,3.59,0,0,0,30,16C30,14.07,28.24,12.59,25.64,11.58ZM23.4,5.11a1.3,1.3,0,0,1,1,.2c.72.6.55,2.72-.68,5.64a28.14,28.14,0,0,0-4.79-.82c-.48-.53-1-1.05-1.46-1.54C19.94,6.39,22.09,5.25,23.4,5.11Zm-4.35,8.3c.7.88,1.32,1.75,1.88,2.59-.56.84-1.18,1.71-1.88,2.59q-.56.7-1.11,1.35C17.3,20,16.65,20,16,20s-1.31,0-1.94-.06q-.56-.64-1.11-1.35c-.69-.88-1.31-1.74-1.88-2.58.59-.87,1.21-1.75,1.88-2.6q.56-.71,1.11-1.35C14.69,12,15.33,12,16,12s1.31,0,1.94.06C18.31,12.5,18.69,13,19.05,13.41Zm-7.81,6.24c-.75-.12-1.44-.26-2.08-.42.24-.46.49-.91.76-1.38Q10.55,18.77,11.24,19.65ZM16,10l0,0H16Zm-4.75,2.39q-.69.9-1.32,1.8c-.28-.47-.54-.93-.77-1.38C9.8,12.61,10.49,12.47,11.24,12.35ZM4,16c0-.83,1.14-1.83,3.21-2.62.44.86.94,1.75,1.49,2.63-.55.88-1,1.76-1.49,2.62C5.14,17.84,4,16.84,4,16Zm12,6h.05l-.05.05L16,22Zm8.38,4.69a1.26,1.26,0,0,1-1,.2c-1.31-.14-3.46-1.28-5.95-3.47.49-.49,1-1,1.46-1.56a27.17,27.17,0,0,0,4.79-.81C24.93,24,25.1,26.09,24.38,26.69ZM22.84,19.2a20.82,20.82,0,0,1-2.06.42c.45-.58.89-1.17,1.31-1.77C22.35,18.31,22.61,18.76,22.84,19.2Zm-.75-5c-.43-.61-.87-1.21-1.33-1.8.75.12,1.44.26,2.09.42C22.62,13.22,22.36,13.68,22.09,14.15Z"/></g></svg>