<svg xmlns="http://www.w3.org/2000/svg" viewBox="0 0 32 32"><defs><style>.cls-1{fill:#231f20;}</style></defs><g id="megaphone"><path class="cls-1" d="M28.74,3.38a2.9,2.9,0,0,0-2.68-.32l-15.71,6A1,1,0,0,0,10,9H4.74A2.74,2.74,0,0,0,2,11.74v5.52a2.73,2.73,0,0,0,2.15,2.67l1.23,7.9A2.62,2.62,0,0,0,8,30H9.3a2.7,2.7,0,0,0,2.08-.94,2.42,2.42,0,0,0,.57-2l-1-6.67,15.15,5.79a2.9,2.9,0,0,0,1,.19A2.87,2.87,0,0,0,30,23.51V5.77A2.89,2.89,0,0,0,28.74,3.38ZM4,11.74A.74.74,0,0,1,4.74,11H9v7H4.74A.74.74,0,0,1,4,17.26Zm5.86,16A.73.73,0,0,1,9.3,28H8a.65.65,0,0,1-.67-.48L6.19,20H8.83L10,27.39A.46.46,0,0,1,9.86,27.76ZM28,23.51a.9.9,0,0,1-1.21.84L11,18.31V11l15.78-6a.88.88,0,0,1,.83.09.91.91,0,0,1,.39.75Z"/></g></svg>