<?xml version="1.0" encoding="utf-8"?>
<!-- Generator: Adobe Illustrator 16.0.0, SVG Export Plug-In . SVG Version: 6.00 Build 0)  -->
<!DOCTYPE svg PUBLIC "-//W3C//DTD SVG 1.0//EN" "http://www.w3.org/TR/2001/REC-SVG-20010904/DTD/svg10.dtd">
<svg version="1.0" id="Layer_1" xmlns="http://www.w3.org/2000/svg" xmlns:xlink="http://www.w3.org/1999/xlink" x="0px" y="0px"
	 width="100px" height="100px" viewBox="0 0 100 100" enable-background="new 0 0 100 100" xml:space="preserve">
<path d="M85,58.203V41.797c2.942-1.289,5-4.219,5-7.63c0-4.604-3.73-8.334-8.333-8.334c-2.028,0-3.861,0.756-5.303,1.957
	l-18.073-9.037c0.007-0.14,0.042-0.276,0.042-0.42C58.333,13.73,54.603,10,50,10c-4.606,0-8.333,3.73-8.333,8.333
	c0,0.144,0.035,0.28,0.042,0.42L23.64,27.786c-1.445-1.197-3.278-1.953-5.307-1.953c-4.605,0-8.333,3.73-8.333,8.334
	c0,3.411,2.058,6.341,5,7.63v16.406c-2.942,1.289-5,4.212-5,7.63c0,4.597,3.728,8.334,8.333,8.334c2.025,0,3.861-0.749,5.303-1.953
	l18.073,9.036c-0.007,0.144-0.042,0.273-0.042,0.417C41.667,86.263,45.394,90,50,90c4.603,0,8.333-3.737,8.333-8.333
	c0-0.144-0.035-0.273-0.042-0.417l18.073-9.036c1.445,1.204,3.277,1.953,5.303,1.953c4.603,0,8.333-3.737,8.333-8.334
	C90,62.422,87.942,59.492,85,58.203z M81.667,30.833c1.839,0,3.333,1.498,3.333,3.334c0,1.842-1.494,3.333-3.333,3.333
	c-1.84,0-3.334-1.491-3.334-3.333C78.333,32.331,79.827,30.833,81.667,30.833z M50,15c1.839,0,3.333,1.491,3.333,3.333
	c0,1.836-1.494,3.333-3.333,3.333c-1.843,0-3.333-1.498-3.333-3.333C46.667,16.491,48.157,15,50,15z M26.624,33.75l18.073-9.036
	c1.442,1.204,3.278,1.953,5.303,1.953s3.857-0.749,5.303-1.953l18.073,9.036c-0.007,0.144-0.043,0.273-0.043,0.417
	c0,0.143,0.036,0.279,0.043,0.42l-18.073,9.036c-1.442-1.201-3.278-1.956-5.303-1.956c-2.028,0-3.86,0.755-5.306,1.953l-18.07-9.033
	c0.007-0.141,0.043-0.277,0.043-0.42C26.667,34.023,26.631,33.894,26.624,33.75z M53.333,50c0,1.843-1.494,3.333-3.333,3.333
	s-3.333-1.49-3.333-3.333c0-1.836,1.494-3.333,3.333-3.333S53.333,48.164,53.333,50z M18.333,30.833c1.84,0,3.334,1.498,3.334,3.334
	c0,1.842-1.494,3.333-3.334,3.333C16.494,37.5,15,36.009,15,34.167C15,32.331,16.494,30.833,18.333,30.833z M18.333,69.167
	c-1.839,0-3.333-1.491-3.333-3.334c0-1.836,1.494-3.333,3.333-3.333c1.84,0,3.334,1.497,3.334,3.333
	C21.667,67.676,20.173,69.167,18.333,69.167z M26.624,66.25c0.007-0.137,0.043-0.273,0.043-0.417c0-3.418-2.058-6.341-5-7.63V41.797
	c0.723-0.315,1.37-0.752,1.969-1.25l18.073,9.036c-0.007,0.144-0.042,0.273-0.042,0.417c0,3.411,2.057,6.341,5,7.63v16.406
	c-0.723,0.319-1.374,0.756-1.973,1.25L26.624,66.25z M50,85c-1.839,0-3.333-1.491-3.333-3.333c0-1.836,1.494-3.334,3.333-3.334
	s3.333,1.498,3.333,3.334C53.333,83.509,51.839,85,50,85z M73.333,65.833c0,0.144,0.036,0.28,0.043,0.417l-18.073,9.036
	c-0.599-0.494-1.247-0.931-1.97-1.25V57.63c2.943-1.289,5-4.219,5-7.63c0-0.144-0.035-0.273-0.042-0.417l18.073-9.036
	c0.599,0.498,1.246,0.935,1.969,1.25v16.406C75.394,59.492,73.333,62.422,73.333,65.833z M81.667,69.167
	c-1.84,0-3.334-1.491-3.334-3.334c0-1.836,1.494-3.333,3.334-3.333c1.839,0,3.333,1.497,3.333,3.333
	C85,67.676,83.506,69.167,81.667,69.167z"/>
</svg>
