<svg xmlns="http://www.w3.org/2000/svg" viewBox="0 0 32 32"><defs><style>.cls-1{fill:#231f20;}</style></defs><g id="aquarium"><path class="cls-1" d="M30,6V3a1,1,0,0,0-1-1H3A1,1,0,0,0,2,3V6A1,1,0,0,0,3,7V25a1,1,0,0,0-1,1v3a1,1,0,0,0,1,1H29a1,1,0,0,0,1-1V26a1,1,0,0,0-1-1V10a1,1,0,0,0-2,0V25H10a1,1,0,0,0,0,2H28v1H4V27H6a1,1,0,0,0,0-2H5V7H29A1,1,0,0,0,30,6ZM28,5H4V4H28Z"/><path class="cls-1" d="M17,11a8.75,8.75,0,0,0-5.11,1.82L8.45,11.1a1,1,0,0,0-1,.05A1,1,0,0,0,7,12v8a1,1,0,0,0,1.45.89l3.42-1.71A8.81,8.81,0,0,0,17,21h.16c4.87,0,7.59-4.29,7.71-4.47a1,1,0,0,0,0-1.06C24.73,15.28,22,10.89,17,11Zm0,8a6.94,6.94,0,0,1-4.36-1.75A1,1,0,0,0,12,17a1,1,0,0,0-.45.1L9,18.38V13.62l2.55,1.27a1,1,0,0,0,1.11-.14A6.89,6.89,0,0,1,17,13h.12a7.5,7.5,0,0,1,5.62,3A7.55,7.55,0,0,1,17,19Z"/></g></svg>