<?xml version="1.0" encoding="utf-8"?>
<!-- Generator: Adobe Illustrator 16.0.0, SVG Export Plug-In . SVG Version: 6.00 Build 0)  -->
<!DOCTYPE svg PUBLIC "-//W3C//DTD SVG 1.0//EN" "http://www.w3.org/TR/2001/REC-SVG-20010904/DTD/svg10.dtd">
<svg version="1.0" id="Layer_1" xmlns="http://www.w3.org/2000/svg" xmlns:xlink="http://www.w3.org/1999/xlink" x="0px" y="0px"
	 width="100px" height="100px" viewBox="0 0 100 100" enable-background="new 0 0 100 100" xml:space="preserve">
<path d="M50.069,54.645L90,14.714l-4.715-4.713L45.352,49.935l-9.427-9.427c-2.604-2.604-6.823-2.604-9.428,0l0.01,0.01
	l-0.016-0.007L10,57.002l4.704,4.723l7.076-7.076l4.714,4.713l-7.07,7.073l4.717,4.714l7.07-7.07l4.714,4.714l-7.074,7.069
	l4.717,4.714l7.07-7.07l4.714,4.714l-7.067,7.063l4.714,4.717l16.49-16.49l-0.01-0.023l0.02,0.02c2.605-2.604,2.605-6.826,0-9.434
	L50.069,54.645z M54.779,68.798l-4.708,4.707l-23.577-23.57l4.71-4.71l0.004-0.007l23.577,23.577L54.779,68.798z"/>
</svg>
