<svg xmlns="http://www.w3.org/2000/svg" viewBox="0 0 32 32"><g id="gold_bar" data-name="gold bar"><path d="M30,26.73l-.56-2a1,1,0,0,0-1.24-.69,1,1,0,0,0-.68,1.24l.19.69H17.33l1.42-5h7.5l.32,1.13a1,1,0,1,0,1.92-.55L28,19.72A1,1,0,0,0,27,19H23.74L21.8,12.71a1,1,0,0,0-.95-.71h-4a1,1,0,1,0,0,2h3.21l1.54,5H10.35l1.54-5h1.27a1,1,0,0,0,0-2h-2a1,1,0,0,0-1,.71L8.26,19H5a1,1,0,0,0-1,.73l-2,7a1,1,0,0,0,.16.87A1,1,0,0,0,3,28H6.08a1,1,0,0,0,0-2H4.33l1.42-5h7.5l1.42,5H10.11a1,1,0,0,0,0,2H29a1,1,0,0,0,.8-.4A1,1,0,0,0,30,26.73ZM16.67,21,16,23.36,15.33,21Z"/><path d="M7.29,11.71a1,1,0,0,0,1.42,0,1,1,0,0,0,0-1.42l-2-2A1,1,0,0,0,5.29,9.71Z"/><path d="M24,12a1,1,0,0,0,.71-.29l2-2a1,1,0,0,0-1.42-1.42l-2,2a1,1,0,0,0,0,1.42A1,1,0,0,0,24,12Z"/><path d="M16,9a1,1,0,0,0,1-1V5a1,1,0,0,0-2,0V8A1,1,0,0,0,16,9Z"/><path d="M10.6,8.8a1,1,0,0,0,.94.68,1.26,1.26,0,0,0,.33-.05,1,1,0,0,0,.62-1.27l-1-2.84A1,1,0,1,0,9.63,6Z"/><path d="M20.19,9.36a1.25,1.25,0,0,0,.32.05,1,1,0,0,0,.95-.68l1-2.84a1,1,0,0,0-1.89-.64l-1,2.84A1,1,0,0,0,20.19,9.36Z"/></g></svg>