<svg xmlns="http://www.w3.org/2000/svg" viewBox="0 0 32 32"><g id="paint_brush_2" data-name="paint brush 2"><path d="M23.1,2H8.9A1.9,1.9,0,0,0,7,3.9V16.06A4.94,4.94,0,0,0,11.94,21h5.34L18,27.17a.64.64,0,0,1-.16.52,1,1,0,0,1-.73.31H14.9a1,1,0,0,1-.73-.31.66.66,0,0,1-.16-.54l.35-3a1,1,0,0,0-2-.24l-.35,3a2.66,2.66,0,0,0,.65,2.1,2.92,2.92,0,0,0,2.23,1h2.2a2.92,2.92,0,0,0,2.23-1A2.64,2.64,0,0,0,20,26.92L19.29,21h.77A4.94,4.94,0,0,0,25,16.06V3.9A1.9,1.9,0,0,0,23.1,2ZM23,16.06A2.94,2.94,0,0,1,20.06,19H11.94A2.94,2.94,0,0,1,9,16.06V16H20a1,1,0,0,0,0-2H9V4H23Z"/></g></svg>