<svg xmlns="http://www.w3.org/2000/svg" viewBox="0 0 32 32"><defs><style>.cls-1{fill:#231f20;}</style></defs><g id="water"><path class="cls-1" d="M21.38,25.15A6.44,6.44,0,0,1,16.14,28h-.36a6.53,6.53,0,0,1-4.86-2.45,6.9,6.9,0,0,1-1.43-5.49A36.75,36.75,0,0,1,11,14.32a36.09,36.09,0,0,1,1.59-3.89,1,1,0,0,0-1.8-.86,38.57,38.57,0,0,0-1.69,4.11,38.18,38.18,0,0,0-1.53,6A8.89,8.89,0,0,0,9.37,26.8,8.61,8.61,0,0,0,15.69,30h.47A8.39,8.39,0,0,0,23,26.29a1,1,0,0,0-1.64-1.14Z"/><path class="cls-1" d="M24.48,19.71a39.17,39.17,0,0,0-1.53-6,38.6,38.6,0,0,0-6.16-11.3,1,1,0,0,0-1.58,0,38.79,38.79,0,0,0-2.82,4.11,1,1,0,1,0,1.72,1c.58-1,1.22-1.94,1.89-2.86a36,36,0,0,1,5.05,9.67,36.46,36.46,0,0,1,1.46,5.73,7,7,0,0,1,0,2.42,1,1,0,0,0,.8,1.17h.18a1,1,0,0,0,1-.81A8.9,8.9,0,0,0,24.48,19.71Z"/><path class="cls-1" d="M11,20.08a6.8,6.8,0,0,0,2.37,4.7A6.21,6.21,0,0,0,15.75,26,1.07,1.07,0,0,0,16,26a1,1,0,0,0,.25-2,4.26,4.26,0,0,1-1.62-.81A4.73,4.73,0,0,1,13,19.92a1,1,0,0,0-2,.16Z"/></g></svg>