<svg xmlns="http://www.w3.org/2000/svg" viewBox="0 0 32 32"><title>water bottle glass</title><g id="water_bottle" data-name="water bottle"><path d="M13.65,6.56,12,5.46V3a1,1,0,0,0-1-1H8A1,1,0,0,0,7,3V5.46L5.35,6.56A3.06,3.06,0,0,0,4,9.09V27A3.06,3.06,0,0,0,7.05,30H12A3.06,3.06,0,0,0,15,27V9.09A3.06,3.06,0,0,0,13.65,6.56ZM6,12h7v4H6Zm4-8V5H9V4ZM6.46,8.23,8.3,7h2.4l1.84,1.23a1,1,0,0,1,.46.86V10H6V9.09A1,1,0,0,1,6.46,8.23ZM12,28H7.05A1,1,0,0,1,6,27V18h7v9A1,1,0,0,1,12,28ZM27.73,13.32A1,1,0,0,0,27,13H18a1,1,0,0,0-.73.32,1,1,0,0,0-.27.75l.85,12.73A3.44,3.44,0,0,0,21.27,30h2.46a3.44,3.44,0,0,0,3.42-3.2L28,14.07A1,1,0,0,0,27.73,13.32ZM25.15,26.67A1.43,1.43,0,0,1,23.73,28H21.27a1.43,1.43,0,0,1-1.42-1.33L19.07,15h6.86Z"/></g></svg>