<svg xmlns="http://www.w3.org/2000/svg" viewBox="0 0 32 32"><g id="mars"><path d="M16,2A14,14,0,1,0,30,16,14,14,0,0,0,16,2ZM4,16h9.65a6.63,6.63,0,0,0,4.72-1.95A3.52,3.52,0,0,1,20.89,13h.66a3.54,3.54,0,0,1,3,1.59A3.18,3.18,0,0,0,27.16,16H28a12,12,0,0,1-.18,2h-.66a3.18,3.18,0,0,0-2.64,1.41,3.54,3.54,0,0,1-3,1.59h-.66A3.52,3.52,0,0,1,18.37,20,6.63,6.63,0,0,0,13.65,18H4.18A12,12,0,0,1,4,16Zm1.11-5h8.54a6.63,6.63,0,0,0,4.72-1.95A3.52,3.52,0,0,1,20.89,8h.66a3.54,3.54,0,0,1,3,1.59A3.19,3.19,0,0,0,26.88,11a11.87,11.87,0,0,1,.94,3h-.66a1.16,1.16,0,0,1-1-.52A5.58,5.58,0,0,0,21.55,11h-.66A5.57,5.57,0,0,0,17,12.63,4.64,4.64,0,0,1,13.65,14H4.18A11.76,11.76,0,0,1,5.11,11ZM16,4a12,12,0,0,1,6.84,2.15A6.15,6.15,0,0,0,21.55,6h-.66A5.57,5.57,0,0,0,17,7.63,4.64,4.64,0,0,1,13.65,9H6.27A12,12,0,0,1,16,4Zm0,24a11.93,11.93,0,0,1-7.91-3H14a1,1,0,0,0,0-2H6.27A11.75,11.75,0,0,1,4.7,20h9A4.64,4.64,0,0,1,17,21.37,5.57,5.57,0,0,0,20.89,23h.66a5.58,5.58,0,0,0,4.64-2.48,1.16,1.16,0,0,1,1-.52h.14A12,12,0,0,1,16,28Z"/><path d="M21,20a3,3,0,1,0-3-3A3,3,0,0,0,21,20Zm0-4a1,1,0,1,1-1,1A1,1,0,0,1,21,16Z"/><path d="M11,8h3a1,1,0,0,0,0-2H11a1,1,0,0,0,0,2Z"/></g></svg>