<svg xmlns="http://www.w3.org/2000/svg" viewBox="0 0 32 32"><title>lamp android app aplication phone</title><g id="lamp_android_app_aplication_phone" data-name="lamp android app aplication phone"><path d="M22,21.19c.16-5.81,3-6.9,3-11.19A9,9,0,0,0,7.07,8.87c-.6,5,2.72,6.31,2.92,12.32a3,3,0,0,0,.23,5.69A3,3,0,0,0,13,31h6a3,3,0,0,0,2.78-4.12A3,3,0,0,0,22,21.19ZM9.06,9.11A7,7,0,0,1,23,10c0,3.59-2.71,4.69-3,11H17V16.82a3,3,0,1,0-2,0V21H12C11.68,14.59,8.56,13.21,9.06,9.11ZM16,15a1,1,0,1,1,1-1A1,1,0,0,1,16,15Zm3,14H13a1,1,0,0,1,0-2h6a1,1,0,0,1,0,2Zm2-4H11a1,1,0,0,1,0-2H21a1,1,0,0,1,0,2Z"/><path d="M16,10a1,1,0,0,0,1-1V7a1,1,0,0,0-2,0V9A1,1,0,0,0,16,10Z"/><path d="M13.17,11.17a1,1,0,0,0,0-1.41L11.76,8.34a1,1,0,0,0-1.42,1.42l1.42,1.41A1,1,0,0,0,13.17,11.17Z"/><path d="M20.24,11.17l1.42-1.41a1,1,0,0,0-1.42-1.42L18.83,9.76a1,1,0,1,0,1.41,1.41Z"/></g></svg>