<svg xmlns="http://www.w3.org/2000/svg" viewBox="0 0 32 32"><g id="neptune"><path d="M28.93,10.63l0,0a14,14,0,0,0-23-4.29A1,1,0,1,0,7.34,7.69,12,12,0,0,1,23.91,7H20a1,1,0,0,0,0,2h5.73c.23.32.45.66.65,1H17a1,1,0,0,0,0,2H27.3a12.05,12.05,0,0,1,.7,4,11.77,11.77,0,0,1-1.11,5H19a1,1,0,0,0,0,2h6.73a11.06,11.06,0,0,1-.81,1H22a1,1,0,0,0,0,2h.62A12,12,0,0,1,4.7,20H13a1,1,0,0,0,0-2H4.18A12,12,0,0,1,4,16H8a1,1,0,0,0,0-2H4.19a12.26,12.26,0,0,1,1.16-3.54,1,1,0,1,0-1.77-.92,14,14,0,1,0,25.35,1.09Z"/><path d="M23,18a1,1,0,0,0,0-2H21a1,1,0,0,0,0,2Z"/><path d="M11,10a1,1,0,0,0,0-2H10a1,1,0,0,0,0,2Z"/><path d="M13,24H12a1,1,0,0,0,0,2h1a1,1,0,0,0,0-2Z"/></g></svg>