<svg xmlns="http://www.w3.org/2000/svg" viewBox="0 0 32 32"><g id="molecular"><path d="M26.5,20a3.49,3.49,0,0,0-2.14.74L20.8,18.33A4.92,4.92,0,0,0,21,17a5,5,0,0,0-1.25-3.31A1,1,0,1,0,18.25,15,3,3,0,1,1,16,14a1,1,0,0,0,1-1V8.82a3,3,0,1,0-2,0V12.1a5,5,0,0,0-3.46,2.69L7,13.27a2.5,2.5,0,1,0-.63,1.9L11,16.73A2.48,2.48,0,0,0,11,17a5,5,0,0,0,.8,2.7L6.36,24.23a.24.24,0,0,0-.06.08A3,3,0,1,0,8,27a2.9,2.9,0,0,0-.3-1.28l5.5-4.58a4.95,4.95,0,0,0,6.67-1l3.91,2.64a1,1,0,0,0,.31.13,1,1,0,0,0,1.21-.29A1.5,1.5,0,1,1,26.5,25a1.46,1.46,0,0,1-.9-.3,1,1,0,0,0-1.2,1.6,3.47,3.47,0,0,0,2.1.7,3.5,3.5,0,0,0,0-7ZM16,5a1,1,0,1,1-1,1A1,1,0,0,1,16,5ZM4.5,14a.5.5,0,1,1,.5-.5A.5.5,0,0,1,4.5,14ZM5,28a1,1,0,1,1,1-1A1,1,0,0,1,5,28Z"/></g></svg>