<svg xmlns="http://www.w3.org/2000/svg" viewBox="0 0 32 32"><g id="space_ship" data-name="space ship"><path d="M29.75,22.34l-2-2.25a1,1,0,1,0-1.5,1.32l.52.59H22V16.63l1.81,2a1,1,0,0,0,.75.34,1,1,0,0,0,.74-1.66L22,13.62v-2a11.24,11.24,0,0,0-3.17-7.89l-.9-.93a2.75,2.75,0,0,0-3.86,0l-.9.93a1,1,0,1,0,1.43,1.4l.91-.94a.69.69,0,0,1,1,0l.91.93a9.33,9.33,0,0,1,2.25,3.94l-.12,0A7.51,7.51,0,0,1,16,10a7.55,7.55,0,0,1-3.53-.88.38.38,0,0,0-.1,0A8.84,8.84,0,0,1,13,7.44a1,1,0,0,0-1.79-.89A11.5,11.5,0,0,0,10,11.64v2L2.25,22.34A1,1,0,0,0,3,24H4v2a1,1,0,0,0,1,1H8a1,1,0,0,0,1-1V24h1v.65A2.33,2.33,0,0,0,12,27v2a1,1,0,0,0,1,1h6a1,1,0,0,0,1-1V27a2.35,2.35,0,0,0,2-2.32V24h1v2a1,1,0,0,0,1,1h3a1,1,0,0,0,1-1V24h1a1,1,0,0,0,.75-1.66ZM7,25H6V24H7Zm1-3H5.23L10,16.63V22Zm10,6H14V27h4Zm2-3.35a.35.35,0,0,1-.35.35h-7.3a.35.35,0,0,1-.35-.35v-13c0-.17,0-.34,0-.51A9.54,9.54,0,0,0,16,12a9.5,9.5,0,0,0,4-.88c0,.17,0,.34,0,.52ZM26,25H25V24h1Z"/></g></svg>