<?xml version="1.0" encoding="utf-8"?>
<!-- Generator: Adobe Illustrator 16.0.0, SVG Export Plug-In . SVG Version: 6.00 Build 0)  -->
<!DOCTYPE svg PUBLIC "-//W3C//DTD SVG 1.0//EN" "http://www.w3.org/TR/2001/REC-SVG-20010904/DTD/svg10.dtd">
<svg version="1.0" id="Layer_1" xmlns="http://www.w3.org/2000/svg" xmlns:xlink="http://www.w3.org/1999/xlink" x="0px" y="0px"
	 width="100px" height="100px" viewBox="0 0 100 100" enable-background="new 0 0 100 100" xml:space="preserve">
<path d="M10,59.999C10,76.565,23.433,90,40,90C40,73.435,26.568,59.999,10,59.999z M18.127,68.124
	c6.34,2.364,11.385,7.41,13.747,13.751C25.534,79.512,20.489,74.466,18.127,68.124z"/>
<path d="M60,90c16.564,0,30-13.435,30-30.001C73.434,59.999,60,73.431,60,90z M68.125,81.875c2.363-6.341,7.408-11.387,13.75-13.751
	C79.512,74.466,74.465,79.512,68.125,81.875z"/>
<path d="M26.667,10v36.663c0,11.751,8.698,21.448,20,23.069V90h6.667V69.732c11.301-1.621,19.998-11.318,19.998-23.065V10H26.667z
	 M33.333,46.663V23.333c13.698,0,25.764,6.145,30.813,14.626C53.135,41.116,44.5,49.817,41.351,60.839
	C36.564,57.906,33.333,52.676,33.333,46.663z M50,63.333c-0.82,0-1.607-0.127-2.396-0.244c2.458-9.183,9.681-16.411,18.867-18.855
	c0.123,0.803,0.195,1.613,0.195,2.434C66.666,55.855,59.189,63.333,50,63.333z M66.666,30.098
	c-7.164-8.09-19.414-13.432-33.333-13.432h33.333V30.098z"/>
</svg>
