<svg xmlns="http://www.w3.org/2000/svg" viewBox="0 0 32 32"><title>favourite android app aplication phone</title><g id="favourite_android_app_aplication_phone" data-name="favourite android app aplication phone"><path d="M30.56,8.47a8,8,0,0,0-7-7,64.29,64.29,0,0,0-15.06,0,8,8,0,0,0-7,7,64.29,64.29,0,0,0,0,15.06,8,8,0,0,0,7,7,64.29,64.29,0,0,0,15.06,0,8,8,0,0,0,7-7A64.29,64.29,0,0,0,30.56,8.47Zm-2,14.83a6,6,0,0,1-5.28,5.28,63.65,63.65,0,0,1-14.6,0A6,6,0,0,1,3.42,23.3a63.65,63.65,0,0,1,0-14.6A6,6,0,0,1,8.7,3.42a63.65,63.65,0,0,1,14.6,0A6,6,0,0,1,28.58,8.7,63.65,63.65,0,0,1,28.58,23.3Z"/><path d="M26.14,12.77l-6.39-.93L16.9,6.05a1,1,0,0,0-1.8,0l-2.85,5.79-6.39.93a1,1,0,0,0-.56,1.7L9.93,19l-1.1,6.36a1,1,0,0,0,1.46,1.06l5.71-3,5.71,3a1,1,0,0,0,1.46-1.06L22.07,19l4.63-4.51A1,1,0,0,0,26.14,12.77ZM20.3,17.91a1,1,0,0,0-.29.89l.84,4.88-4.38-2.3a1,1,0,0,0-.94,0l-4.38,2.3L12,18.8a1,1,0,0,0-.29-.89L8.15,14.45l4.9-.71a1,1,0,0,0,.76-.55L16,8.75l2.19,4.44a1,1,0,0,0,.76.55l4.9.71Z"/></g></svg>