<?xml version="1.0" encoding="utf-8"?>
<!-- Generator: Adobe Illustrator 16.0.0, SVG Export Plug-In . SVG Version: 6.00 Build 0)  -->
<!DOCTYPE svg PUBLIC "-//W3C//DTD SVG 1.0//EN" "http://www.w3.org/TR/2001/REC-SVG-20010904/DTD/svg10.dtd">
<svg version="1.0" id="Layer_1" xmlns="http://www.w3.org/2000/svg" xmlns:xlink="http://www.w3.org/1999/xlink" x="0px" y="0px"
	 width="100px" height="100px" viewBox="0 0 100 100" enable-background="new 0 0 100 100" xml:space="preserve">
<path d="M73.333,83.333l-0.006,0.007v-0.007c-7.363,0-13.324-5.97-13.327-13.33h20v-20l-14.063-8.44
	C64.063,29.333,58.359,18.359,50,10c-8.362,8.359-14.065,19.333-15.938,31.563L20,50.003v20h20c0,7.367-5.974,13.334-13.333,13.334
	v-0.004H10V90h16.667c11.041,0,20-8.948,20-19.997h6.666C53.337,81.045,62.278,90,73.327,90v-0.007L73.333,90H90v-6.667H73.333z
	 M73.333,53.776c0,0,0,9.557,0,9.561h-6.666V50.225c0-0.156-0.023-0.31-0.023-0.466L73.333,53.776z M33.333,50.225v13.112h-6.666
	c0-0.004,0-9.561,0-9.561l6.689-4.018C33.356,49.915,33.333,50.068,33.333,50.225z M40,63.337V50.225
	c0-10.993,3.509-21.448,10-30.085c6.491,8.637,10,19.092,10,30.085v13.112H40z"/>
<circle cx="50" cy="40" r="3.333"/>
<circle cx="50" cy="53.333" r="3.333"/>
</svg>
