<svg xmlns="http://www.w3.org/2000/svg" viewBox="0 0 32 32"><defs><style>.cls-1{fill:#231f20;}</style></defs><g id="heart_rate" data-name="heart rate"><path class="cls-1" d="M22.23,20.44A20.82,20.82,0,0,1,15,25.9a20.82,20.82,0,0,1-7.23-5.46A16.47,16.47,0,0,1,3.94,10.5,4.62,4.62,0,0,1,8.43,6L9,6a5.66,5.66,0,0,1,5.1,2.83,1,1,0,0,0,1.8,0A5.66,5.66,0,0,1,21,6l.56,0a4.62,4.62,0,0,1,4.5,4.48,16.21,16.21,0,0,1-.46,3.26,1,1,0,0,0,1.95.48,18.87,18.87,0,0,0,.51-3.66A6.61,6.61,0,0,0,21.73,4c-.24,0-.48,0-.73,0a7.92,7.92,0,0,0-6,2.59A8.1,8.1,0,0,0,8.27,4a6.61,6.61,0,0,0-6.33,6.55A18.41,18.41,0,0,0,6.23,21.71a22.91,22.91,0,0,0,8.36,6.2,1,1,0,0,0,.82,0,22.91,22.91,0,0,0,8.36-6.2,1,1,0,0,0-1.54-1.27Z"/><path class="cls-1" d="M29,16H23a1,1,0,0,0-.71.29l-.85.86L20,12.68a1,1,0,0,0-.88-.68,1,1,0,0,0-1,.55L16.38,16H13a1,1,0,0,0,0,2h4a1,1,0,0,0,.89-.55l.92-1.84,1.24,3.71a1,1,0,0,0,.72.65A.91.91,0,0,0,21,20a1,1,0,0,0,.71-.29L23.41,18H29a1,1,0,0,0,0-2Z"/></g></svg>