<?xml version="1.0" encoding="utf-8"?>
<!-- Generator: Adobe Illustrator 16.0.0, SVG Export Plug-In . SVG Version: 6.00 Build 0)  -->
<!DOCTYPE svg PUBLIC "-//W3C//DTD SVG 1.0//EN" "http://www.w3.org/TR/2001/REC-SVG-20010904/DTD/svg10.dtd">
<svg version="1.0" id="Layer_1" xmlns="http://www.w3.org/2000/svg" xmlns:xlink="http://www.w3.org/1999/xlink" x="0px" y="0px"
	 width="100px" height="100px" viewBox="0 0 100 100" enable-background="new 0 0 100 100" xml:space="preserve">
<path d="M81.315,60c1.282-2.503,2.018-5.329,2.018-8.333c0-9.027-6.523-16.508-15.107-18.034c0.068-0.647,0.107-1.302,0.107-1.966
	c0-10.127-8.206-18.334-18.333-18.334c-10.123,0-18.334,8.207-18.334,18.334c0,0.664,0.039,1.318,0.109,1.966
	c-8.584,1.526-15.109,9.007-15.109,18.034c0,3.004,0.738,5.83,2.02,8.333H10l5.051,20.198c0.889,3.559,4.615,6.469,8.283,6.469
	h53.333c3.665,0,7.396-2.91,8.284-6.469L90,60H81.315z M65,40c6.433,0,11.667,5.234,11.667,11.667c0,3.265-1.357,6.214-3.529,8.333
	H56.862c-2.172-2.119-3.529-5.068-3.529-8.333C53.333,45.234,58.567,40,65,40z M50,20c6.433,0,11.667,5.234,11.667,11.667
	c0,0.689-0.088,1.357-0.205,2.015c-4.724,0.925-8.793,3.665-11.462,7.464c-2.67-3.802-6.736-6.539-11.463-7.464
	c-0.115-0.657-0.203-1.325-0.203-2.015C38.334,25.234,43.568,20,50,20z M35,40c6.432,0,11.666,5.234,11.666,11.667
	c0,3.265-1.357,6.214-3.526,8.333H26.86c-2.169-2.119-3.526-5.068-3.526-8.333C23.334,45.234,28.568,40,35,40z M78.483,78.581
	C78.337,79.167,77.269,80,76.667,80H23.334c-0.602,0-1.67-0.833-1.815-1.416l-2.979-11.917h62.923L78.483,78.581z"/>
</svg>
