<svg width="32" height="32" xmlns="http://www.w3.org/2000/svg">

 <g>
  <title>background</title>
  <rect fill="none" id="canvas_background" height="402" width="582" y="-1" x="-1"/>
 </g>
 <g>
  <title>Layer 1</title>
  <g id="decision_making">
   <path id="svg_1" d="m30,16a5,5 0 0 0 -2.25,-4.13a3.8,3.8 0 0 0 0.55,-1.23a3.66,3.66 0 0 0 -0.45,-2.87a4,4 0 0 0 -4,-1.78a4.93,4.93 0 0 0 -1.11,-2.2a6.21,6.21 0 0 0 -6.74,-1.35a7.26,7.26 0 0 0 -3.1,-0.44a1,1 0 0 0 -0.9,1.1a1,1 0 0 0 1.1,0.9a5.15,5.15 0 0 1 1.9,0.2l0,20.8a1,1 0 0 0 2,0l0,-20.79a4.15,4.15 0 0 1 4.25,0.91a3.24,3.24 0 0 1 0.75,2.2a1,1 0 0 0 0.49,0.88a1,1 0 0 0 1,0a2,2 0 0 1 2.65,0.62a1.72,1.72 0 0 1 0.21,1.33a1.79,1.79 0 0 1 -0.86,1.12a1,1 0 0 0 -0.49,1a1,1 0 0 0 0.72,0.83a3,3 0 0 1 0,5.78a1,1 0 0 0 -0.72,0.83a1,1 0 0 0 0.49,1a1.79,1.79 0 0 1 0.86,1.12a1.72,1.72 0 0 1 -0.21,1.33a2,2 0 0 1 -2.65,0.62a1,1 0 0 0 -1,0a1,1 0 0 0 -0.49,0.88a3.24,3.24 0 0 1 -0.75,2.2a4.35,4.35 0 0 1 -4.87,0.7l-0.09,0a1,1 0 0 0 -0.29,-0.06a1.07,1.07 0 0 0 -0.3,0.06l-0.08,0a4.35,4.35 0 0 1 -4.87,-0.7a3.24,3.24 0 0 1 -0.75,-2.2a1,1 0 0 0 -0.49,-0.88a1,1 0 0 0 -1,0a2,2 0 0 1 -2.65,-0.62a1.72,1.72 0 0 1 -0.21,-1.33a1.79,1.79 0 0 1 0.86,-1.12a1,1 0 0 0 0.49,-1a1,1 0 0 0 -0.72,-0.83a3,3 0 0 1 0,-5.78a1,1 0 0 0 0.72,-0.82a1,1 0 0 0 -0.49,-1a1.79,1.79 0 0 1 -0.86,-1.12a1.72,1.72 0 0 1 0.21,-1.33a2,2 0 0 1 2.64,-0.62a1,1 0 0 0 1,0a1,1 0 0 0 0.5,-0.89a3.43,3.43 0 0 1 0.45,-1.8a1,1 0 1 0 -1.71,-1a5.06,5.06 0 0 0 -0.6,1.48a4,4 0 0 0 -4,1.78a3.67,3.67 0 0 0 -0.45,2.87a3.8,3.8 0 0 0 0.55,1.23a4.92,4.92 0 0 0 0,8.26a3.8,3.8 0 0 0 -0.55,1.23a3.67,3.67 0 0 0 0.45,2.87a4,4 0 0 0 4,1.78a4.93,4.93 0 0 0 1.11,2.2a5.69,5.69 0 0 0 4.3,1.8a7.38,7.38 0 0 0 2.45,-0.45a7.38,7.38 0 0 0 2.45,0.44a5.69,5.69 0 0 0 4.3,-1.8a4.93,4.93 0 0 0 1.11,-2.21a4,4 0 0 0 4,-1.78a3.66,3.66 0 0 0 0.45,-2.87a3.8,3.8 0 0 0 -0.55,-1.23a5,5 0 0 0 2.24,-4.12z"/>
  </g>
 </g>
</svg>