<svg xmlns="http://www.w3.org/2000/svg" viewBox="0 0 32 32"><g id="tracking_app" data-name="tracking app"><path d="M27.67,4H4.33A2.33,2.33,0,0,0,2,6.33V9A1,1,0,0,0,4,9V6.33A.33.33,0,0,1,4.33,6H27.67a.33.33,0,0,1,.33.33V21.67a.33.33,0,0,1-.33.33H4.33A.33.33,0,0,1,4,21.67V21H25a1,1,0,0,0,0-2H4V13a1,1,0,0,0-2,0v8.67A2.33,2.33,0,0,0,4.33,24H12a11.55,11.55,0,0,1-.68,3H11a1,1,0,0,0,0,2H21a1,1,0,0,0,0-2h-.31A11.55,11.55,0,0,1,20,24h7.66A2.33,2.33,0,0,0,30,21.67V6.33A2.33,2.33,0,0,0,27.67,4Zm-9.1,23H13.43A13.24,13.24,0,0,0,14,24.08s0,0,0-.08h4s0,.05,0,.08A13.24,13.24,0,0,0,18.57,27Z"/><path d="M24.44,17A1.56,1.56,0,0,0,26,15.44V10.56A1.56,1.56,0,0,0,24.44,9H19.56A1.56,1.56,0,0,0,18,10.56v4.88A1.56,1.56,0,0,0,19.56,17ZM20,11h4v4H20Z"/><path d="M7,11h6a1,1,0,0,0,0-2H7a1,1,0,0,0,0,2Z"/><path d="M7,14h6a1,1,0,0,0,0-2H7a1,1,0,0,0,0,2Z"/><path d="M7,17h6a1,1,0,0,0,0-2H7a1,1,0,0,0,0,2Z"/></g></svg>