<?xml version="1.0" encoding="utf-8"?>
<!-- Generator: Adobe Illustrator 16.0.0, SVG Export Plug-In . SVG Version: 6.00 Build 0)  -->
<!DOCTYPE svg PUBLIC "-//W3C//DTD SVG 1.0//EN" "http://www.w3.org/TR/2001/REC-SVG-20010904/DTD/svg10.dtd">
<svg version="1.0" id="Layer_1" xmlns="http://www.w3.org/2000/svg" xmlns:xlink="http://www.w3.org/1999/xlink" x="0px" y="0px"
	 width="100px" height="100px" viewBox="0 0 100 100" enable-background="new 0 0 100 100" xml:space="preserve">
<path d="M84.358,65.833c4.398-3.301,4.818-9.183,0.928-13.072L90,48.047l-4.714-4.714l-4.713,4.714h-0.004
	c-0.208-0.208-0.445-0.358-0.667-0.544C79.935,47.227,80,46.934,80,46.667c0-8.171-5.882-14.935-13.64-16.36
	c-1.426-7.758-8.193-13.64-16.36-13.64c-6.885,0-12.793,4.177-15.332,10.134c-0.449-0.036-0.879-0.134-1.335-0.134
	c-9.205,0-16.666,7.461-16.666,16.666c0,2.865,0.787,5.515,2.057,7.868c-1.302,2.659-2.057,5.638-2.057,8.799
	c0,3.646,0.992,7.058,2.698,10H10v6.667h6.667l1.842,3.685c0.82,1.641,2.992,2.981,4.824,2.981h53.334
	c1.832,0,4.004-1.341,4.824-2.981l1.842-3.685H90V70H78.802L84.358,65.833z M75.856,52.761l4.713,4.713
	c0.502,0.502,0.749,1.045,0.71,1.569c-0.036,0.527-0.358,1.032-0.925,1.458L67.688,70h-7.62l12.764-17.028
	c0.427-0.563,0.928-0.882,1.455-0.921S75.358,52.259,75.856,52.761z M33.333,33.334c0.212,0.052,0.505,0.088,0.801,0.11l4.779,0.384
	l1.885-4.41c1.578-3.695,5.191-6.084,9.202-6.084c4.812,0,8.933,3.438,9.805,8.177l0.83,4.521l4.521,0.83
	c4.349,0.801,7.568,4.349,8.073,8.646c-2.155,0.313-4.216,1.452-5.729,3.467L56.272,63.945c0.258-1.276,0.395-2.595,0.395-3.945
	c0-11.048-8.952-20-20-20c-5.049,0-9.648,1.885-13.168,4.974c-0.088-0.54-0.166-1.08-0.166-1.641
	C23.333,37.819,27.819,33.334,33.333,33.334z M23.333,60c0-7.363,5.971-13.333,13.334-13.333S50,52.637,50,60
	c0,4.004-1.804,7.556-4.597,10H27.933C25.137,67.556,23.333,64.004,23.333,60z"/>
</svg>
