<svg xmlns="http://www.w3.org/2000/svg" viewBox="0 0 32 32"><title>skull</title><g id="skull"><path d="M15,13.5v-2a3.5,3.5,0,0,0-7,0v2a3.5,3.5,0,0,0,7,0Zm-2,0a1.5,1.5,0,0,1-3,0v-2a1.5,1.5,0,0,1,3,0ZM20.5,8A3.5,3.5,0,0,0,17,11.5v2a3.5,3.5,0,0,0,7,0v-2A3.5,3.5,0,0,0,20.5,8ZM22,13.5a1.5,1.5,0,0,1-3,0v-2a1.5,1.5,0,0,1,3,0ZM18,2H14A10,10,0,0,0,4,12V17c0,3.14,1.49,5,4,5v3c0,2.82,3.22,5,6,5h3c2.78,0,6-2.18,6-5V22h1c2.53,0,4-1.89,4-5V12A10,10,0,0,0,18,2Zm8,15c0,3-1.54,3-2,3H22a1,1,0,0,0-1,1v4a2.5,2.5,0,0,1-1,1.79V25a1,1,0,0,0-2,0v2.85A4,4,0,0,1,17,28h-.5V25a1,1,0,0,0-2,0v3H14a4,4,0,0,1-1-.15V25a1,1,0,0,0-2,0v1.79A2.5,2.5,0,0,1,10,25V21a1,1,0,0,0-1-1H8c-.5,0-2,0-2-3V12a8,8,0,0,1,8-8h4a8,8,0,0,1,8,8Zm-8,3c-.47.88-3.43.82-4,0s1.1-3,2-3S18.43,19.21,18,20Z"/></g></svg>