<svg width="100" height="100" xmlns="http://www.w3.org/2000/svg">

 <g>
  <title>background</title>
  <rect fill="none" id="canvas_background" height="402" width="582" y="-1" x="-1"/>
 </g>
 <g>
  <title>Layer 1</title>
  <path id="svg_1" d="m87.280992,26.667l-28.333,0l0,-16.667l-26.667,0c-11.043,0 -20,8.952 -20,20c0,8.037 4.752,14.948 11.59,18.125l-10.451,28.743c-0.626,1.723 -1.139,4.633 -1.139,6.465l0,6.667l30,0l0,-6.667l-8.856,-2.952l6.198,-17.048l9.324,0c3.666,0 6.667,-3.001 6.667,-6.666l0,-6.667l3.334,0l0,-16.667l28.333,0.001l0,-6.667zm-62.023,56.666l-6.311,0c0,-1.048 0.379,-3.199 0.737,-4.186l10.635,-29.248c0.647,0.065 1.299,0.101 1.962,0.101l5.098,0l-12.121,33.333zm25.356,-26.666c0,0.904 -0.762,1.666 -1.667,1.666l-7.506,0l3.031,-8.333l6.143,0l0,6.667l-0.001,0zm1.667,-13.334l-20,0c-7.352,0 -13.333,-5.983 -13.333,-13.333c0,-7.354 5.981,-13.333 13.333,-13.333l6.667,0l0,10l6.667,0l0,-10l6.666,0l0,26.666z"/>
  <circle id="svg_2" r="3.333" cy="35" cx="40"/>
 </g>
</svg>