<svg width="32" height="32" xmlns="http://www.w3.org/2000/svg">

 <g>
  <title>background</title>
  <rect fill="none" id="canvas_background" height="402" width="582" y="-1" x="-1"/>
 </g>
 <g>
  <title>Layer 1</title>
  <g id="weight_scale">
   <path id="svg_1" d="m9.09,19l7.91,0a1,1 0 0 0 0,-2l-7.91,0a0.09,0.09 0 0 1 -0.09,-0.09l0,-12.82a0.09,0.09 0 0 1 0.09,-0.09l13.82,0a0.09,0.09 0 0 1 0.09,0.09l0,12.82a0.09,0.09 0 0 1 -0.09,0.09l-1.91,0a1,1 0 0 0 0,2l1.91,0a2.1,2.1 0 0 0 2.09,-2.09l0,-12.82a2.1,2.1 0 0 0 -2.09,-2.09l-13.82,0a2.1,2.1 0 0 0 -2.09,2.09l0,12.82a2.1,2.1 0 0 0 2.09,2.09z"/>
   <path id="svg_2" d="m28.37,15.07a1,1 0 0 0 -1.3,0.56l-1.31,3.27a1.73,1.73 0 0 1 -1.62,1.1l-16.28,0a1.73,1.73 0 0 1 -1.62,-1.1l-1.31,-3.27a1,1 0 0 0 -1.86,0.74l1.31,3.27a3.73,3.73 0 0 0 3.48,2.36l5.14,0l0,1l-3.15,0a2.26,2.26 0 0 0 -2.1,1.42l-1.68,4.21a1,1 0 0 0 0.1,0.93a1,1 0 0 0 0.83,0.44l4,0a1,1 0 0 0 0,-2l-2.52,0l1.13,-2.83a0.25,0.25 0 0 1 0.24,-0.17l12.3,0a0.25,0.25 0 0 1 0.24,0.17l1.13,2.83l-8.52,0a1,1 0 0 0 0,2l10,0a1,1 0 0 0 0.83,-0.44a1,1 0 0 0 0.1,-0.93l-1.68,-4.21a2.26,2.26 0 0 0 -2.1,-1.42l-3.15,0l0,-1l5.14,0a3.73,3.73 0 0 0 3.48,-2.36l1.31,-3.27a1,1 0 0 0 -0.56,-1.3zm-11.37,7.93l-2,0l0,-1l2,0l0,1z"/>
  </g>
 </g>
</svg>