<svg xmlns="http://www.w3.org/2000/svg" viewBox="0 0 32 32"><g id="achievement"><path d="M29.91,27.6l-6.63-15a1,1,0,0,0-.91-.6H21V4a1,1,0,0,0-1.51-.86l-5,3a1,1,0,0,0,0,1.72L19,10.57V12H17.63a1,1,0,0,0-.91.6L13.88,19l-1.13-2.42a1,1,0,0,0-.91-.58H8.16a1,1,0,0,0-.91.58l-1.4,3a1,1,0,0,0,.48,1.33,1,1,0,0,0,1.33-.49L8.79,18h2.42l1.52,3.24a.49.49,0,0,0,.1.15L10.35,27H4.57l1.21-2.58A1,1,0,1,0,4,23.58l-1.88,4a1,1,0,0,0,.07,1A1,1,0,0,0,3,29H21a1,1,0,0,0,0-2H12.54l5.74-13h3.44l5.74,13H25a1,1,0,0,0,0,2h4a1,1,0,0,0,.91-1.4ZM16.94,7,19,5.77V8.23Z"/></g></svg>