<svg xmlns="http://www.w3.org/2000/svg" viewBox="0 0 32 32"><g id="checklist"><path d="M8.38,11.65a1,1,0,0,0,.76.35h0a1,1,0,0,0,.77-.42l2.85-4a1,1,0,0,0-1.62-1.16l-2.12,3L8.76,9a1,1,0,1,0-1.52,1.3Z"/><path d="M8.38,17.65a1,1,0,0,0,.76.35h0a1,1,0,0,0,.77-.42l2.85-4a1,1,0,0,0-1.62-1.16l-2.12,3L8.76,15a1,1,0,1,0-1.52,1.3Z"/><path d="M10.19,19.62a3.19,3.19,0,1,0,3.19,3.19A3.19,3.19,0,0,0,10.19,19.62Zm0,4.38a1.19,1.19,0,1,1,0-2.38,1.19,1.19,0,1,1,0,2.38Z"/><path d="M24,8.08H16a1,1,0,0,0,0,2h8a1,1,0,0,0,0-2Z"/><path d="M24,15H16a1,1,0,0,0,0,2h8a1,1,0,0,0,0-2Z"/><path d="M24,21.92H16a1,1,0,0,0,0,2h8a1,1,0,0,0,0-2Z"/><path d="M26.15,2H5.85A3.86,3.86,0,0,0,2,5.85v20.3A3.86,3.86,0,0,0,5.85,30h20.3A3.86,3.86,0,0,0,30,26.15V5.85A3.86,3.86,0,0,0,26.15,2ZM28,26.15A1.85,1.85,0,0,1,26.15,28H5.85A1.85,1.85,0,0,1,4,26.15V5.85A1.85,1.85,0,0,1,5.85,4h20.3A1.85,1.85,0,0,1,28,5.85Z"/></g></svg>