<svg xmlns="http://www.w3.org/2000/svg" viewBox="0 0 32 32"><title>33-Countdown</title><g id="_33-Countdown" data-name="33-Countdown"><path d="M16,29A13,13,0,1,1,29,16,13.015,13.015,0,0,1,16,29ZM16,5A11,11,0,1,0,27,16,11.013,11.013,0,0,0,16,5Z"/><path d="M16,9a1,1,0,0,1-1-1V1a1,1,0,0,1,2,0V8A1,1,0,0,1,16,9Z"/><path d="M16,32a1,1,0,0,1-1-1V24a1,1,0,0,1,2,0v7A1,1,0,0,1,16,32Z"/><path d="M31,17H24a1,1,0,0,1,0-2h7a1,1,0,0,1,0,2Z"/><path d="M8,17H1a1,1,0,0,1,0-2H8a1,1,0,0,1,0,2Z"/><path d="M16,20a1,1,0,0,1-1-1V15.414l-.293.293a1,1,0,0,1-1.414-1.414l2-2A1,1,0,0,1,17,13v6A1,1,0,0,1,16,20Z"/></g></svg>