<svg width="32" height="32" xmlns="http://www.w3.org/2000/svg">

 <g>
  <title>background</title>
  <rect fill="none" id="canvas_background" height="402" width="582" y="-1" x="-1"/>
 </g>
 <g>
  <title>Layer 1</title>
  <g id="eclipse">
   <path id="svg_1" d="m26.74,6.9a10.33,10.33 0 0 0 -7.49,-2.9a11.53,11.53 0 0 0 -1.66,0.17a10.8,10.8 0 0 0 -1.6,0.44a10.54,10.54 0 0 0 -7.36,0.13a1,1 0 0 0 -0.56,1.26a1,1 0 0 0 1.3,0.57a8.47,8.47 0 0 1 3.89,-0.57a10.51,10.51 0 0 0 -2.26,2.39a1,1 0 0 0 -0.3,0l-5.7,2.18a9.14,9.14 0 0 1 1.3,-1.89a1,1 0 1 0 -1.46,-1.36a10.49,10.49 0 0 0 11.16,17.07a10.5,10.5 0 0 0 3.49,0.61l0.26,0a10.35,10.35 0 0 0 3.85,-0.83a1,1 0 1 0 -0.78,-1.84a8.52,8.52 0 1 1 3.39,-2.61a1,1 0 0 0 1.58,1.22a10.56,10.56 0 0 0 2.21,-6.69a10.43,10.43 0 0 0 -3.26,-7.35zm-22.39,6l5.25,-1.9a10.78,10.78 0 0 0 -0.6,3.75c0,0.1 0,0.2 0,0.3l-4.67,1.76a8.28,8.28 0 0 1 -0.19,-3.81l0.21,-0.1zm0.74,5.72l4.24,-1.59a10.17,10.17 0 0 0 1.48,3.31l-3.08,1.19a8.64,8.64 0 0 1 -2.64,-2.87l0,-0.04zm7.41,4.34a8.33,8.33 0 0 1 -2.19,-0.3l1.86,-0.66l0.09,0.09a9.3,9.3 0 0 0 1,0.86a7,7 0 0 1 -0.76,0.05l0,-0.04z"/>
  </g>
 </g>
</svg>