<svg width="32" height="32" xmlns="http://www.w3.org/2000/svg">
 <title>map android app aplication phone</title>

 <g>
  <title>background</title>
  <rect fill="none" id="canvas_background" height="402" width="582" y="-1" x="-1"/>
 </g>
 <g>
  <title>Layer 1</title>
  <g id="map_android_app_aplication_phone">
   <path id="svg_1" d="m30.56,8.47a8,8 0 0 0 -7,-7a64.29,64.29 0 0 0 -15.06,0a8,8 0 0 0 -7,7a64.29,64.29 0 0 0 0,15.06a8,8 0 0 0 7,7a64.29,64.29 0 0 0 15.06,0a8,8 0 0 0 7,-7a64.29,64.29 0 0 0 0,-15.06zm-27.14,14.83a63.65,63.65 0 0 1 0,-14.6a6,6 0 0 1 1.07,-2.79l10.1,10.09l-10.1,10.09a6,6 0 0 1 -1.07,-2.79zm19.88,5.28a63.65,63.65 0 0 1 -14.6,0a6,6 0 0 1 -2.79,-1.07l10.09,-10.1l10.09,10.1a6,6 0 0 1 -2.79,1.07zm5.28,-5.28a6,6 0 0 1 -1.07,2.79l-21.6,-21.6a6,6 0 0 1 2.79,-1.07a63.65,63.65 0 0 1 14.6,0a6,6 0 0 1 5.28,5.28a63.65,63.65 0 0 1 0,14.6z"/>
   <path transform="rotate(90 16.030000686645508,16.000000000000004) " id="svg_4" d="m30.56,8.47a8,8 0 0 0 -7,-7a64.29,64.29 0 0 0 -15.06,0a8,8 0 0 0 -7,7a64.29,64.29 0 0 0 0,15.06a8,8 0 0 0 7,7a64.29,64.29 0 0 0 15.06,0a8,8 0 0 0 7,-7a64.29,64.29 0 0 0 0,-15.06zm-27.14,14.83a63.65,63.65 0 0 1 0,-14.6a6,6 0 0 1 1.07,-2.79l10.1,10.09l-10.1,10.09a6,6 0 0 1 -1.07,-2.79zm19.88,5.28a63.65,63.65 0 0 1 -14.6,0a6,6 0 0 1 -2.79,-1.07l10.09,-10.1l10.09,10.1a6,6 0 0 1 -2.79,1.07zm5.28,-5.28a6,6 0 0 1 -1.07,2.79l-21.6,-21.6a6,6 0 0 1 2.79,-1.07a63.65,63.65 0 0 1 14.6,0a6,6 0 0 1 5.28,5.28a63.65,63.65 0 0 1 0,14.6z"/>
  </g>
 </g>
</svg>