<svg xmlns="http://www.w3.org/2000/svg" viewBox="0 0 32 32"><g id="atom"><path d="M28.54,9.79a4.21,4.21,0,0,0,.83-1,4.49,4.49,0,0,0-1.58-6.16A4.35,4.35,0,0,0,25.91,2a1,1,0,1,0-.18,2,2.41,2.41,0,0,1,1,.34,2.49,2.49,0,0,1,.88,3.42,2.49,2.49,0,0,1-3.42.88,2.49,2.49,0,0,1-.88-3.42A1,1,0,0,0,23,3.86a1.07,1.07,0,0,0-.33-.11.58.58,0,0,0-.21-.17,14,14,0,0,0-14,.64c-3.14-2.2-5-2.76-6-1.79s-.49,2.91,1.7,6.21a1,1,0,0,0,.37,1.2,1,1,0,0,0,1.38-.3A12.07,12.07,0,0,1,7.64,7.39a10.54,10.54,0,0,1,.8-.7,77.89,77.89,0,0,1,8.63,7.79c1.9,1.95,3.49,3.73,4.81,5.33a5.49,5.49,0,0,1-9.73-2h0A3.49,3.49,0,1,0,9.5,19a3.84,3.84,0,0,0,.91-.13A7.47,7.47,0,0,0,23.17,21.4c.72.92,1.33,1.76,1.85,2.52q-.32.34-.66.69A12,12,0,0,1,10.78,26.8,4.38,4.38,0,0,0,11,25.5,4.51,4.51,0,0,0,6.5,21a4.59,4.59,0,0,0-1.3.21,12.06,12.06,0,0,1-.88-8,1,1,0,1,0-1.94-.46,13.94,13.94,0,0,0,1.08,9.44A4.48,4.48,0,0,0,6.5,30a4.61,4.61,0,0,0,1.93-.43,4.62,4.62,0,0,0,1.37-1A13.85,13.85,0,0,0,23.16,28c1.9,1.28,3.3,1.91,4.31,1.91a1.67,1.67,0,0,0,1.22-.46c1-1,.26-3.08-1.22-5.47A14.09,14.09,0,0,0,28.54,9.79ZM8,15.5A1.5,1.5,0,1,1,9.5,17,1.5,1.5,0,0,1,8,15.5Zm.76,11.07a2.54,2.54,0,0,1-1.19,1.19A2.43,2.43,0,0,1,6.5,28,2.5,2.5,0,1,1,9,25.5,2.43,2.43,0,0,1,8.76,26.57ZM6.25,6c-.31.29-.59.62-.87.94A10.28,10.28,0,0,1,4,4,10.88,10.88,0,0,1,6.77,5.49,5.8,5.8,0,0,0,6.25,6Zm12.26,7.13c-.67-.69-1.33-1.35-2-2a5.34,5.34,0,0,1,1-.1A5.51,5.51,0,0,1,23,16.5a5.33,5.33,0,0,1-.17,1.33C21,15.66,19.25,13.85,18.51,13.09Zm8.66,14.8a8.6,8.6,0,0,1-2.25-1.11c.28-.24.57-.48.83-.74l.38-.39A8.53,8.53,0,0,1,27.17,27.89Zm-2.86-8.27A7.42,7.42,0,0,0,25,16.5,7.5,7.5,0,0,0,17.5,9a7.3,7.3,0,0,0-2.66.5c-1.62-1.51-3.2-2.86-4.65-4a12,12,0,0,1,11-.32A4.49,4.49,0,0,0,25.49,11a4.79,4.79,0,0,0,1.13-.14l.18-.07a12.09,12.09,0,0,1-.53,11.4C25.66,21.33,25,20.46,24.31,19.62Z"/></g></svg>