<?xml version="1.0" encoding="utf-8"?>
<!-- Generator: Adobe Illustrator 16.0.0, SVG Export Plug-In . SVG Version: 6.00 Build 0)  -->
<!DOCTYPE svg PUBLIC "-//W3C//DTD SVG 1.0//EN" "http://www.w3.org/TR/2001/REC-SVG-20010904/DTD/svg10.dtd">
<svg version="1.0" id="Layer_1" xmlns="http://www.w3.org/2000/svg" xmlns:xlink="http://www.w3.org/1999/xlink" x="0px" y="0px"
	 width="100px" height="100px" viewBox="0 0 100 100" enable-background="new 0 0 100 100" xml:space="preserve">
<path d="M16.667,50c0,18.408,14.922,33.333,33.333,33.333c18.411,0,33.333-14.925,33.333-33.333H90c0,22.09-17.907,40-40,40
	c-22.093,0-40-17.91-40-40H16.667z"/>
<path d="M30,50c0,11.042,8.952,20,20,20c11.048,0,20-8.958,20-20h-6.667c0,7.36-5.967,13.333-13.333,13.333
	c-7.365,0-13.333-5.973-13.333-13.333H30z"/>
<path d="M85.286,26.668L80,31.953V10h-6.667v21.953l-5.286-5.287l-4.714,4.714L74.31,42.357c1.303,1.302,3.412,1.302,4.714,0
	L90,31.383L85.286,26.668z"/>
<path d="M36.667,21.953L25.69,10.977c-1.302-1.302-3.411-1.302-4.713,0L10,21.95l4.713,4.715L20,21.38v21.953h6.667V21.38
	l5.287,5.286L36.667,21.953z"/>
</svg>
