<svg width="32" height="32" xmlns="http://www.w3.org/2000/svg">
 <title>record android app aplication phone</title>

 <g>
  <title>background</title>
  <rect fill="none" id="canvas_background" height="602" width="802" y="-1" x="-1"/>
 </g>
 <g>
  <title>Layer 1</title>
  <g id="record_android_app_aplication_phone">
   <path id="svg_1" d="m30.56,8.47a8,8 0 0 0 -7,-7a64.29,64.29 0 0 0 -15.06,0a8,8 0 0 0 -7,7a64.29,64.29 0 0 0 0,15.06a8,8 0 0 0 7,7a64.29,64.29 0 0 0 15.06,0a8,8 0 0 0 7,-7a64.29,64.29 0 0 0 0,-15.06zm-2,14.83a6,6 0 0 1 -5.28,5.28a63.65,63.65 0 0 1 -14.6,0a6,6 0 0 1 -5.26,-5.28a63.65,63.65 0 0 1 0,-14.6a6,6 0 0 1 5.28,-5.28a63.65,63.65 0 0 1 14.6,0a6,6 0 0 1 5.28,5.28a63.65,63.65 0 0 1 0,14.6l-0.02,0z"/>
   <path id="svg_2" d="m16,8a8,8 0 1 0 8,8a8,8 0 0 0 -8,-8zm0,14a6,6 0 1 1 6,-6a6,6 0 0 1 -6,6z"/>
  </g>
 </g>
</svg>