<?xml version="1.0" encoding="utf-8"?>
<!-- Generator: Adobe Illustrator 16.0.0, SVG Export Plug-In . SVG Version: 6.00 Build 0)  -->
<!DOCTYPE svg PUBLIC "-//W3C//DTD SVG 1.0//EN" "http://www.w3.org/TR/2001/REC-SVG-20010904/DTD/svg10.dtd">
<svg version="1.0" id="Layer_1" xmlns="http://www.w3.org/2000/svg" xmlns:xlink="http://www.w3.org/1999/xlink" x="0px" y="0px"
	 width="100px" height="100px" viewBox="0 0 100 100" enable-background="new 0 0 100 100" xml:space="preserve">
<path d="M90,23.333H76.872L80.205,10h-6.872L70,23.333H43.333l1.342,13.398c-0.446-0.029-0.889-0.064-1.342-0.064h-6.666
	c-11.042,0-20,8.951-20,20c-3.682,0-6.667,2.981-6.667,6.666V70c0,3.679,2.988,6.667,6.667,6.667l0,0C16.667,84.023,22.637,90,30,90
	h20l0,0c0.013,0,0.02,0,0.032,0h33.301L90,23.333z M36.667,43.333l6.666-0.003c7.367,0,13.334,5.974,13.334,13.337H23.333
	C23.333,49.3,29.304,43.333,36.667,43.333z M16.667,63.327l46.666,0.006V70H16.667V63.327z M30,83.333
	c-3.682,0-6.667-2.988-6.667-6.666H56.67h-0.003c0,3.685-2.988,6.666-6.667,6.666l0,0H30z M77.302,83.333H61.484
	c1.146-1.966,1.849-4.225,1.849-6.666H63.33h0.003C67.015,76.667,70,73.679,70,70v-6.667c0-3.685-2.985-6.666-6.667-6.666
	c0-8.115-4.844-15.092-11.79-18.223L50.7,30h31.934L77.302,83.333z"/>
</svg>
