<svg xmlns="http://www.w3.org/2000/svg" viewBox="0 0 32 32"><title>60-Pizza</title><g id="_60-Pizza" data-name="60-Pizza"><path d="M16,0A16,16,0,1,0,32,16,16,16,0,0,0,16,0Zm0,30A14,14,0,1,1,30,16,14,14,0,0,1,16,30Z"/><path d="M16,4A12,12,0,1,0,28,16,12,12,0,0,0,16,4ZM15,25.95A10,10,0,0,1,6.05,17H15ZM15,15H6.05A10,10,0,0,1,15,6.05Zm2-8.95A10,10,0,0,1,25.95,15H17Zm0,19.9V17h8.95A10,10,0,0,1,17,25.95Z"/><polygon points="11 14 13 14 13 12 12 12 12 10 10 10 10 12 11 12 11 14"/><polygon points="20 22 22 22 22 20 21 20 21 18 19 18 19 20 20 20 20 22"/><polygon points="21 12 19 12 19 14 21 14 21 13 23 13 23 11 21 11 21 12"/><polygon points="11 20 13 20 13 18 11 18 11 19 9 19 9 21 11 21 11 20"/></g></svg>