<svg xmlns="http://www.w3.org/2000/svg" viewBox="0 0 32 32"><g id="police_car" data-name="police car"><path d="M26.49,17H23.62L21.3,12.36A2.44,2.44,0,0,0,19.1,11H18V10a3,3,0,0,0-6,0v1H10.9a2.44,2.44,0,0,0-2.2,1.36L6.38,17H5.51A3.52,3.52,0,0,0,2,20.51V21a1,1,0,0,0,2,0v-.49A1.52,1.52,0,0,1,5.51,19H7a1,1,0,0,0,.89-.55l2.6-5.19A.46.46,0,0,1,10.9,13h1.37l-1.19,3.79a1.79,1.79,0,0,0,.26,1.59,1.43,1.43,0,0,0,1.18.62h14A1.52,1.52,0,0,1,28,20.51v4.32a.18.18,0,0,1-.17.17H26l-.1,0h-.15a.52.52,0,0,0-.13.06h0A1,1,0,0,0,25,26.2a1.45,1.45,0,0,1,0,.3A1.5,1.5,0,1,1,23.5,25a1,1,0,0,0,0-2,3.5,3.5,0,0,0-3.15,2h-8.7a3.49,3.49,0,0,0-5.95-.6,3.25,3.25,0,0,0-.35.6H4.17A.17.17,0,0,1,4,24.83a1,1,0,0,0-2,0,3,3,0,0,0,0,.31A2.19,2.19,0,0,0,4.17,27h.88A3.48,3.48,0,0,0,12,27h8.1A3.48,3.48,0,0,0,27,27h.88A2.17,2.17,0,0,0,30,24.83V20.51A3.52,3.52,0,0,0,26.49,17ZM14,10a1,1,0,0,1,2,0v1H14Zm.36,3H19.1a.46.46,0,0,1,.41.26L21.38,17H13.11ZM8.5,28A1.5,1.5,0,0,1,7,26.5a1.45,1.45,0,0,1,0-.3A1.5,1.5,0,1,1,8.5,28Z"/><path d="M15,22a1,1,0,0,0,0-2H13a1,1,0,0,0,0,2Z"/><path d="M15,6a1,1,0,0,0,1-1V4a1,1,0,0,0-2,0V5A1,1,0,0,0,15,6Z"/><path d="M11.12,7.41a1,1,0,0,0,.64.23,1,1,0,0,0,.77-.35,1,1,0,0,0-.12-1.41l-.77-.65a1,1,0,1,0-1.28,1.54Z"/><path d="M18.24,7.64a1,1,0,0,0,.64-.23l.76-.64a1,1,0,0,0-1.28-1.54l-.77.65a1,1,0,0,0-.12,1.41A1,1,0,0,0,18.24,7.64Z"/></g></svg>