<?xml version="1.0" encoding="iso-8859-1"?>
<!-- Generator: Adobe Illustrator 20.1.0, SVG Export Plug-In . SVG Version: 6.00 Build 0)  -->
<svg version="1.1" id="Christmas-ball" xmlns="http://www.w3.org/2000/svg" xmlns:xlink="http://www.w3.org/1999/xlink" x="0px"
	 y="0px" viewBox="0 0 26 32" style="enable-background:new 0 0 26 32;" xml:space="preserve">
<g>
	<path d="M17.24,6.723l0.719-2.44c0.089-0.302,0.031-0.629-0.158-0.882C17.612,3.148,17.315,3,17,3h-3V0h-2v3H9
		C8.685,3,8.388,3.148,8.199,3.401C8.01,3.654,7.952,3.98,8.041,4.283l0.719,2.44C3.554,8.514,0,13.424,0,19c0,7.168,5.832,13,13,13
		s13-5.832,13-13C26,13.424,22.446,8.514,17.24,6.723z M13,30C6.935,30,2,25.065,2,19c0-5.011,3.393-9.386,8.25-10.638
		c0.263-0.068,0.486-0.239,0.62-0.475s0.166-0.516,0.089-0.776L10.337,5h5.325l-0.622,2.111c-0.077,0.26-0.044,0.54,0.089,0.776
		s0.357,0.407,0.62,0.475C20.607,9.614,24,13.989,24,19C24,25.065,19.065,30,13,30z"/>
	<path d="M4,18h2c0-3.834,2.701-3.995,3.009-4L9,12C7.271,12,4,13.254,4,18z"/>
	<rect x="4" y="19" width="2" height="2"/>
</g>
</svg>
