<svg width="32" height="32" xmlns="http://www.w3.org/2000/svg">

 <g>
  <title>background</title>
  <rect fill="none" id="canvas_background" height="402" width="582" y="-1" x="-1"/>
 </g>
 <g>
  <title>Layer 1</title>
  <g transform="rotate(180 15.977316856384276,16.177688598632812) " id="wifi">
   <path id="svg_1" d="m16,20a3.5,3.5 0 1 0 3.5,3.5a3.5,3.5 0 0 0 -3.5,-3.5zm0,5a1.5,1.5 0 1 1 1.5,-1.5a1.5,1.5 0 0 1 -1.5,1.5z"/>
   <path id="svg_2" d="m16,15a9.32,9.32 0 0 0 -7.9,4.47a1,1 0 0 0 0.32,1.38a1,1 0 0 0 1.38,-0.32a7.23,7.23 0 0 1 12.41,0a1,1 0 0 0 1.69,-1.07a9.32,9.32 0 0 0 -7.9,-4.46z"/>
   <path id="svg_3" d="m16,10.18a14,14 0 0 0 -10.83,5.18a1,1 0 0 0 0.13,1.41a1,1 0 0 0 0.64,0.23a1,1 0 0 0 0.77,-0.36a11.93,11.93 0 0 1 18.57,0a1,1 0 1 0 1.53,-1.28a14.05,14.05 0 0 0 -10.81,-5.18z"/>
   <path id="svg_4" d="m29.72,11.28a18.86,18.86 0 0 0 -27.45,0a1,1 0 0 0 0.73,1.72a1,1 0 0 0 0.72,-0.31a16.85,16.85 0 0 1 24.55,0a1,1 0 0 0 1.41,0a1,1 0 0 0 0.04,-1.41z"/>
  </g>
 </g>
</svg>