<svg xmlns="http://www.w3.org/2000/svg" viewBox="0 0 32 32"><g id="solar_system" data-name="solar system"><path d="M9.8,12.67l-1,.19a1,1,0,0,0-.76.68,1,1,0,0,0,.23,1l.69.71a1.07,1.07,0,0,1,0,1.5l-.69.71a1,1,0,0,0-.23,1,1,1,0,0,0,.76.68l1,.19a1.16,1.16,0,0,1,1,1.24l-.12.95a1,1,0,0,0,.4.92,1,1,0,0,0,1,.12l.92-.4a1.32,1.32,0,0,1,1.65.49l.5.84a1,1,0,0,0,1.72,0l.5-.84A1.32,1.32,0,0,1,19,22.16l.92.4a1,1,0,0,0,1-.12,1,1,0,0,0,.4-.92l-.12-.95a1.16,1.16,0,0,1,1-1.24l1-.19a1,1,0,0,0,.76-.68,1,1,0,0,0-.23-1L23,16.75a1.07,1.07,0,0,1,0-1.5l.69-.71a1,1,0,0,0,.23-1,1,1,0,0,0-.76-.68l-1-.19a1.16,1.16,0,0,1-1-1.24l.12-.95a1,1,0,0,0-.4-.92,1,1,0,0,0-1-.12l-.92.4a1.32,1.32,0,0,1-1.65-.49l-.5-.84a1,1,0,0,0-1.72,0l-.5.84A1.32,1.32,0,0,1,13,9.84l-.92-.4a1,1,0,0,0-1,.12,1,1,0,0,0-.4.92l.12.95A1.16,1.16,0,0,1,9.8,12.67Zm1,1.77a3.21,3.21,0,0,0,1.94-2.57,3.33,3.33,0,0,0,3.21-1,3.33,3.33,0,0,0,3.21,1,3.21,3.21,0,0,0,1.94,2.57,3.06,3.06,0,0,0,0,3.12,3.21,3.21,0,0,0-1.94,2.57,3.31,3.31,0,0,0-3.21,1A3.3,3.3,0,0,0,13.54,20a3.2,3.2,0,0,0-.75.09,3.21,3.21,0,0,0-1.94-2.57A3.06,3.06,0,0,0,10.85,14.44Z"/><path d="M28.05,23.12A14,14,0,0,0,11.69,2.68a1,1,0,0,0,.62,1.9A11.81,11.81,0,0,1,16,4,12,12,0,0,1,26.32,22.11a3.47,3.47,0,0,0-4.21,4.21A12,12,0,0,1,5.68,9.89,3.18,3.18,0,0,0,6.5,10,3.53,3.53,0,1,0,4,8.88,14,14,0,0,0,23.54,27.8a1,1,0,0,0,.18-.18.32.32,0,0,0,.09,0,1,1,0,0,0,.38-1.36,1.5,1.5,0,1,1,2,.58,1,1,0,0,0-.38,1.36,1,1,0,0,0,.87.51,1.07,1.07,0,0,0,.49-.12,3.52,3.52,0,0,0,1.35-4.77A3.82,3.82,0,0,0,28.05,23.12ZM6.5,5A1.5,1.5,0,1,1,5,6.5,1.5,1.5,0,0,1,6.5,5Z"/><path d="M20,7a1,1,0,0,0-1-1h0a1,1,0,1,0,1,1Z"/><path d="M13,24a1,1,0,1,0,1,1,1,1,0,0,0-1-1Z"/></g></svg>