<?xml version="1.0" encoding="utf-8"?>
<!-- Generator: Adobe Illustrator 16.0.0, SVG Export Plug-In . SVG Version: 6.00 Build 0)  -->
<!DOCTYPE svg PUBLIC "-//W3C//DTD SVG 1.0//EN" "http://www.w3.org/TR/2001/REC-SVG-20010904/DTD/svg10.dtd">
<svg version="1.0" id="Layer_1" xmlns="http://www.w3.org/2000/svg" xmlns:xlink="http://www.w3.org/1999/xlink" x="0px" y="0px"
	 width="100px" height="100px" viewBox="0 0 100 100" enable-background="new 0 0 100 100" xml:space="preserve">
<path d="M90,50l-11.56-5.781C79.437,42.891,80,41.478,80,40c0-12.884-13.435-23.333-30-23.333c-16.569,0-30,10.449-30,23.333
	c0,1.478,0.56,2.891,1.56,4.219L10,50v3.333l10.82,5.41c-0.521,1.479-0.827,3.008-0.827,4.59H20c0,11.045,13.431,20,30,20
	s30-8.955,30-20c0-1.582-0.306-3.111-0.827-4.586L90,53.333V50z M50,23.333c12.646,0,23.333,7.631,23.333,16.667
	c-0.589,1.738-8.688,6.667-23.333,6.667c-14.642,0-22.741-4.929-23.35-6.804C26.667,30.964,37.351,23.333,50,23.333z M50,76.667
	c-13.75,0-23.333-7.028-23.333-13.334c0-0.543,0.071-1.067,0.188-1.572L50,73.333l23.118-11.559
	c0.127,0.523,0.215,1.045,0.215,1.563C73.333,69.639,63.75,76.667,50,76.667z M50,65.879L21.575,51.667l5.827-2.917
	c5.501,2.806,13.574,4.583,22.598,4.583s17.097-1.777,22.598-4.583l5.83,2.917L50,65.879z"/>
<circle cx="38.333" cy="33.337" r="3.333"/>
<circle cx="51.667" cy="30" r="3.333"/>
<circle cx="50" cy="40" r="3.333"/>
<circle cx="63.333" cy="35" r="3.333"/>
</svg>
