<?xml version="1.0" encoding="utf-8"?>
<!-- Generator: Adobe Illustrator 16.0.0, SVG Export Plug-In . SVG Version: 6.00 Build 0)  -->
<!DOCTYPE svg PUBLIC "-//W3C//DTD SVG 1.0//EN" "http://www.w3.org/TR/2001/REC-SVG-20010904/DTD/svg10.dtd">
<svg version="1.0" id="Layer_1" xmlns="http://www.w3.org/2000/svg" xmlns:xlink="http://www.w3.org/1999/xlink" x="0px" y="0px"
	 width="100px" height="100px" viewBox="0 0 100 100" enable-background="new 0 0 100 100" xml:space="preserve">
<path d="M78.289,21.719c-3.828-3.825-9.395-4.814-14.147-3.015V10L47.709,26.432h8.704c-1.796,4.753-0.807,10.319,3.018,14.141
	c5.206,5.208,5.203,13.652-0.006,18.86c-5.202,5.201-13.643,5.201-18.851-0.007c-3.825-3.821-9.388-4.811-14.141-3.015v-8.704
	L10,64.143h8.702c-1.794,4.749-0.805,10.315,3.018,14.144c15.619,15.618,40.942,15.618,56.567,0
	C93.904,62.668,93.904,37.337,78.289,21.719z M73.569,73.572c-13.019,13.015-34.123,13.015-47.137,0
	c-2.598-2.61-2.601-6.829,0-9.427c2.607-2.604,6.826-2.604,9.427-0.006c7.813,7.812,20.472,7.812,28.279,0.006
	c7.813-7.813,7.813-20.468,0.007-28.287c-2.601-2.598-2.601-6.822,0.003-9.427c2.601-2.604,6.823-2.604,9.427,0
	C86.587,39.452,86.587,60.559,73.569,73.572z"/>
</svg>
