<svg width="32" height="32" xmlns="http://www.w3.org/2000/svg">
 <title>shield</title>

 <g>
  <title>background</title>
  <rect fill="none" id="canvas_background" height="402" width="582" y="-1" x="-1"/>
 </g>
 <g>
  <title>Layer 1</title>
  <g id="shield">
   <path id="svg_1" d="m27.18,4l-11,-2a1.09,1.09 0 0 0 -0.36,0l-11,2a1,1 0 0 0 -0.82,1l0,13a10.49,10.49 0 0 0 6.24,9.46l5.35,2.43a1,1 0 0 0 0.82,0l5.35,-2.43a11.21,11.21 0 0 0 6.24,-9.46l0,-13a1,1 0 0 0 -0.82,-1zm-1.18,14a9.22,9.22 0 0 1 -5.07,7.64l-4.93,2.26l-4.93,-2.24a8.49,8.49 0 0 1 -5.07,-7.66l0,-12.17l10,-1.83l10,1.83l0,12.17zm-7.43,5.1a7.3,7.3 0 0 0 4.43,-7.1l0,-3a1,1 0 0 1 2,0l0,3a9.27,9.27 0 0 1 -5.57,8.88a1,1 0 0 1 -0.43,0.12a1,1 0 0 1 -0.43,-1.9z"/>
  </g>
 </g>
</svg>