<svg version="1.0" id="Layer_1" xmlns="http://www.w3.org/2000/svg" xmlns:xlink="http://www.w3.org/1999/xlink" x="0px" y="0px" width="100px" height="100px" viewBox="0 0 100 100" enable-background="new 0 0 100 100" xml:space="preserve">
   <metadata>
      <rdf:RDF xmlns:rdf="http://www.w3.org/1999/02/22-rdf-syntax-ns#">
         <rdf:Description xmlns:dc="http://purl.org/dc/elements/1.1/" rdf:about="">
            <dc:title>
               <rdf:Alt>
                  <rdf:li xml:lang="x-default">Drone</rdf:li>
               </rdf:Alt>
            </dc:title>
            <dc:description>
               <rdf:Alt>
                  <rdf:li xml:lang="x-default"></rdf:li>
               </rdf:Alt>
            </dc:description>
            <dc:subject>
               <rdf:Bag>
                  <rdf:li>quadrocopter</rdf:li>
                  <rdf:li>drone</rdf:li>
                  <rdf:li>gadget</rdf:li>
                  <rdf:li>multirotor</rdf:li>
                  <rdf:li>rotorcraft</rdf:li>
                  <rdf:li>quadrotor</rdf:li>
                  <rdf:li>flight</rdf:li>
                  <rdf:li>top view</rdf:li>
                  <rdf:li>device</rdf:li>
               </rdf:Bag>
            </dc:subject>
         </rdf:Description>
      </rdf:RDF>
   </metadata>
<path d="M73.333,56.667c-3.398,0-6.549,1.028-9.18,2.77l-3.548-3.545l2.36-2.356c1.943-1.943,1.943-5.124,0-7.07l-2.357-2.357  l3.545-3.545c2.637,1.743,5.788,2.771,9.184,2.771C82.542,43.333,90,35.873,90,26.667C90,17.461,82.542,10,73.337,10  c-9.209,0-16.67,7.461-16.67,16.667c0,3.397,1.028,6.546,2.773,9.182l-3.549,3.545l-2.356-2.357c-1.943-1.945-5.127-1.943-7.07,0  l-2.357,2.358l-3.546-3.546c1.745-2.634,2.772-5.783,2.772-9.18C43.333,17.461,35.873,10,26.667,10C17.461,10,10,17.461,10,26.668  c0,9.206,7.461,16.663,16.667,16.663c3.396,0,6.546-1.027,9.18-2.77l3.547,3.546l-2.357,2.357c-1.943,1.943-1.945,5.127,0,7.07  l2.357,2.356l-3.545,3.545c-2.634-1.741-5.785-2.77-9.18-2.77C17.461,56.667,10,64.128,10,73.333C10,82.539,17.461,90,26.668,90  c9.206,0,16.663-7.461,16.663-16.667c0-3.395-1.027-6.546-2.77-9.18l3.546-3.545l2.357,2.357c1.947,1.943,5.127,1.943,7.07,0  l2.356-2.357l3.545,3.545c-1.741,2.634-2.77,5.785-2.77,9.184C56.667,82.542,64.128,90,73.333,90C82.539,90,90,82.542,90,73.337  C90,64.128,82.539,56.667,73.333,56.667z M73.333,16.667c5.527,0,10,4.476,10,10c0,5.524-4.473,10-10,10  c-1.539,0-2.981-0.377-4.283-0.999l6.644-6.644c1.296-1.295,1.296-3.418,0-4.717c-1.296-1.295-3.418-1.295-4.714,0l-6.646,6.647  c-0.622-1.304-1-2.746-1-4.287C63.333,21.143,67.813,16.667,73.333,16.667z M35.667,30.954l-6.646-6.646  c-1.296-1.295-3.418-1.295-4.714,0c-1.295,1.297-1.295,3.42,0,4.715l6.644,6.644c-1.304,0.622-2.744,0.999-4.286,0.999  c-5.524,0-10-4.476-10-10c0-5.524,4.476-10,10-10c5.524,0,10,4.476,10,10C36.667,28.208,36.289,29.65,35.667,30.954z M26.667,83.333  c-5.524,0-10-4.476-10-10c0-5.523,4.476-10,10-10c1.542,0,2.983,0.378,4.286,1l-6.644,6.644c-1.295,1.296-1.295,3.418,0,4.714  c1.297,1.295,3.42,1.295,4.715,0l6.644-6.645c0.622,1.306,0.999,2.748,0.999,4.287C36.667,78.857,32.191,83.333,26.667,83.333z   M50,57.073L42.93,50L50,42.93L57.073,50L50,57.073z M73.333,83.333c-5.523,0-10-4.473-10-10c0-1.539,0.378-2.981,1-4.283  l6.644,6.644c1.296,1.296,3.418,1.296,4.717,0c1.296-1.296,1.296-3.418,0-4.714l-6.647-6.646c1.306-0.622,2.744-1,4.287-1  c5.524,0,10,4.479,10,10C83.333,78.86,78.857,83.333,73.333,83.333z" />
</svg>
